SplineFontDB: 3.0
FontName: NeutonCursive-Regular
FullName: Neuton Cursive
FamilyName: Neuton Cursive
Weight: Book
Copyright: Copyright (c) 2010, 2011 Brian M Zick (http://21326.info/), \nwith Reserved Font Name 'Neuton Cursive'.\n\nThis Font Software is licensed under the SIL Open Font License, Version 1.1.\nThis license is available with a FAQ at: http://scripts.sil.org/OFL\n   WITHOUT WARRANTIES OR CONDITIONS OF ANY KIND, either express or implied.\n   See the License for the specific language governing permissions and\n   limitations under the License.
Version: 1.45
ItalicAngle: 0
UnderlinePosition: -361
UnderlineWidth: 0
Ascent: 1638
Descent: 410
LayerCount: 2
Layer: 0 0 "Back"  1
Layer: 1 0 "Fore"  0
NeedsXUIDChange: 1
XUID: [1021 467 2011608612 8622985]
FSType: 1
OS2Version: 1
OS2_WeightWidthSlopeOnly: 0
OS2_UseTypoMetrics: 0
CreationTime: 1300472668
ModificationTime: 1324806932
PfmFamily: 17
TTFWeight: 500
TTFWidth: 5
LineGap: 0
VLineGap: 0
OS2TypoAscent: 2106
OS2TypoAOffset: 0
OS2TypoDescent: -485
OS2TypoDOffset: 0
OS2TypoLinegap: 0
OS2WinAscent: 2106
OS2WinAOffset: 0
OS2WinDescent: 485
OS2WinDOffset: 0
HheadAscent: 2106
HheadAOffset: 0
HheadDescent: -485
HheadDOffset: 0
OS2SubXSize: 1095
OS2SubYSize: 1179
OS2SubXOff: 0
OS2SubYOff: 235
OS2SupXSize: 1095
OS2SupYSize: 1179
OS2SupXOff: 0
OS2SupYOff: 809
OS2StrikeYSize: 84
OS2StrikeYPos: 436
OS2Vendor: 'PfEd'
OS2CodePages: 20000093.00000000
OS2UnicodeRanges: a00000ef.0000204a.00000000.00000000
Lookup: 1 0 0 "'onum' Oldstyle Figures lookup 1"  {"'onum' Oldstyle Figures lookup 1-1" ("osf" ) } ['onum' ('DFLT' <'dflt' > 'hebr' <'dflt' > 'latn' <'dflt' > ) ]
MarkAttachClasses: 1
DEI: 91125
ShortTable: maxp 16
  1
  0
  367
  132
  7
  0
  0
  2
  0
  1
  1
  0
  64
  0
  0
  0
EndShort

StartChar: exclam
Encoding: 33 33 1
Width: 341
VWidth: 1655
GlyphClass: 2
Flags: HMW
LayerCount: 2
Fore
SplineSet
188 206 m 0
 200 200 210 192 220 178 c 0
 230 164 235 154 238 143 c 0
 241 132 242 125 242 120 c 0
 242 115 240 100 234 73 c 0
 228 46 214 22 191 -1 c 0
 168 -24 141 -35 111 -35 c 1
 84 -33 64 -24 48 -8 c 0
 32 8 24 24 21 42 c 0
 18 60 17 68 17 71 c 0
 17 74 19 86 24 108 c 0
 29 130 41 153 64 176 c 0
 87 199 110 211 134 212 c 0
 158 213 176 212 188 206 c 0
59 1257 m 1
 90 1279 126 1290 167 1290 c 0
 208 1290 242 1278 268 1254 c 0
 294 1230 310 1196 318 1152 c 1
 322 1136 324 1114 323 1085 c 0
 321 1000 304 872 269 699 c 2
 194 338 l 1
 123 325 l 1
 135 495 l 2
 140 561 142 666 142 811 c 2
 142 874 l 1
 137 1022 110 1150 59 1257 c 1
EndSplineSet
Colour: ffff
EndChar

StartChar: quotedbl
Encoding: 34 34 2
Width: 442
VWidth: 1655
GlyphClass: 2
Flags: HMW
LayerCount: 2
Fore
SplineSet
237 1308 m 1
 243 1310 262 1311 296 1310 c 0
 330 1309 371 1304 420 1292 c 1
 335 906 l 1
 312 898 287 894 260 895 c 1
 240 895 l 1
 237 1308 l 1
28 1308 m 1
 34 1310 52 1311 86 1310 c 0
 120 1309 162 1304 211 1292 c 1
 126 906 l 1
 103 898 78 894 51 895 c 1
 30 895 l 1
 28 1308 l 1
EndSplineSet
Colour: ffff
EndChar

StartChar: numbersign
Encoding: 35 35 3
Width: 895
VWidth: 1655
GlyphClass: 2
Flags: HMW
LayerCount: 2
Fore
SplineSet
317 455 m 1
 516 455 l 1
 581 662 l 1
 380 662 l 1
 317 455 l 1
284 355 m 1
 233 174 l 1
 128 167 l 1
 183 355 l 1
 17 355 l 1
 58 455 l 1
 216 455 l 1
 279 662 l 1
 121 662 l 1
 160 760 l 1
 312 760 l 1
 369 931 l 1
 470 941 l 1
 413 760 l 1
 613 760 l 1
 667 931 l 1
 770 940 l 1
 713 760 l 1
 878 760 l 1
 839 662 l 1
 681 662 l 1
 619 455 l 1
 775 455 l 1
 736 355 l 1
 584 355 l 1
 533 174 l 1
 428 167 l 1
 484 355 l 1
 284 355 l 1
EndSplineSet
Colour: ffff
EndChar

StartChar: dollar
Encoding: 36 36 4
Width: 877
VWidth: 1655
GlyphClass: 2
Flags: HMW
LayerCount: 2
Fore
SplineSet
242 401 m 1
 222 346 212 297 214 256 c 1
 214 193 246.154 146 309 113 c 1
 323 104 340 96 362 88 c 1
 436 525 l 1
 355 591 292 650 249 702 c 1
 193 773 165 841 165 906 c 2
 165 928 l 1
 169 966 180 1004 200 1043 c 0
 234 1108 280 1161 339 1200 c 0
 398 1239 460 1263 527 1273 c 1
 552 1417 l 1
 685 1426 l 1
 660 1271 l 1
 741 1256 808 1225 862 1178 c 1
 797 832 l 1
 709 851 l 1
 702 1101 l 1
 679 1134 648 1157 609 1171 c 1
 536 741 l 1
 623 668 677 621 700 600 c 1
 769 532 808 457 819 376 c 1
 821 371 821 362 820 346 c 1
 820 261 789 185 726 120 c 0
 675 66 610 26 531 0 c 0
 502 -10 472 -15 441 -19 c 1
 418 -157 l 1
 289 -167 l 1
 314 -19 l 1
 241 -11 177 12 120 49 c 1
 90 70 66 94 48 123 c 0
 30 152 20 180 17 207 c 1
 15 211 15 218 15 232 c 0
 15 246 17 264 23 286 c 1
 41 339 75 375 127 395 c 1
 150 406 174 411 200 411 c 0
 215.167 411 229.75 408 242 401 c 1
425 80 m 1
 466 83 504 94 537 116 c 0
 591 151 618 200 618 262 c 0
 618 324 596 378 553 423 c 1
 539 440 519 458 493 479 c 1
 425 80 l 1
545 1184 m 1
 541 1184 l 2
 496 1184 456 1168 418 1138 c 0
 380 1108 360 1067 356 1016 c 1
 356 1003 l 2
 356 945 376 894 416 850 c 0
 432 833 453 813 479 788 c 1
 545 1184 l 1
EndSplineSet
Colour: ffff
EndChar

StartChar: percent
Encoding: 37 37 5
Width: 1063
VWidth: 1655
GlyphClass: 2
Flags: HMW
LayerCount: 2
Fore
SplineSet
676 202 m 0
 676 113 713 68 788 68 c 0
 869 68 915 119 927 220 c 1
 929 226 929 236 929 254 c 0
 929 295 919 327 898 350 c 0
 877 373 850 385 814 385 c 0
 735 385 690 337 678 240 c 1
 676 234 676 222 676 202 c 0
1046 274 m 0
 1046 270 1045 257 1042 233 c 0
 1033 156 1004 94 953 47 c 0
 902 0 841 -24 770 -24 c 0
 699 -24 646 -3 611 37 c 0
 576 77 558 128 558 191 c 0
 558 272 587 339 646 394 c 0
 705 449 770 476 840 476 c 0
 910 476 962 458 996 421 c 0
 1030 384 1046 335 1046 274 c 0
274 883 m 0
 181 883 135 821 136 699 c 0
 136 608 173 563 247 562 c 1
 329 562 375 619 387 733 c 0
 389 745 389 752 389 754 c 0
 389 794 380 825 359 848 c 0
 338 871 310 883 274 883 c 0
504 770 m 0
 504 768 504 754 502 727 c 1
 492 649 463 587 413 541 c 0
 363 495 302 471 231 471 c 0
 160 471 106 491 71 530 c 0
 36 569 18 621 18 686 c 0
 18 769 46 838 102 893 c 0
 158 948 221 975 293 975 c 0
 365 975 419 957 453 920 c 0
 487 883 504 833 504 770 c 0
859 962 m 1
 995 971 l 1
 186 -23 l 1
 44 -31 l 1
 859 962 l 1
EndSplineSet
Colour: ffff
EndChar

StartChar: ampersand
Encoding: 38 38 6
Width: 1130
VWidth: 1655
GlyphClass: 2
Flags: HMW
LayerCount: 2
Fore
SplineSet
763 617 m 1
 799.659 671.037 848.37 701 919 701 c 0
 1029.66 701 1112 586.288 1112 460 c 0
 1112 289.259 1009.77 162.445 868.819 77.7363 c 1
 893.756 27.4622 913 -23.3331 913 -79 c 0
 913 -272.492 656.194 -363 494 -301 c 1
 487 -265 l 1
 604.073 -243.917 722 -212.549 722 -112 c 0
 722 -70.9229 714.827 -48.7517 691.121 -1.90963 c 1
 587.626 -35.4633 478.34 -52 380 -52 c 0
 192.972 -52 17 29.7617 17 270 c 0
 17 424.661 158.493 542.864 318.919 625.764 c 1
 262.083 727.663 237 806.573 237 872 c 0
 237 1050.9 403.162 1220 613 1220 c 0
 763.836 1220 871 1126.06 871 985 c 0
 871 800.545 687.334 682.543 535.463 632.766 c 1
 820.61 165.338 l 1
 885.195 217.431 928 293.714 928 400 c 0
 928 488.279 873.268 578.565 763 617 c 1
362.939 551.257 m 1
 250.014 475.204 229 400.334 229 309 c 0
 229 151.666 357.636 72 512 72 c 0
 555.461 72 600.183 76.2921 643.453 85.6269 c 1
 362.939 551.257 l 1
496.267 697.686 m 1
 604.775 731.791 688 851.311 688 933 c 0
 688 1062.33 623.982 1127 544 1127 c 0
 462.474 1127 410 1046.18 410 971 c 0
 410 860.906 437.279 797.583 496.267 697.686 c 1
519.75 627.822 m 0
 518.832 627.546 517.915 627.272 517 627 c 1
 521.891 620.262 522.095 621.847 519.75 627.822 c 0
EndSplineSet
Colour: ffff
EndChar

StartChar: quotesingle
Encoding: 39 39 7
Width: 233
VWidth: 1655
GlyphClass: 2
Flags: HMW
LayerCount: 2
Fore
SplineSet
28 1308 m 1
 34 1310 52 1311 86 1310 c 0
 120 1309 162 1304 211 1292 c 1
 126 906 l 1
 103 898 78 894 51 895 c 1
 30 895 l 1
 28 1308 l 1
EndSplineSet
Colour: ffff
EndChar

StartChar: parenleft
Encoding: 40 40 8
Width: 526
VWidth: 1655
GlyphClass: 2
Flags: HMW
LayerCount: 2
Fore
SplineSet
260 -378 m 1
 99 -195 18 27 17 287 c 0
 17 338 21 402 30 477 c 0
 39 552 58 635 88 724 c 0
 118 813 150 885 182 940 c 0
 214 995 252 1047 295 1098 c 0
 338 1149 373 1187 402 1212 c 0
 431 1237 452 1254 467 1266 c 1
 509 1199 l 1
 348 1020 248 774 209 460 c 0
 201 401 198 341 197 282 c 1
 199 72 246 -129 337 -320 c 1
 260 -378 l 1
EndSplineSet
Colour: ffff
EndChar

StartChar: parenright
Encoding: 41 41 9
Width: 544
VWidth: 1655
GlyphClass: 2
Flags: HMW
LayerCount: 2
Fore
SplineSet
17 -320 m 1
 240 -16 351 319 352 685 c 0
 352 886 308 1057 220 1199 c 1
 278 1266 l 1
 444 1111 527 897 526 621 c 0
 526 467 500 317 449 170 c 1
 418 84 387 12 355 -45 c 0
 323 -102 288 -152 251 -197 c 0
 214 -242 186 -276 166 -298 c 0
 142 -325 113 -351 79 -378 c 1
 17 -320 l 1
EndSplineSet
Colour: ffff
EndChar

StartChar: asterisk
Encoding: 42 42 10
Width: 751
VWidth: 0
GlyphClass: 2
Flags: HMW
LayerCount: 2
Fore
SplineSet
304 1292 m 1
 440 1279 l 1
 414 988 l 1
 703 1119 l 1
 732 989 l 1
 447 921 l 1
 666 692 l 1
 548 623 l 1
 395 870 l 1
 240 593 l 1
 138 685 l 1
 331 904 l 1
 19 964 l 1
 74 1091 l 1
 341 977 l 1
 304 1292 l 1
EndSplineSet
Colour: ffff
EndChar

StartChar: plus
Encoding: 43 43 11
Width: 608
VWidth: 1655
GlyphClass: 2
Flags: HMW
LayerCount: 2
Fore
SplineSet
353 413 m 1
 325 174 l 1
 216 186 l 1
 244 413 l 1
 20 413 l 1
 45 514 l 1
 254 514 l 1
 284 747 l 1
 390 734 l 1
 365 514 l 1
 588 514 l 1
 562 413 l 1
 353 413 l 1
EndSplineSet
Colour: ffff
EndChar

StartChar: comma
Encoding: 44 44 12
Width: 378
VWidth: 1655
GlyphClass: 2
Flags: HMW
LayerCount: 2
Fore
SplineSet
212 227 m 2
 227 227 l 1
 279 221 316 188 338 127 c 1
 348 103 352 80 353 57 c 1
 353 -44 303 -132 204 -209 c 1
 160 -245 110 -276 55 -303 c 1
 23 -251 l 1
 82 -220 124 -187 149 -149 c 0
 174 -111 186 -74 186 -39 c 0
 186 -37 184 -26 180 -4 c 0
 176 18 165 42 145 64 c 0
 125 86 103 103 78 116 c 1
 88 152 105 179 132 198 c 0
 159 217 185 227 212 227 c 2
EndSplineSet
Colour: ffff
EndChar

StartChar: hyphen
Encoding: 45 45 13
Width: 460
VWidth: 1655
GlyphClass: 2
Flags: HMW
LayerCount: 2
Fore
SplineSet
35 489 m 1
 435 507 l 1
 423 408 l 1
 24 390 l 1
 35 489 l 1
EndSplineSet
Colour: ffff
EndChar

StartChar: period
Encoding: 46 46 14
Width: 274
VWidth: 1655
GlyphClass: 2
Flags: HMW
LayerCount: 2
Fore
SplineSet
195 206 m 0
 207 200 217 192 227 178 c 0
 237 164 242 154 245 143 c 0
 248 132 249 125 249 120 c 0
 249 115 247 100 241 73 c 0
 235 46 221 22 198 -1 c 0
 175 -24 148 -35 118 -35 c 1
 91 -33 71 -24 55 -8 c 0
 39 8 31 24 28 42 c 0
 25 60 24 68 24 71 c 0
 24 74 26 86 31 108 c 0
 36 130 48 153 71 176 c 0
 94 199 117 211 141 212 c 0
 165 213 183 212 195 206 c 0
EndSplineSet
Colour: ffff
EndChar

StartChar: slash
Encoding: 47 47 15
Width: 634
VWidth: 1655
GlyphClass: 2
Flags: HMW
LayerCount: 2
Fore
SplineSet
483 1245 m 1
 617 1252 l 1
 148 -357 l 1
 17 -367 l 1
 483 1245 l 1
EndSplineSet
Colour: ffff
EndChar

StartChar: zero
Encoding: 48 48 16
Width: 873
VWidth: 1655
GlyphClass: 2
Flags: HMW
LayerCount: 2
Fore
SplineSet
207 864 m 1
 187 801 177 731 178 653 c 1
 178 509 210 375 273 251 c 1
 325 151 392 101 473 101 c 0
 535 101 582 125 615 173 c 0
 636 204 655 252 672 317 c 0
 689 382 696 448 696 517 c 0
 696 624 673 728 629 829 c 0
 585 930 530 995 463 1022 c 0
 439 1031 422 1035 411 1036 c 0
 400 1037 385 1035 365 1032 c 1
 287 1015 234 959 207 864 c 1
498 1158 m 1
 563 1154 620 1133 669 1092 c 0
 718 1051 759 997 790 931 c 0
 833 840 855 736 855 618 c 0
 855 611 854 586 851 543 c 0
 839 402 800 282 731 181 c 0
 693 126 649 81 600 45 c 0
 551 9 507 -11 467 -16 c 0
 427 -21 407 -23 403 -23 c 0
 340 -23 280 -5 224 30 c 0
 168 65 122 119 87 191 c 0
 52 263 31 345 23 437 c 1
 19 466 18 503 18 548 c 0
 18 593 24 644 38 702 c 0
 65 818 116 921 193 1011 c 0
 238 1063 284 1100 330 1123 c 0
 376 1146 426 1158 481 1158 c 2
 498 1158 l 1
EndSplineSet
Substitution2: "'onum' Oldstyle Figures lookup 1-1" zero.osf
Colour: ffff
EndChar

StartChar: one
Encoding: 49 49 17
Width: 551
VWidth: 1655
GlyphClass: 2
Flags: HMW
LayerCount: 2
Fore
SplineSet
214 -14 m 1
 262 261 291 438 302 516 c 0
 313 594 320 658 328 707 c 0
 336 756 342 806 349 857 c 0
 356 908 363 968 373 1036 c 1
 364 1032 l 1
 338 959 310 907 281 879 c 0
 252 851 225 834 200 826 c 0
 175 818 154 815 137 815 c 0
 120 815 102 820 81 830 c 0
 39 850 18 885 17 935 c 0
 17 937 18 944 21 959 c 1
 125 966 219 997 304 1053 c 0
 342 1078 376 1107 407 1138 c 1
 533 1154 l 1
 434 -8 l 1
 214 -14 l 1
EndSplineSet
Substitution2: "'onum' Oldstyle Figures lookup 1-1" one.osf
Colour: ffff
EndChar

StartChar: two
Encoding: 50 50 18
Width: 871
VWidth: 1655
GlyphClass: 2
Flags: HMW
LayerCount: 2
Fore
SplineSet
390 664 m 1
 359 626 325 607 288 607 c 0
 216 607 166 639 138 702 c 0
 127 725 122 758 122 802 c 0
 122 846 141 899 178 961 c 0
 215 1023 264 1074 325 1114 c 0
 386 1154 455 1176 531 1178 c 1
 545 1178 l 2
 634 1178 705 1150 759 1094 c 1
 822 1031 853 948 854 845 c 1
 853 698 782 558 638 424 c 0
 575 365 477 291 345 200 c 2
 232 123 l 1
 232 113 l 1
 433 121 l 2
 449 121 468 121 492 123 c 0
 516 125 531 125 539 125 c 0
 608 131 660 159 695 212 c 1
 711 234 724 262 738 296 c 2
 771 376 l 1
 845 349 l 1
 844 343 838 297 824 210 c 0
 810 123 794 48 775 -16 c 1
 620 -16 l 1
 458 -14 312 -10 180 -3 c 2
 17 5 l 1
 28 101 l 1
 209 211 l 2
 324 281 407 337 456 381 c 0
 505 425 541 464 565 499 c 0
 589 534 610 574 629 621 c 0
 648 668 658 723 660 786 c 1
 660 797 l 2
 660 863 646 922 618 974 c 0
 590 1026 551 1061 502 1078 c 0
 482 1084 460 1086 436 1086 c 0
 412 1086 385 1075 355 1054 c 0
 325 1033 306 1005 293 973 c 0
 280 941 274 912 274 885 c 0
 274 797 313 723 390 664 c 1
EndSplineSet
Substitution2: "'onum' Oldstyle Figures lookup 1-1" two.osf
Colour: ffff
EndChar

StartChar: three
Encoding: 51 51 19
Width: 804
VWidth: 1655
GlyphClass: 2
Flags: HMW
LayerCount: 2
Fore
SplineSet
322 589 m 1
 447.578 651.167 613 735.159 613 915 c 0
 613 1023.03 557.954 1099 461 1099 c 0
 375.754 1099 307 1049.26 307 969 c 0
 307 892.109 343 848 381 815 c 1
 363.064 781.121 331.479 757 288 757 c 1
 286 755 285 755 281 755 c 0
 212.663 755 160 817.086 160 888 c 0
 160 1059.7 373.426 1179 543 1179 c 0
 695.659 1179 786 1105.01 786 961 c 0
 786 779.168 623 676 521 625 c 1
 521 621 l 1
 654.569 621 773 522.215 773 372 c 0
 773 122.151 527.198 -28 286 -28 c 0
 151.374 -28 19.1055 44.8994 17 167 c 1
 17 272.75 100.88 333.335 197 332 c 1
 165.728 188.148 235.177 63 366 63 c 0
 485.541 63 590 134.941 590 283 c 0
 590 459.429 451 553.422 316 530 c 1
 322 589 l 1
EndSplineSet
Substitution2: "'onum' Oldstyle Figures lookup 1-1" three.osf
Colour: ffff
EndChar

StartChar: four
Encoding: 52 52 20
Width: 867
VWidth: 1655
GlyphClass: 2
Flags: HMW
LayerCount: 2
Fore
SplineSet
352 532 m 1
 162 353 l 1
 508 360 l 1
 529 585 l 1
 699 702 l 1
 655 365 l 1
 850 369 l 1
 817 233 l 1
 646 241 l 1
 627 14 l 1
 469 -12 l 1
 500 246 l 1
 32 267 l 1
 17 323 l 1
 206 510 l 2
 382.394 684.527 575.451 859.043 571 1184 c 1
 672.047 1202.37 745 1137.75 745 1046 c 0
 745 908 535.337 706.425 352 532 c 1
EndSplineSet
Substitution2: "'onum' Oldstyle Figures lookup 1-1" four.osf
Colour: ffff
EndChar

StartChar: five
Encoding: 53 53 21
Width: 835
VWidth: 1655
GlyphClass: 2
Flags: HMW
LayerCount: 2
Fore
SplineSet
818 1092 m 1
 809 998 742 951 617 951 c 0
 560 951 502 954 445 962 c 0
 388 970 357 973 352 973 c 1
 299 750 l 1
 307 747 l 1
 313 747 316 747 320 748 c 1
 336 748 l 2
 452 748 549 712 627 641 c 1
 703 567 741 480 742 380 c 0
 742 281 710 192 647 114 c 0
 600 57 541 17 469 -5 c 1
 422 -23 378 -31 339 -31 c 0
 300 -31 279 -31 273 -30 c 0
 211 -26 157 -11 112 18 c 0
 49 57 18 112 17 184 c 0
 17 188 18 198 21 216 c 1
 29 247 44 277 68 303 c 0
 92 329 124 343 164 346 c 1
 166 336 170 310 180 269 c 1
 213 161 272 99 358 81 c 1
 381 79 393 78 395 78 c 0
 435 78 472 89 508 111 c 0
 544 133 566 160 575 193 c 0
 584 226 588 250 588 267 c 0
 588 284 588 298 586 311 c 0
 584 324 577 348 562 383 c 1
 539 441 505 488 460 524 c 0
 415 560 364 582 307 592 c 1
 274 599 241 602 208 602 c 1
 185 620 l 1
 320 1115 l 1
 336 1113 372 1113 427 1113 c 0
 578 1113 705 1129 808 1160 c 1
 815 1140 818 1121 818 1104 c 2
 818 1092 l 1
EndSplineSet
Substitution2: "'onum' Oldstyle Figures lookup 1-1" five.osf
Colour: ffff
EndChar

StartChar: six
Encoding: 54 54 22
Width: 798
VWidth: 1655
GlyphClass: 2
Flags: HMW
LayerCount: 2
Fore
SplineSet
75 675 m 0
 144 866 254 1009 405 1104 c 0
 472 1145 534 1165 589 1164 c 0
 641 1164 683 1151 716 1124 c 1
 759 1087 781 1044 780 995 c 0
 780 966 773 938 757 912 c 0
 741 886 718 866 686 853 c 1
 659 922 620 972 571 1003 c 0
 548 1017 526 1025 503 1029 c 1
 487 1029 l 2
 428 1029 378 1001 336 945 c 0
 294 889 263 825 242 752 c 0
 221 679 209 630 205 604 c 1
 234 642 271 670 318 690 c 0
 365 710 413 718 463 717 c 0
 513 716 557 705 595 682 c 0
 633 659 663 630 684 594 c 0
 705 558 716 523 720 487 c 0
 724 451 726 432 726 427 c 0
 726 372 713 312 687 249 c 0
 661 186 625 134 579 91 c 1
 500 20 416 -15 327 -16 c 0
 311 -16 301 -16 296 -14 c 1
 189 -5 109 52 56 158 c 1
 31 213 19 275 18 344 c 0
 18 372 18 390 20 398 c 1
 26 497 44 590 75 675 c 0
189 423 m 2
 189 388 l 1
 195 264 219 178 263 129 c 1
 297 89 334 69 375 70 c 0
 377 70 380 70 384 72 c 1
 391 72 l 1
 418 76 443 86 466 104 c 1
 510 144 537 213 547 310 c 1
 551 334 552 359 551 385 c 1
 551 434 542 477 524 514 c 0
 515 534 501 551 481 566 c 0
 450 589 415 600 376 601 c 0
 337 602 300 596 266 584 c 0
 232 572 208 556 194 534 c 1
 190 498 189 461 189 423 c 2
EndSplineSet
Substitution2: "'onum' Oldstyle Figures lookup 1-1" six.osf
Colour: ffff
EndChar

StartChar: seven
Encoding: 55 55 23
Width: 858
VWidth: 1655
GlyphClass: 2
Flags: HMW
LayerCount: 2
Fore
SplineSet
420 537 m 0
 381 454 362 369 362 282 c 0
 362 195 393 117 455 49 c 1
 437 26 412 9 378 -3 c 1
 368 -8 355 -10 339 -10 c 0
 323 -10 303 -6 277 2 c 0
 251 10 226 28 203 58 c 0
 180 88 168 120 164 153 c 0
 160 186 158 210 158 228 c 0
 158 269 180 335 223 427 c 1
 269 515 338 619 430 738 c 2
 650 1022 l 1
 534 1018 427 1013 328 1005 c 0
 229 997 173 993 158 990 c 1
 92 830 l 1
 17 851 l 1
 51 1142 l 1
 67 1144 124 1147 226 1153 c 0
 328 1159 415 1161 486 1161 c 1
 841 1148 l 1
 838 1090 l 1
 604 812 l 2
 520 711 459 619 420 537 c 0
EndSplineSet
Substitution2: "'onum' Oldstyle Figures lookup 1-1" seven.osf
Colour: ffff
EndChar

StartChar: eight
Encoding: 56 56 24
Width: 749
VWidth: 1655
GlyphClass: 2
Flags: HMW
LayerCount: 2
Fore
SplineSet
316 557 m 1
 234 465 192 375 190 286 c 1
 190 269 l 2
 190 186 219 126 278 89 c 0
 304 72 331 63 360 61 c 1
 364 61 l 2
 411 61 449 77 480 110 c 0
 511 143 526 189 526 246 c 0
 526 303 495 367 434 437 c 1
 418 458 379 498 316 557 c 1
255 618 m 1
 182 701 146 783 145 864 c 0
 145 878 145 886 146 890 c 0
 157 981 208 1056 300 1117 c 1
 362 1156 426 1175 493 1175 c 0
 560 1175 617 1152 663 1106 c 0
 709 1060 731 1005 731 941 c 0
 731 925 731 915 730 911 c 0
 724 852 702 795 662 740 c 0
 622 685 577 641 526 608 c 1
 587 547 631 492 656 443 c 0
 681 394 694 345 694 296 c 0
 694 280 694 270 692 265 c 1
 688 229 678 194 658 160 c 0
 638 126 613 98 582 75 c 1
 527 30 459 -1 378 -18 c 0
 351 -24 322 -26 291 -26 c 0
 179 -26 98 16 48 99 c 0
 27 132 17 171 17 216 c 0
 17 232 17 240 19 242 c 1
 23 287 35 327 56 363 c 0
 77 398 110 441 155 492 c 1
 198 535 237 570 273 599 c 1
 255 618 l 1
480 653 m 1
 541 707 571 783 570 882 c 0
 570 935 562 978 544 1012 c 0
 526 1046 506 1068 484 1077 c 0
 462 1086 444 1090 428 1090 c 2
 407 1089 l 1
 384 1085 364 1076 346 1059 c 0
 328 1042 317 1021 310 997 c 0
 303 973 300 955 300 941 c 2
 300 931 l 1
 304 878 326 826 368 775 c 0
 402 733 439 692 480 653 c 1
EndSplineSet
Substitution2: "'onum' Oldstyle Figures lookup 1-1" eight.osf
Colour: ffff
EndChar

StartChar: nine
Encoding: 57 57 25
Width: 741
VWidth: 1655
GlyphClass: 2
Flags: HMW
LayerCount: 2
Fore
SplineSet
723 739 m 2
 723 632 711 534 686 445 c 0
 661 356 617 270 555 188 c 1
 450 53 338 -14 220 -14 c 2
 213 -14 l 2
 179 -14 147 -7 117 6 c 0
 87 19 64 38 45 64 c 0
 26 90 17 120 17 153 c 0
 17 157 18 166 21 184 c 1
 33 229 59 263 100 284 c 1
 120 248 146 217 177 191 c 1
 227 157 270 140 307 141 c 0
 321 141 329 141 332 142 c 0
 393 148 442 181 481 242 c 1
 509 289 529 357 543 448 c 0
 544 452 547 488 554 557 c 1
 529 522 496 494 454 472 c 0
 412 450 369 438 326 434 c 1
 321 432 306 432 278 432 c 0
 250 432 217 441 179 460 c 0
 141 479 111 503 90 534 c 1
 54 583 36 647 37 726 c 1
 37 827 64 920 118 1005 c 0
 152 1057 193 1098 242 1130 c 0
 291 1162 344 1178 401 1180 c 1
 410 1180 l 2
 462 1180 510 1167 553 1143 c 0
 596 1119 631 1084 658 1039 c 0
 697 975 718 891 723 788 c 1
 723 739 l 2
358 1090 m 0
 259 1090 204 1003 190 830 c 1
 190 812 l 1
 188 806 188 801 188 794 c 0
 188 682 221 609 288 574 c 0
 313 561 340 555 369 555 c 0
 373 555 388 557 415 561 c 0
 442 565 466 571 489 583 c 0
 512 595 527 602 535 609 c 0
 543 616 550 624 559 636 c 1
 559 681 l 2
 559 782 548 866 526 933 c 0
 493 1038 437 1090 358 1090 c 0
EndSplineSet
Substitution2: "'onum' Oldstyle Figures lookup 1-1" nine.osf
Colour: ffff
EndChar

StartChar: colon
Encoding: 58 58 26
Width: 329
VWidth: 1655
GlyphClass: 2
Flags: HMW
LayerCount: 2
Fore
SplineSet
202.251 165 m 1
 215.251 147 220.251 132 221.251 120 c 0
 222.251 108 221.251 95 218.251 77 c 1
 211.251 50 198.251 27 177.251 5 c 0
 156.251 -17 131.251 -28 104.251 -28 c 1
 81.251 -26 62.251 -18 48.251 -3 c 0
 28.251 17 18.251 41 20.251 68 c 1
 20.251 104 33.251 134 58.251 159 c 0
 83.251 184 105.251 195 125.251 196 c 0
 145.251 197 160.251 196 170.251 191 c 0
 180.251 186 190.251 178 202.251 165 c 1
309.251 755 m 0
 309.251 753 308.251 744 306.251 726 c 1
 298.251 695 284.251 672 264.251 653 c 0
 244.251 634 221.251 625 195.251 625 c 0
 169.251 625 148.251 632 135.251 646 c 0
 122.251 660 115.251 676 111.251 696 c 1
 109.251 698 109.251 701 109.251 708 c 0
 109.251 715 110.251 728 114.251 750 c 0
 118.251 772 131.251 794 152.251 815 c 0
 173.251 836 198.251 846 225.251 847 c 0
 252.251 848 273.251 839 288.251 820 c 0
 303.251 801 309.251 779 309.251 755 c 0
EndSplineSet
Colour: ffff
EndChar

StartChar: semicolon
Encoding: 59 59 27
Width: 410
VWidth: 1655
GlyphClass: 2
Flags: HMW
LayerCount: 2
Fore
SplineSet
371 815 m 1
 384 797 389 782 390 770 c 0
 391 758 390 744 388 726 c 1
 380 695 367 672 347 653 c 0
 327 634 305 625 278 625 c 0
 251 625 232 632 218 646 c 0
 198 667 188 691 189 719 c 1
 189 754 201 785 226 810 c 0
 251 835 274 846 294 847 c 0
 314 848 328 846 338 841 c 0
 348 836 359 829 371 815 c 1
127 181 m 1
 150 194 171 200 192 200 c 2
 202 200 l 1
 249 194 282 164 302 109 c 0
 311 82 315 63 316 51 c 0
 317 39 314 18 310 -11 c 0
 306 -40 292 -70 269 -103 c 0
 221 -172 147 -231 48 -280 c 1
 19 -230 l 1
 52 -210 74 -196 86 -187 c 0
 98 -178 113 -160 134 -134 c 0
 155 -108 166 -76 166 -40 c 0
 166 -38 164 -28 160 -9 c 0
 156 10 145 30 127 50 c 0
 109 70 90 87 69 101 c 1
 77 133 96 160 127 181 c 1
EndSplineSet
Colour: ffff
EndChar

StartChar: less
Encoding: 60 60 28
Width: 693
VWidth: 1655
GlyphClass: 2
Flags: HMW
LayerCount: 2
Fore
SplineSet
17 419 m 1
 24 446 l 1
 632 952 l 1
 676 883 l 1
 252 446 l 1
 555 -13 l 1
 482 -81 l 1
 17 419 l 1
EndSplineSet
Colour: ffff
EndChar

StartChar: equal
Encoding: 61 61 29
Width: 710
VWidth: 1655
GlyphClass: 2
Flags: HMW
LayerCount: 2
Fore
SplineSet
88 651 m 1
 689 651 l 1
 661 546 l 1
 60 546 l 1
 88 651 l 1
47 416 m 1
 650 416 l 1
 622 311 l 1
 20 311 l 1
 47 416 l 1
EndSplineSet
Colour: ffff
EndChar

StartChar: greater
Encoding: 62 62 30
Width: 711
VWidth: 1655
GlyphClass: 2
Flags: HMW
LayerCount: 2
Fore
SplineSet
691 419 m 1
 67 -81 l 1
 17 -13 l 1
 462 446 l 1
 177 883 l 1
 243 952 l 1
 693 446 l 1
 691 419 l 1
EndSplineSet
Colour: ffff
EndChar

StartChar: question
Encoding: 63 63 31
Width: 585
VWidth: 1655
GlyphClass: 2
Flags: HMW
LayerCount: 2
Fore
SplineSet
96 504 m 1
 91 555 l 1
 91 595 102 631 125 662 c 0
 148 693 171 715 194 730 c 0
 217 745 247 759 285 775 c 0
 323 791 351 804 370 816 c 0
 389 828 407 844 427 866 c 0
 447 888 457 913 460 941 c 0
 460 945 460 947 461 951 c 1
 461 959 l 2
 461 1012 437 1057 388 1092 c 1
 368 1105 352 1112 338 1114 c 0
 324 1116 318 1117 317 1118 c 1
 308 1118 l 2
 273 1118 237 1110 200 1093 c 0
 163 1076 136 1061 119 1045 c 1
 108 1050 99 1057 90 1069 c 1
 72 1089 64 1107 64 1125 c 0
 64 1143 64 1153 66 1156 c 1
 74 1204 105 1242 159 1269 c 0
 191 1285 225 1292 261 1292 c 2
 282 1292 l 1
 341 1288 393 1269 437 1234 c 0
 481 1199 514 1154 535 1101 c 0
 556 1048 567 1000 567 957 c 0
 567 914 565 884 560 864 c 0
 547 801 514 746 460 699 c 0
 425 669 382 646 333 628 c 1
 298 614 277 604 267 594 c 0
 257 584 247 574 237 562 c 0
 219 543 211 513 210 472 c 0
 210 464 210 457 212 451 c 1
 212 430 l 2
 212 428 213 414 217 385 c 1
 139 369 l 1
 116 428 102 473 96 504 c 1
188 206 m 0
 200 200 210 192 220 178 c 0
 230 164 235 154 238 143 c 0
 241 132 242 125 242 120 c 0
 242 115 240 100 234 73 c 0
 228 46 214 22 191 -1 c 0
 168 -24 141 -35 111 -35 c 1
 84 -33 64 -24 48 -8 c 0
 32 8 24 24 21 42 c 0
 18 60 17 68 17 71 c 0
 17 74 19 86 24 108 c 0
 29 130 41 153 64 176 c 0
 87 199 110 211 134 212 c 0
 158 213 176 212 188 206 c 0
EndSplineSet
Colour: ffff
EndChar

StartChar: at
Encoding: 64 64 32
Width: 1298
VWidth: 1655
GlyphClass: 2
Flags: HMW
LayerCount: 2
Fore
SplineSet
712.022 83 m 0
 700.022 98 695.022 124 695.022 159 c 0
 695.022 194 705.022 242 725.022 305 c 1
 713.022 307 l 1
 688.022 254 664.022 211 640.022 177 c 0
 616.022 143 587.022 115 554.022 93 c 0
 521.022 71 487.022 60 453.022 60 c 0
 419.022 60 390.022 74 366.022 104 c 0
 342.022 134 330.022 167 326.022 204 c 1
 324.022 210 324.022 224 324.022 249 c 0
 324.022 274 331.022 323 347.022 395 c 0
 377.022 532 445.022 646 552.022 738 c 1
 597.022 773 638.022 790 676.022 790 c 0
 714.022 790 750.022 771 785.022 733 c 1
 799.022 731 l 1
 805.022 802 l 1
 824.022 809 l 1
 929.022 778 l 1
 868.022 463 l 1
 853.022 356 846.022 301 844.022 296 c 1
 841.022 253 l 2
 839.022 218 838.022 201 838.022 199 c 2
 838.022 188 l 2
 838.022 184 839.022 181 844.022 176 c 0
 849.022 171 853.022 168 858.022 168 c 0
 863.022 168 866.022 168 868.022 170 c 1
 876.022 170 l 1
 892.022 172 903.022 173 909.022 175 c 0
 915.022 177 921.022 177 928.022 179 c 0
 935.022 181 939.022 182 941.022 183 c 0
 943.022 184 946.022 185 952.022 187 c 0
 958.022 189 962.022 190 965.022 192 c 0
 968.022 194 971.022 196 976.022 199 c 0
 981.022 202 985.022 204 989.022 208 c 0
 993.022 212 997.022 214 1003.02 218 c 0
 1056.02 262 1092.02 310 1113.02 362 c 0
 1134.02 414 1144.02 478 1144.02 553 c 0
 1145.02 720 1076.02 840 936.022 913 c 1
 869.022 946 798.022 962 721.022 961 c 1
 616.022 961 520.022 932 435.022 876 c 0
 350.022 820 285.022 745 242.022 651 c 1
 197.022 557 174.022 458 174.022 355 c 0
 174.022 252 195.022 164 237.022 90 c 0
 279.022 16 339.022 -39 416.022 -78 c 0
 493.022 -117 579.022 -137 674.022 -137 c 2
 695.022 -137 l 1
 738.022 -136 786.022 -130 837.022 -117 c 0
 888.022 -104 932.022 -88 970.022 -67 c 1
 1014.02 -44 1041.02 -29 1051.02 -21 c 1
 1087.02 -75 l 1
 1078.02 -80 l 1
 1017.02 -139 946.022 -178 864.022 -199 c 0
 782.022 -220 714.022 -230 660.022 -230 c 2
 646.022 -230 l 2
 540.022 -230 439.022 -210 343.022 -170 c 0
 247.022 -130 172.022 -72 115.022 3 c 1
 49.0225 93 16.0225 202 17.0225 331 c 0
 18.0225 460 49.0225 581 112.022 692 c 0
 175.022 803 263.022 890 374.022 955 c 0
 485.022 1020 610.022 1052 747.022 1052 c 2
 756.022 1052 l 1
 854.022 1049 942.022 1029 1022.02 991 c 0
 1102.02 953 1165.02 899 1211.02 828 c 0
 1257.02 757 1279.02 679 1280.02 594 c 1
 1280.02 583 l 2
 1280.02 498 1259.02 416 1218.02 340 c 0
 1177.02 264 1121.02 200 1049.02 148 c 0
 977.022 96 900.022 64 818.022 52 c 1
 814.022 50 806.022 50 792.022 51 c 2
 759.022 54 l 1
 739.022 59 724.022 68 712.022 83 c 0
773.022 602 m 1
 732.022 663 691.022 693 650.022 693 c 2
 643.022 693 l 2
 623.022 693 604.022 687 583.022 673 c 0
 562.022 659 547.022 644 536.022 625 c 1
 519.022 600 503.022 553 487.022 485 c 0
 471.022 417 464.022 363 464.022 320 c 2
 464.022 307 l 2
 464.022 284 465.022 263 468.022 244 c 0
 471.022 225 474.022 214 476.022 210 c 0
 478.022 206 480.022 203 484.022 199 c 0
 488.022 195 489.022 194 490.022 193 c 0
 491.022 192 493.022 191 497.022 188 c 0
 502.022 183 510.022 181 522.022 181 c 0
 534.022 181 548.022 186 564.022 198 c 0
 580.022 210 598.022 228 619.022 253 c 0
 640.022 278 668.022 326 703.022 398 c 0
 738.022 470 761.022 538 773.022 602 c 1
EndSplineSet
Colour: ffff
EndChar

StartChar: A
Encoding: 65 65 33
Width: 1273
VWidth: 1655
GlyphClass: 2
Flags: HMW
LayerCount: 2
Fore
SplineSet
868 1271 m 1
 1076 132 l 1
 1254 81 l 1
 1231 0 l 1
 655 0 l 1
 678 72 l 1
 876 108 l 1
 824 432 l 1
 533 446 l 1
 500 310 355 -28 186 -28 c 0
 103 -28 35 35 13 101 c 1
 406 253 584 765 688 1241 c 1
 868 1271 l 1
812 505 m 1
 724 1062 l 1
 720 1062 l 1
 689 911 606 655 564 536 c 1
 812 505 l 1
EndSplineSet
Colour: ffff
EndChar

StartChar: B
Encoding: 66 66 34
Width: 1158
VWidth: 1655
GlyphClass: 2
Flags: HMW
LayerCount: 2
Fore
SplineSet
13 0 m 1
 35 75 l 1
 245 129 l 1
 374 1062 l 1
 151 1078 l 1
 170 1155 l 1
 428 1224 615 1259 732 1260 c 0
 849 1261 944 1235 1015 1184 c 1
 1086 1130 1121 1064 1122 985 c 0
 1122 942 1108 896 1079 845 c 1
 1020 751 939 692 835 667 c 1
 835 660 l 1
 858 656 888 648 926 634 c 0
 964 620 996 603 1021 583 c 1
 1060 554 1088 520 1108 481 c 0
 1128 442 1138 408 1138 379 c 0
 1137 350 1137 333 1137 328 c 0
 1130 265 1105 209 1059 161 c 0
 1013 113 958 77 894 54 c 0
 830 31 774 17 727 10 c 0
 680 3 616 0 535 0 c 2
 13 0 l 1
430 101 m 1
 483 94 538 91 594 91 c 2
 626 91 l 1
 720 93 793 111 844 144 c 1
 911 191 945 249 945 318 c 0
 945 332 945 341 943 346 c 1
 936 399 912 445 870 486 c 0
 828 527 776 556 714 572 c 0
 652 588 578 595 493 595 c 1
 430 101 l 1
504 678 m 1
 600 674 l 1
 670 674 725 680 766 693 c 0
 807 706 844 731 878 767 c 0
 912 803 930 846 934 897 c 0
 934 902 934 905 936 908 c 1
 936 920 l 2
 936 994 910 1054 859 1100 c 0
 808 1146 744 1171 667 1176 c 1
 661 1178 652 1178 637 1178 c 0
 622 1178 599 1177 565 1175 c 1
 504 678 l 1
EndSplineSet
Colour: ffff
EndChar

StartChar: C
Encoding: 67 67 35
Width: 968
VWidth: 1655
GlyphClass: 2
Flags: HMW
LayerCount: 2
Fore
SplineSet
728 927 m 2
 728 960 725 989 719 1014 c 0
 713 1039 701 1061 680 1081 c 1
 649 1118 604 1137 545 1135 c 1
 443 1129 365 1075 311 971 c 1
 259 877 233 744 232 571 c 0
 232 475 244 397 269 338 c 0
 294 279 325 231 363 195 c 0
 415 147 477 123 549 125 c 1
 637 125 717 164 790 241 c 0
 811 262 829 285 845 310 c 1
 887 248 l 1
 873 213 853 177 824 142 c 0
 763 69 687 19 598 -10 c 0
 556 -23 514 -29 472 -30 c 0
 430 -31 388 -24 343 -12 c 1
 250 17 174 71 113 151 c 0
 52 231 20 332 14 455 c 1
 14 486 l 2
 14 707 84 900 225 1064 c 0
 337 1193 466 1257 612 1255 c 1
 713 1255 795 1227 859 1170 c 0
 886 1147 907 1119 924 1088 c 0
 941 1057 949 1021 949 982 c 2
 949 971 l 1
 946 931 933 895 910 864 c 0
 887 833 861 814 833 806 c 0
 805 798 783 794 768 794 c 1
 716 802 l 1
 723 831 726 865 728 904 c 1
 728 927 l 2
EndSplineSet
Colour: ffff
EndChar

StartChar: D
Encoding: 68 68 36
Width: 1407
VWidth: 1655
GlyphClass: 2
Flags: HMW
LayerCount: 2
Fore
SplineSet
13 0 m 1
 33 77 l 1
 242 129 l 1
 369 1068 l 1
 152 1085 l 1
 173 1156 l 1
 342 1219 534 1250 750 1250 c 0
 787 1250 811 1250 822 1249 c 0
 1002 1240 1136 1200 1225 1127 c 0
 1265 1094 1298 1055 1324 1009 c 0
 1367 932 1389 846 1388 752 c 0
 1388 729 1387 706 1383 681 c 1
 1365 507 1289 358 1155 234 c 0
 1030 119 873 47 685 18 c 0
 606 6 492 0 341 0 c 2
 13 0 l 1
439 106 m 1
 823 106 1059 221 1148 450 c 0
 1173 515 1185 589 1185 672 c 0
 1185 755 1167 832 1132 904 c 0
 1107 957 1073 1001 1031 1037 c 0
 989 1073 930 1104 854 1132 c 0
 778 1160 718 1174 673 1175 c 0
 628 1176 592 1175 566 1171 c 1
 439 106 l 1
EndSplineSet
Colour: ffff
EndChar

StartChar: E
Encoding: 69 69 37
Width: 1221
VWidth: 1655
GlyphClass: 2
Flags: HMW
LayerCount: 2
Fore
SplineSet
1063 0 m 1
 695 2 488 3 445 3 c 2
 13 -3 l 1
 36 80 l 1
 254 134 l 1
 379 1094 l 1
 152 1117 l 1
 172 1192 l 1
 250 1208 360 1220 505 1233 c 0
 650 1246 783 1252 905 1252 c 1
 1202 1246 l 1
 1122 835 l 1
 1036 848 l 1
 1004 1111 l 1
 976 1117 l 1
 881 1136 758 1145 607 1143 c 1
 574 1143 l 1
 519 680 l 1
 974 714 l 1
 940 569 l 1
 507 578 l 1
 445 98 l 1
 662 108 l 1
 784 115 868 122 913 132 c 1
 936 169 962 222 993 292 c 0
 1024 362 1043 415 1053 451 c 1
 1140 440 l 1
 1140 434 l 2
 1140 345 1133 262 1119 182 c 0
 1105 102 1087 41 1063 0 c 1
EndSplineSet
Colour: ffff
EndChar

StartChar: F
Encoding: 70 70 38
Width: 1221
VWidth: 1655
GlyphClass: 2
Flags: HMW
LayerCount: 2
Fore
SplineSet
905 1252 m 1
 1202 1246 l 1
 1122 818 l 1
 1027 832 l 1
 999 1102 l 1
 967 1107 l 1
 874 1123 764 1134 636 1142 c 1
 574 1143 l 1
 519 637 l 1
 974 670 l 1
 940 519 l 1
 505 537 l 1
 451 109 l 1
 701 80 l 1
 681 -2 l 1
 13 -2 l 1
 36 80 l 1
 254 134 l 1
 379 1094 l 1
 152 1117 l 1
 172 1192 l 1
 250 1208 361 1220 505 1233 c 0
 649 1246 783 1252 905 1252 c 1
EndSplineSet
Colour: ffff
EndChar

StartChar: G
Encoding: 71 71 39
Width: 1258
VWidth: 1655
GlyphClass: 2
Flags: HMW
LayerCount: 2
Fore
SplineSet
1113 843 m 1
 1025 858 l 1
 1014 1050 l 1
 992 1084 954 1111 900 1132 c 0
 846 1153 779 1164 701 1164 c 0
 581 1164 476 1123 387 1041 c 1
 341 997 306 937 281 861 c 0
 256 785 243 699 243 602 c 2
 243 540 l 1
 250 403 290 292 364 206 c 0
 438 120 539 77 664 77 c 0
 752 77 815 92 854 123 c 1
 891 437 l 1
 659 474 l 1
 681 557 l 1
 1239 557 l 1
 1218 483 l 1
 1087 440 l 1
 1045 88 l 1
 923 8 751 -32 530 -33 c 0
 425 -33 334 -11 257 33 c 0
 106 118 26 263 16 468 c 1
 16 492 l 1
 14 499 14 506 14 514 c 0
 14 603 28 689 57 771 c 0
 86 853 125 923 174 983 c 0
 274 1104 398 1188 546 1233 c 0
 619 1255 691 1266 763 1266 c 0
 949 1266 1088 1233 1179 1166 c 1
 1113 843 l 1
EndSplineSet
Colour: ffff
EndChar

StartChar: H
Encoding: 72 72 40
Width: 1583
VWidth: 1655
GlyphClass: 2
Flags: HMW
LayerCount: 2
Fore
SplineSet
1153 1113 m 1
 925 1122 l 1
 943 1197 l 1
 1100 1228 1257 1244 1412 1245 c 0
 1464 1245 1515 1243 1564 1239 c 1
 1546 1163 l 1
 1341 1109 l 1
 1225 129 l 1
 1436 81 l 1
 1415 0 l 1
 788 0 l 1
 807 78 l 1
 1029 113 l 1
 1090 600 l 1
 502 567 l 1
 445 106 l 1
 656 81 l 1
 632 0 l 1
 13 0 l 1
 31 78 l 1
 254 129 l 1
 377 1090 l 1
 151 1123 l 1
 170 1199 l 1
 278 1222 367 1235 433 1239 c 0
 499 1243 561 1245 618 1245 c 0
 675 1245 733 1243 791 1239 c 1
 771 1164 l 1
 572 1142 l 1
 517 680 l 1
 1102 701 l 1
 1153 1113 l 1
EndSplineSet
Colour: ffff
EndChar

StartChar: I
Encoding: 73 73 41
Width: 810
VWidth: 1655
GlyphClass: 2
Flags: HMW
LayerCount: 2
Fore
SplineSet
639 0 m 1
 13 0 l 1
 31 78 l 1
 254 129 l 1
 377 1090 l 1
 151 1123 l 1
 170 1199 l 1
 318 1230 472 1246 634 1246 c 0
 677 1246 729 1244 791 1239 c 1
 771 1164 l 1
 572 1142 l 1
 445 106 l 1
 663 81 l 1
 639 0 l 1
EndSplineSet
Colour: ffff
EndChar

StartChar: J
Encoding: 74 74 42
Width: 979
VWidth: 1655
GlyphClass: 2
Flags: HMW
LayerCount: 2
Fore
SplineSet
270 -365 m 0
 249 -372 229 -374 210 -375 c 0
 191 -376 181 -376 177 -374 c 1
 143 -370 112 -359 85 -339 c 0
 58 -319 39 -292 26 -259 c 1
 17 -239 13 -217 13 -191 c 0
 13 -165 18 -139 29 -113 c 1
 91 -142 149 -158 203 -163 c 1
 215 -163 l 1
 219 -165 222 -165 226 -165 c 0
 299 -165 350 -140 381 -89 c 0
 397 -64 408 -41 416 -17 c 0
 424 7 429 37 435 74 c 0
 441 111 444 143 448 172 c 0
 452 201 453 222 455 238 c 0
 459 272 461 306 464 340 c 0
 467 374 475 457 491 589 c 2
 548 1087 l 1
 323 1117 l 1
 339 1194 l 1
 447 1220 560 1236 678 1243 c 1
 725 1247 773 1248 820 1248 c 0
 867 1248 914 1247 960 1243 c 1
 941 1166 l 1
 746 1142 l 1
 651 385 l 1
 625 198 595 59 560 -33 c 0
 525 -125 484 -197 439 -251 c 0
 394 -305 337 -343 270 -365 c 0
EndSplineSet
Colour: ffff
EndChar

StartChar: K
Encoding: 75 75 43
Width: 1341
VWidth: 1655
GlyphClass: 2
Flags: HMW
LayerCount: 2
Fore
SplineSet
406 125 m 1
 590 81 l 1
 567 0 l 1
 13 0 l 1
 33 75 l 1
 212 129 l 1
 333 1122 l 1
 151 1171 l 1
 173 1248 l 1
 724 1248 l 1
 704 1171 l 1
 525 1127 l 1
 406 125 l 1
565 512 m 1
 534 560 511 591 494 607 c 1
 497 631 l 1
 549 669 590 705 620 738 c 2
 962 1127 l 1
 806 1171 l 1
 823 1248 l 1
 1322 1248 l 1
 1303 1171 l 1
 1118 1127 l 1
 688 657 l 1
 882 385 l 2
 959 278 1017 205 1056 167 c 0
 1095 129 1142 101 1197 83 c 2
 1231 72 l 1
 1212 2 l 1
 1165 -14 1120 -22 1079 -23 c 1
 1006 -23 940 0 882 47 c 0
 824 94 768 166 711 263 c 2
 565 512 l 1
EndSplineSet
Colour: ffff
EndChar

StartChar: L
Encoding: 76 76 44
Width: 1164
VWidth: 1655
GlyphClass: 2
Flags: HMW
LayerCount: 2
Fore
SplineSet
1063 0 m 1
 695 2 488 3 445 3 c 2
 13 -3 l 1
 36 80 l 1
 254 134 l 1
 379 1094 l 1
 152 1117 l 1
 172 1192 l 1
 290 1228 436 1246 610 1246 c 0
 648 1246 694 1245 749 1241 c 0
 804 1237 833 1236 839 1236 c 1
 825 1155 l 1
 578 1132 l 1
 445 106 l 1
 662 116 l 1
 760 122 839 129 898 139 c 1
 939 183 989 293 1048 470 c 1
 1140 456 l 1
 1140 448 1140 441 1142 434 c 1
 1142 408 l 2
 1142 335 1134 259 1119 179 c 0
 1104 99 1086 39 1063 0 c 1
EndSplineSet
Colour: ffff
EndChar

StartChar: M
Encoding: 77 77 45
Width: 1715
VWidth: 1655
GlyphClass: 2
Flags: HMW
LayerCount: 2
Fore
SplineSet
1380 186 m 0
 1380 151 1391 134 1412 134 c 0
 1414 134 1420 136 1434 140 c 0
 1448 144 1464 157 1484 178 c 0
 1504 199 1531 232 1566 279 c 1
 1614 244 l 1
 1588 145 1531 68 1442 13 c 0
 1397 -14 1352 -28 1305 -29 c 0
 1258 -30 1225 -20 1205 0 c 0
 1185 20 1176 50 1176 89 c 0
 1176 95 1176 99 1178 103 c 1
 1178 114 l 1
 1180 159 1187 235 1201 343 c 2
 1283 999 l 1
 1207 814 1132 645 1058 492 c 0
 984 339 921 224 872 146 c 0
 866 137 845 106 809 52 c 1
 681 33 l 1
 440 999 l 1
 437 999 l 1
 418 486 l 2
 413 374 406 291 395 236 c 0
 384 181 363 129 330 78 c 0
 283 6 229 -30 168 -31 c 0
 141 -31 116 -25 93 -12 c 0
 70 1 52 19 38 41 c 0
 24 63 17 80 13 94 c 1
 89 128 148 174 191 233 c 1
 270 345 316 555 332 864 c 1
 334 925 335 994 336 1071 c 1
 109 1125 l 1
 132 1201 l 1
 291 1231 437 1246 573 1248 c 1
 628 1055 l 1
 812 343 l 1
 1205 1068 l 1
 1298 1231 l 1
 1311 1234 1340 1236 1387 1240 c 0
 1434 1244 1483 1246 1533 1246 c 0
 1583 1246 1637 1243 1696 1236 c 1
 1673 1158 l 1
 1456 1101 l 1
 1385 287 l 1
 1383 252 1382 233 1382 227 c 2
 1382 207 l 1
 1380 201 1380 195 1380 186 c 0
EndSplineSet
Colour: ffff
EndChar

StartChar: N
Encoding: 78 78 46
Width: 1525
VWidth: 1655
GlyphClass: 2
Flags: HMW
LayerCount: 2
Fore
SplineSet
1016 -31 m 1
 461 999 l 1
 458 999 l 1
 439 486 l 1
 427.735 249.433 377.438 -31 156 -31 c 1
 97 -25 56 1 31 49 c 1
 22 69 17 87 13 103 c 1
 94 140 159.532 185.022 202 242 c 0
 322 403 346 791 358 1071 c 1
 132 1125 l 1
 154 1201 l 1
 321.528 1235.23 406 1244 563 1246 c 1
 651 1078 l 1
 1086 274 l 1
 1157 1106 l 1
 930 1122 l 1
 950 1197 l 1
 1118.21 1233.85 1203.04 1245 1363 1245 c 0
 1410 1245 1458 1243 1506 1239 c 1
 1485 1163 l 1
 1280 1109 l 1
 1176 2 l 1
 1016 -31 l 1
EndSplineSet
Colour: ffff
EndChar

StartChar: O
Encoding: 79 79 47
Width: 1099
VWidth: 1655
GlyphClass: 2
Flags: HMW
LayerCount: 2
Fore
SplineSet
1080 744 m 1
 1078 596 1043 457 975 325 c 1
 898 179 799 78 681 21 c 0
 614 -12 540 -28 458 -28 c 0
 376 -28 300 -4 230 45 c 0
 160 94 107 158 70 238 c 0
 33 318 14 408 14 505 c 0
 14 642 40 769 92 886 c 0
 144 1003 218 1098 313 1169 c 0
 408 1240 517 1275 637 1275 c 0
 728 1275 808 1249 879 1196 c 0
 950 1143 1002 1077 1033 998 c 0
 1064 919 1080 836 1080 748 c 2
 1080 744 l 1
257 888 m 0
 234 817 223 734 223 639 c 0
 223 544 236 455 263 375 c 0
 290 295 327 233 377 188 c 0
 427 143 483 120 546 120 c 0
 643 120 721 167 782 260 c 0
 843 353 873 475 873 625 c 0
 873 720 860 805 833 881 c 0
 806 957 765 1018 712 1063 c 0
 659 1108 598 1130 531 1130 c 0
 464 1130 407 1108 361 1063 c 0
 315 1018 280 959 257 888 c 0
EndSplineSet
Colour: ffff
EndChar

StartChar: P
Encoding: 80 80 48
Width: 1182
VWidth: 1655
GlyphClass: 2
Flags: HMW
LayerCount: 2
Fore
SplineSet
545 534 m 1
 584 538 621 543 658 553 c 1
 757 576 834 615 888 670 c 0
 942 725 969 795 969 881 c 0
 969 967 939 1040 880 1100 c 0
 821 1160 739 1191 636 1191 c 0
 616 1191 597 1190 578 1186 c 1
 444 116 l 1
 672 84 l 1
 648 0 l 1
 13 0 l 1
 31 78 l 1
 247 132 l 1
 370 1066 l 1
 154 1089 l 1
 170 1158 l 1
 367 1227 555 1261 732 1262 c 0
 871 1262 978 1232 1052 1172 c 0
 1126 1112 1163 1025 1163 913 c 0
 1163 798 1111 697 1006 610 c 0
 955 569 891 534 813 506 c 0
 735 478 648 460 551 451 c 1
 545 534 l 1
EndSplineSet
Colour: ffff
EndChar

StartChar: Q
Encoding: 81 81 49
Width: 1109
VWidth: 1655
GlyphClass: 2
Flags: HMW
LayerCount: 2
Fore
SplineSet
338.019 1052 m 0
 255.019 965 213.019 832 215.019 651 c 1
 215.019 498 236.019 378 279.019 293 c 0
 314.019 224 363.019 175 425.019 144 c 1
 460.019 125 492.019 116 518.019 116 c 0
 544.019 116 559.019 116 564.019 118 c 1
 614.019 124 658.019 140 697.019 168 c 0
 766.019 219 813.019 294 839.019 395 c 1
 857.019 454 865.019 523 865.019 602 c 0
 865.019 607 864.019 634 862.019 683 c 1
 848.019 872 791.019 1004 690.019 1078 c 1
 643.019 1115 589.019 1133 528.019 1132 c 1
 453.019 1133 390.019 1106 338.019 1052 c 0
631.019 1275 m 2
 652.019 1275 l 1
 796.019 1267 903.019 1204 975.019 1085 c 0
 1036.02 984 1066.02 868 1066.02 736 c 0
 1066.02 681 1060.02 621 1046.02 555 c 0
 1020.02 427 974.019 317 908.019 223 c 0
 842.019 129 757.019 59 653.019 14 c 1
 662.019 -55 693.019 -111 746.019 -155 c 0
 784.019 -186 826.019 -202 873.019 -202 c 2
 878.019 -202 l 2
 904.019 -202 935.019 -196 970.019 -183 c 0
 1005.02 -170 1038.02 -154 1068.02 -134 c 1
 1090.02 -216 l 1
 1015.02 -317 919.019 -373 805.019 -385 c 1
 790.019 -385 l 1
 785.019 -387 781.019 -387 775.019 -386 c 1
 699.019 -386 638.019 -362 594.019 -314 c 0
 550.019 -266 525.019 -201 519.019 -120 c 1
 519.019 -103 l 1
 517.019 -98 517.019 -89 518.019 -74 c 0
 519.019 -59 519.019 -42 523.019 -21 c 1
 503.019 -25 479.019 -26 450.019 -26 c 0
 421.019 -26 393.019 -22 364.019 -14 c 0
 273.019 8 196.019 58 131.019 135 c 1
 52.0186 231 13.0186 364 14.0186 534 c 1
 14.0186 770 91.0186 962 244.019 1109 c 0
 310.019 1172 384.019 1217 467.019 1246 c 1
 519.019 1266 574.019 1275 631.019 1275 c 2
EndSplineSet
Colour: ffff
EndChar

StartChar: R
Encoding: 82 82 50
Width: 1255
VWidth: 1655
GlyphClass: 2
Flags: HMW
LayerCount: 2
Fore
SplineSet
429 106 m 1
 613 72 l 1
 594 0 l 1
 13 0 l 1
 31 75 l 1
 245 127 l 1
 370 1065 l 1
 149 1078 l 1
 163 1155 l 1
 230 1178 319 1201 429 1224 c 0
 539 1247 620 1259 672 1259 c 0
 724 1259 752 1259 760 1257 c 1
 940 1244 1055 1174 1106 1048 c 0
 1118 1019 1124 992 1123 967 c 1
 1123 891 1100 824 1055 765 c 1
 1022 724 979 687 923 654 c 0
 867 621 813 594 760 574 c 1
 760 571 l 1
 907 325 l 1
 938 270 963 231 984 206 c 0
 1005 181 1028 161 1054 144 c 0
 1080 127 1114 115 1157 106 c 2
 1236 91 l 1
 1229 31 l 1
 1174 -2 1116 -18 1057 -18 c 0
 955 -18 872 24 809 108 c 0
 789 134 768 171 743 218 c 2
 618 453 l 1
 602 478 592 494 588 500 c 2
 551 546 l 1
 534 567 l 1
 545 597 l 1
 623 615 l 1
 737 638 817 679 862 739 c 0
 882 765 896 793 906 821 c 0
 916 849 920 878 920 908 c 0
 920 981 896 1044 848 1098 c 0
 800 1152 739 1179 665 1179 c 0
 630 1179 600 1176 574 1168 c 1
 429 106 l 1
EndSplineSet
Colour: ffff
EndChar

StartChar: S
Encoding: 83 83 51
Width: 919
VWidth: 1655
GlyphClass: 2
Flags: HMW
LayerCount: 2
Fore
SplineSet
235 415 m 1
 205.012 274.112 201 80 416 80 c 0
 525.542 80 616 163.816 616 262 c 0
 616 458 162 632 162 906 c 0
 162 1118.34 375.2 1278 586 1278 c 0
 706.328 1278 811.759 1245 900 1178 c 1
 795 832 l 1
 707 851 l 1
 700 1101 l 1
 675 1142 613.075 1184 541 1184 c 0
 440.547 1184 354 1109.54 354 1005 c 0
 354 791 818 602 818 348 c 0
 818 119.581 591.456 -24 374 -24 c 0
 204.461 -24 13 57.7939 13 232 c 0
 13 372.732 135 446 235 415 c 1
EndSplineSet
Colour: ffff
EndChar

StartChar: T
Encoding: 84 84 52
Width: 1121
VWidth: 1655
GlyphClass: 2
Flags: HMW
LayerCount: 2
Fore
SplineSet
440 1123 m 1
 355 1135 298 1141 267 1140 c 0
 236 1139 215 1140 205 1138 c 1
 109 818 l 1
 14 832 l 1
 14 1224 l 1
 195 1240 399 1249 626 1252 c 1
 737 1252 l 1
 1102 1246 l 1
 1021 818 l 1
 926 832 l 1
 896 1117 l 1
 802 1133 717 1141 642 1143 c 1
 518 109 l 1
 768 80 l 1
 750 -2 l 1
 81 -2 l 1
 104 80 l 1
 321 134 l 1
 440 1123 l 1
EndSplineSet
Colour: ffff
EndChar

StartChar: U
Encoding: 85 85 53
Width: 1445
VWidth: 1655
GlyphClass: 2
Flags: HMW
LayerCount: 2
Fore
SplineSet
235 1087 m 1
 13 1123 l 1
 35 1201 l 1
 196 1230 360 1245 527 1245 c 1
 651 1243 l 1
 633 1166 l 1
 434 1138 l 1
 386 745 l 2
 386 743 386 735 384 721 c 0
 382 707 380 682 375 647 c 0
 370 612 369 585 367 566 c 0
 365 547 365 520 365 487 c 0
 365 454 366 426 369 404 c 0
 372 382 376 357 383 329 c 0
 398 274 429 227 477 188 c 1
 527 145 587 123 656 123 c 0
 725 123 784 139 831 170 c 0
 878 201 913 241 938 291 c 0
 963 341 983 422 999 534 c 1
 1073 1111 l 1
 848 1120 l 1
 866 1197 l 1
 1007 1228 1156 1243 1314 1243 c 0
 1322 1243 1359 1242 1426 1239 c 1
 1406 1163 l 1
 1199 1096 l 1
 1114 517 l 2
 1091 362 1056 249 1010 178 c 0
 985 140 959 109 930 85 c 0
 901 61 866 40 825 19 c 1
 751 -16 674 -34 594 -34 c 2
 584 -34 l 1
 456 -28 356 11 285 83 c 0
 204 164 164 277 163 425 c 0
 163 477 171 569 189 702 c 1
 235 1087 l 1
EndSplineSet
Colour: ffff
EndChar

StartChar: V
Encoding: 86 86 54
Width: 1095
VWidth: 1655
GlyphClass: 2
Flags: HMW
LayerCount: 2
Fore
SplineSet
724 1201 m 1
 766 1243 815 1264 871 1264 c 0
 952 1264 1011 1226 1050 1150 c 0
 1068 1117 1076 1075 1076 1024 c 0
 1076 1019 1075 999 1073 962 c 1
 1060 836 1020 698 952 547 c 0
 884 396 804 261 711 142 c 1
 662 83 621 37 588 5 c 1
 444 -26 l 1
 235 1081 l 1
 13 1122 l 1
 33 1197 l 1
 168 1228 298 1244 423 1246 c 1
 610 188 l 1
 618 188 l 1
 655 227 691 273 726 327 c 0
 799 442 846 572 869 716 c 0
 874 743 876 777 876 817 c 0
 876 904 860 985 827 1058 c 1
 798 1118 764 1166 724 1201 c 1
EndSplineSet
Colour: ffff
EndChar

StartChar: W
Encoding: 87 87 55
Width: 1562
VWidth: 1655
GlyphClass: 2
Flags: HMW
LayerCount: 2
Fore
SplineSet
840 -28 m 1
 811 621 l 1
 801 621 l 1
 742 455 672 301 590 158 c 0
 568 121 537 70 496 5 c 1
 322 -26 l 1
 230 1081 l 1
 13 1122 l 1
 40 1197 l 1
 180 1228 312 1244 437 1246 c 1
 504 237 l 1
 514 237 l 1
 614 382 694 553 755 752 c 0
 778 829 801 912 822 999 c 1
 971 1034 l 1
 1023 195 l 1
 1031 195 l 1
 1167 339 1255 510 1297 709 c 1
 1310 776 1316 835 1316 888 c 0
 1316 996 1293 1102 1248 1207 c 1
 1291 1238 1338 1253 1388 1252 c 1
 1394 1252 l 1
 1473 1246 1520 1206 1536 1130 c 0
 1541 1110 1543 1081 1543 1041 c 0
 1543 1001 1537 951 1523 892 c 1
 1499 773 1449 648 1372 517 c 1
 1303 395 1220 276 1123 162 c 1
 1100 131 1053 78 982 3 c 1
 840 -28 l 1
EndSplineSet
Colour: ffff
EndChar

StartChar: X
Encoding: 88 88 56
Width: 1317
VWidth: 1655
GlyphClass: 2
Flags: HMW
LayerCount: 2
Fore
SplineSet
340.125 1071 m 1
 98.125 1122 l 1
 117.125 1197 l 1
 220.125 1220 297.125 1233 347.125 1237 c 0
 397.125 1241 446.125 1244 492.125 1246 c 1
 725.125 729 l 1
 740.125 770 754.125 803 768.125 829 c 1
 796.125 891 833.125 960 880.125 1036 c 0
 927.125 1112 968.125 1163 1003.12 1192 c 0
 1053.12 1232 1104.12 1252 1154.12 1252 c 0
 1204.12 1252 1243.12 1233 1270.12 1194 c 1
 1286.12 1168 1294.12 1150 1296.12 1140 c 0
 1298.12 1130 1298.12 1114 1298.12 1092 c 0
 1298.12 1070 1291.12 1045 1275.12 1019 c 1
 1248.12 1026 1221.12 1029 1195.12 1029 c 1
 1149.12 1026 l 1
 1031.12 1010 928.125 934 842.125 797 c 1
 815.125 750 791.125 698 768.125 639 c 1
 896.125 357 l 2
 935.125 272 970.125 214 999.125 184 c 0
 1015.12 168 1031.12 161 1050.12 162 c 0
 1069.12 163 1085.12 169 1101.12 184 c 1
 1132.12 207 1164.12 245 1198.12 298 c 1
 1247.12 264 l 1
 1235.12 219 1220.12 181 1201.12 151 c 0
 1153.12 75 1095.12 24 1026.12 -2 c 0
 1000.12 -11 976.125 -15 955.125 -14 c 1
 906.125 -14 864.125 4 829.125 39 c 0
 811.125 57 798.125 73 789.125 88 c 0
 780.125 103 758.125 147 725.125 220 c 2
 587.125 529 l 1
 552.125 435 501.125 329 434.125 211 c 1
 384.125 126 338.125 68 295.125 35 c 0
 256.125 4 214.125 -11 171.125 -10 c 1
 146.125 -8 l 1
 111.125 -2 82.125 13 59.125 39 c 0
 28.125 73 14.125 107 13.125 142 c 0
 12.125 177 17.125 205 28.125 228 c 1
 48.125 226 69.125 225 92.125 225 c 1
 154.125 228 l 1
 286.125 242 387.125 314 460.125 446 c 0
 483.125 487 510.125 546 542.125 623 c 1
 340.125 1071 l 1
EndSplineSet
Colour: ffff
EndChar

StartChar: Y
Encoding: 89 89 57
Width: 1097
VWidth: 1655
GlyphClass: 2
Flags: HMW
LayerCount: 2
Fore
SplineSet
613 680 m 1
 584 583 562 476 548 359 c 2
 519 106 l 1
 732 81 l 1
 711 0 l 1
 85 0 l 1
 104 83 l 1
 325 129 l 1
 364 423 l 2
 371 470 374 519 374 569 c 0
 374 688 352 796 307 893 c 1
 246 1019 149 1092 13 1111 c 1
 23 1160 44 1197 78 1221 c 0
 112 1245 152 1259 196 1262 c 1
 207 1262 l 2
 315 1262 396 1203 451 1086 c 0
 488 1006 509 915 517 812 c 1
 519 749 520 713 519 702 c 1
 519 664 l 1
 535 664 l 1
 558 763 592 863 637 962 c 1
 720 1153 821 1249 938 1249 c 2
 956 1249 l 1
 993 1245 1023 1231 1045 1204 c 0
 1067 1177 1078 1149 1078 1118 c 0
 1078 1105 1077 1095 1074 1087 c 1
 1035 1085 991 1078 941 1063 c 0
 891 1048 845 1026 804 995 c 1
 757 957 720 915 693 869 c 0
 666 823 640 760 613 680 c 1
EndSplineSet
Colour: ffff
EndChar

StartChar: Z
Encoding: 90 90 58
Width: 1109
VWidth: 1655
GlyphClass: 2
Flags: HMW
LayerCount: 2
Fore
SplineSet
167 1248 m 1
 1090 1248 l 1
 1081 1171 l 1
 235 94 l 1
 445 103 l 1
 596 112 718 123 811 139 c 1
 861 257 895 362 913 453 c 1
 1004 440 l 1
 1004 428 1004 418 1006 409 c 1
 1006 378 l 1
 1004 241 995 129 976 42 c 1
 966 0 l 1
 13 0 l 1
 18 103 l 1
 853 1152 l 1
 328 1135 l 1
 253 874 l 1
 151 900 l 1
 167 1248 l 1
EndSplineSet
Colour: ffff
EndChar

StartChar: bracketleft
Encoding: 91 91 59
Width: 592
VWidth: 1655
GlyphClass: 2
Flags: HMW
LayerCount: 2
Fore
SplineSet
378 -378 m 1
 17 -380 l 1
 220 1266 l 1
 575 1266 l 1
 575 1175 l 1
 358 1154 l 1
 183 -263 l 1
 401 -282 l 1
 378 -378 l 1
EndSplineSet
Colour: ffff
EndChar

StartChar: backslash
Encoding: 92 92 60
Width: 430
VWidth: 1655
GlyphClass: 2
Flags: HMW
LayerCount: 2
Fore
SplineSet
150 1275 m 1
 413 -380 l 1
 284 -372 l 1
 17 1283 l 1
 150 1275 l 1
EndSplineSet
Colour: ffff
EndChar

StartChar: bracketright
Encoding: 93 93 61
Width: 595
VWidth: 1655
GlyphClass: 2
Flags: HMW
LayerCount: 2
Fore
SplineSet
17 -378 m 1
 19 -282 l 1
 239 -263 l 1
 413 1154 l 1
 200 1175 l 1
 223 1266 l 1
 578 1266 l 1
 378 -380 l 1
 17 -378 l 1
EndSplineSet
Colour: ffff
EndChar

StartChar: asciicircum
Encoding: 94 94 62
Width: 668
VWidth: 1655
GlyphClass: 2
Flags: HMW
LayerCount: 2
Fore
SplineSet
406 1224 m 1
 648 808 l 1
 586 771 l 1
 353 1052 l 1
 344 1052 l 1
 66 776 l 1
 20 809 l 1
 353 1212 l 1
 406 1224 l 1
EndSplineSet
Colour: ffff
EndChar

StartChar: underscore
Encoding: 95 95 63
Width: 916
VWidth: 1655
GlyphClass: 2
Flags: HMW
LayerCount: 2
Fore
SplineSet
53 -28 m 1
 887 -28 l 1
 863 -134 l 1
 28 -134 l 1
 53 -28 l 1
EndSplineSet
Colour: ffff
EndChar

StartChar: grave
Encoding: 96 96 64
Width: 322
VWidth: 1655
GlyphClass: 2
Flags: HMW
LayerCount: 2
Fore
SplineSet
40 1626 m 1
 154 1663 l 1
 282 1336 l 1
 226 1303 l 1
 40 1626 l 1
EndSplineSet
Colour: ffff
EndChar

StartChar: a
Encoding: 97 97 65
Width: 859
VWidth: 1655
GlyphClass: 2
Flags: HMW
LayerCount: 2
Fore
SplineSet
167 288 m 0
 167 229 171 188 180 166 c 0
 189 144 205 132 232 132 c 0
 281 132 336 183 399 285 c 0
 462 387 506 512 532 660 c 1
 522 688 503 713 473 736 c 0
 443 759 413 770 381 770 c 0
 349 770 319 754 289 722 c 0
 259 690 236 648 219 595 c 0
 184 491 167 389 167 288 c 0
592 918 m 1
 711 881 l 1
 639 491 l 1
 609 253 l 2
 604 214 602 186 602 168 c 0
 602 133 617 116 646 116 c 0
 664 116 688 133 718 166 c 0
 748 199 776 236 799 275 c 1
 840 240 l 1
 803 147 763 79 719 35 c 0
 675 -9 618 -31 548 -31 c 0
 515 -31 489 -18 471 6 c 0
 453 30 445 66 445 113 c 0
 445 161 457 219 481 287 c 1
 468 287 l 1
 433 203 387 131 330 70 c 0
 273 9 217 -21 162 -21 c 0
 107 -21 68 0 46 41 c 0
 24 82 13 143 13 225 c 0
 13 307 32 401 70 505 c 0
 108 609 159 701 223 779 c 0
 287 857 351 895 414 895 c 0
 477 895 525 870 558 820 c 1
 567 820 l 1
 581 909 l 1
 592 918 l 1
EndSplineSet
Colour: ffff
EndChar

StartChar: b
Encoding: 98 98 66
Width: 752
VWidth: 1655
GlyphClass: 2
Flags: HMW
LayerCount: 2
Back
SplineSet
442 762 m 4
 397 762 349 714 298 618 c 132
 247 522 214 400 196 249 c 5
 183 153 l 5
 214 108 269 86 346 88 c 4
 404 88 455 120 499 184 c 132
 543 248 565 355 565 505 c 4
 565 581 555 643 534 691 c 132
 513 739 483 762 442 762 c 4
318 1245 m 5
 269 845 l 5
 219 592 l 5
 228 592 l 5
 248 677 284 748 336 806 c 132
 388 864 447 893 511 893 c 132
 575 893 629 859 670 792 c 132
 711 725 732 639 732 535 c 132
 732 431 712 335 672 250 c 132
 632 165 574 99 500 50 c 132
 426 1 341 -24 244 -24 c 132
 147 -24 72 0 17 49 c 5
 149 1142 l 5
 13 1170 l 5
 24 1243 l 5
 303 1266 l 5
 318 1245 l 5
10 0 m 5
 21 79 l 5
 175 116 l 5
 175 1147 l 5
 15 1201 l 5
 27 1277 l 5
 316 1299 l 5
 341 1275 l 5
 341 850 l 5
 325 744 l 5
 335 744 l 5
 418 836 516 900 629 900 c 4
 767 900 872 842 872 599 c 6
 872 114 l 5
 1017 79 l 5
 1005 0 l 5
 556 0 l 5
 568 74 l 5
 703 114 l 5
 706 580 l 6
 706 722 613 764 534 764 c 4
 477 764 411 748 341 675 c 5
 341 116 l 5
 487 80 l 5
 475 0 l 5
 10 0 l 5
EndSplineSet
Fore
SplineSet
320 1278 m 1
 269 845 l 1
 219 592 l 1
 228 592 l 1
 248 677 284 748 336 806 c 0
 388 864 447 893 511 893 c 0
 575 893 629 859 670 792 c 0
 711 725 732 639 732 535 c 0
 732 431 712 335 672 250 c 0
 632 165 574 99 500 50 c 0
 426 1 341 -24 244 -24 c 0
 147 -24 72 0 17 49 c 1
 151 1175 l 1
 15 1203 l 1
 26 1276 l 1
 305 1299 l 1
 320 1278 l 1
442 762 m 0
 397 762 349 714 298 618 c 0
 247 522 214 400 196 249 c 1
 183 153 l 1
 214 108 269 86 346 88 c 1
 404 88 455 120 499 184 c 0
 543 248 565 355 565 505 c 0
 565 581 555 643 534 691 c 0
 513 739 483 762 442 762 c 0
EndSplineSet
Colour: ffff
EndChar

StartChar: c
Encoding: 99 99 67
Width: 620
VWidth: 1655
GlyphClass: 2
Flags: HMW
LayerCount: 2
Fore
SplineSet
462 592 m 1
 462 602 459 625 452 663 c 0
 439 732 419 774 392 790 c 0
 382 795 372 797 360 796 c 1
 300 796 254 759 222 686 c 0
 190 613 174 514 174 392 c 0
 174 328 179 276 189 237 c 0
 199 198 218 166 246 139 c 0
 274 112 312 98 359 98 c 2
 361 98 l 2
 393 98 424 110 456 133 c 0
 488 156 515 188 536 227 c 1
 572 195 l 1
 559 136 523 84 462 38 c 0
 401 -8 338 -31 271 -31 c 0
 187 -31 123 2 79 68 c 0
 35 134 14 222 14 332 c 0
 14 405 26 478 50 548 c 0
 74 618 106 677 144 727 c 0
 182 777 226 817 275 847 c 0
 324 877 376 893 428 893 c 0
 480 893 522 878 554 847 c 0
 586 816 601 778 601 732 c 0
 601 686 590 653 568 632 c 0
 546 611 511 598 462 592 c 1
EndSplineSet
Colour: ffff
EndChar

StartChar: d
Encoding: 100 100 68
Width: 854
VWidth: 1655
GlyphClass: 2
Flags: HMW
LayerCount: 2
Back
SplineSet
168 287 m 2
 168 224 171 179 178 151 c 128
 185 123 200 109 223 109 c 0
 264 109 304 136 346 188 c 128
 388 240 424 310 455 398 c 128
 486 486 507 579 517 678 c 1
 486 743 442 776 385 775 c 0
 344 775 306 752 271 705 c 128
 236 658 210 600 193 529 c 128
 176 458 168 384 168 305 c 2
 168 287 l 2
608 284 m 1
 601 242 597 209 598 185 c 128
 599 161 602 145 609 136 c 128
 616 127 627 123 643 123 c 128
 659 123 682 139 713 170 c 0
 745 201 770 234 790 270 c 1
 830 242 l 1
 778 64 680 -25 534 -24 c 0
 478 -24 450 17 450 98 c 0
 450 146 458 200 476 259 c 1
 463 263 l 1
 430 172 388 102 338 51 c 128
 288 0 234 -26 176 -26 c 128
 118 -26 75 -3 48 41 c 128
 21 85 8 146 8 225 c 128
 8 304 26 394 63 494 c 128
 100 594 151 684 217 763 c 128
 283 842 356 882 434 882 c 0
 486 882 517 872 527 851 c 1
 541 855 l 1
 561 1142 l 5
 427 1170 l 5
 437 1243 l 5
 712 1269 l 5
 731 1245 l 5
 608 284 l 1
EndSplineSet
Fore
SplineSet
228 109 m 0
 343.676 109 420.888 286.972 460 398 c 0
 491 486 512 579 522 678 c 1
 491 743 444 775 390 775 c 0
 223.652 775 173 478 173 305 c 0
 173 193 174 109 228 109 c 0
736 1275 m 1
 613 284 l 1
 606 242 602 209 603 185 c 0
 604 161 607 145 614 136 c 0
 621 127 632 123 648 123 c 0
 664 123 687 139 718 170 c 0
 750 201 775 234 795 270 c 1
 835 242 l 1
 783 64 685 -25 539 -24 c 0
 483 -24 455 17 455 98 c 0
 455 146 463 200 481 259 c 1
 468 263 l 1
 420.105 130.926 331.374 -26 181 -26 c 0
 51.9785 -26 13 86.5264 13 225 c 0
 13 476.188 188.262 882 439 882 c 0
 491 882 522 872 532 851 c 1
 546 855 l 1
 566 1172 l 1
 432 1200 l 1
 442 1273 l 1
 717 1299 l 1
 736 1275 l 1
EndSplineSet
Colour: ffff
EndChar

StartChar: e
Encoding: 101 101 69
Width: 617
VWidth: 1655
GlyphClass: 2
Flags: HMW
LayerCount: 2
Fore
SplineSet
446 698 m 0
 446 760 419 791 366 790 c 1
 254 790 190 664 174 414 c 1
 355 481 446 576 446 698 c 0
554 849 m 0
 584 817 598 777 598 726 c 0
 598 630 549 547 450 477 c 0
 369 419 277 374 174 341 c 1
 178 182 231 103 336 103 c 0
 413 103 482 151 542 246 c 1
 579 214 l 1
 556 147 514 89 456 41 c 0
 398 -7 331 -31 255 -31 c 0
 179 -31 121 -2 78 56 c 0
 35 114 14 193 14 293 c 0
 14 393 33 488 72 580 c 0
 111 672 163 749 228 808 c 0
 293 867 360 897 431 897 c 0
 483 897 524 881 554 849 c 0
EndSplineSet
Colour: ffff
EndChar

StartChar: f
Encoding: 102 102 70
Width: 990
VWidth: 1655
GlyphClass: 2
Flags: HMW
LayerCount: 2
Fore
SplineSet
72 -132 m 1
 138 -196 205 -228 273 -228 c 0
 295 -228 310 -225 321 -218 c 1
 343 -208 357 -186 365 -150 c 1
 381 -55 390 28 395 102 c 0
 400 176 402 229 404 260 c 0
 406 291 406 309 407 313 c 2
 439 775 l 1
 331 766 l 1
 343 871 l 1
 451 855 l 1
 458 896 461 919 461 925 c 1
 477.368 1008.05 507.034 1083.35 550 1152 c 1
 597 1215 654 1260 721 1288 c 0
 757 1302 790 1309 821 1309 c 2
 829 1309 l 1
 868 1307 899 1295 922 1274 c 0
 956 1243 973 1207 973 1165 c 0
 973 1148 971 1136 966 1126 c 1
 954 1091 932 1062 899 1041 c 1
 842 1107 803 1145 781 1157 c 0
 759 1169 737 1174 717 1174 c 0
 697 1174 681 1167 666 1153 c 0
 651 1139 643 1127 639 1116 c 0
 635 1105 633 1090 628 1069 c 0
 622.286 1043.38 617.714 1001.9 612 947 c 0
 607 902 605 870 605 850 c 1
 835 871 l 1
 816 760 l 1
 599 771 l 1
 557 178 l 1
 548 69 535 -18 517 -83 c 0
 499 -148 476 -198 448 -233 c 0
 394 -301 332 -345 263 -365 c 1
 229 -376 197 -381 168 -381 c 2
 157 -381 l 1
 86 -375 42 -347 22 -296 c 0
 16 -280 14 -266 13 -253 c 1
 13 -242 l 1
 15 -226 20 -208 31 -187 c 0
 42 -166 55 -148 72 -132 c 1
EndSplineSet
Colour: ffff
EndChar

StartChar: g
Encoding: 103 103 71
Width: 904
VWidth: 1655
GlyphClass: 2
Flags: HMW
LayerCount: 2
Fore
SplineSet
370 754 m 0
 347 704 336 650 335 593 c 0
 334 536 335 495 339 471 c 0
 343 447 350 424 363 401 c 1
 385 366 408 349 431 349 c 0
 454 349 477 356 499 372 c 1
 550 416 576 487 576 585 c 0
 576 623 571 661 559 699 c 1
 536 779 500 819 450 818 c 0
 430 818 415 812 401 800 c 0
 387 788 378 773 370 754 c 0
323 205 m 0
 323 197 329 192 341 188 c 2
 388 170 l 2
 516 121 584 95 593 91 c 0
 684 51 745 2 776 -56 c 1
 790 -79 797 -106 797 -137 c 0
 797 -139 796 -150 794 -170 c 1
 782 -231 740 -282 666 -322 c 0
 592 -362 510 -384 420 -388 c 1
 396 -388 l 2
 339 -388 286 -382 236 -369 c 0
 186 -356 148 -345 122 -331 c 0
 96 -317 71 -298 48 -272 c 0
 25 -246 13 -212 13 -173 c 0
 13 -134 25 -100 49 -72 c 0
 73 -44 113 -18 169 8 c 1
 179 14 211 27 267 49 c 1
 228 67 204 82 194 95 c 0
 184 108 180 120 180 131 c 0
 180 142 180 151 182 158 c 0
 184 165 191 177 204 196 c 0
 217 215 235 235 258 255 c 0
 281 275 299 290 313 300 c 1
 298 308 283 320 266 336 c 1
 221 384 198 444 194 515 c 1
 194 525 l 2
 194 572 204 621 225 670 c 0
 246 719 273 763 308 802 c 1
 367 864 428 895 492 895 c 0
 556 895 607 871 645 824 c 1
 705 872 757 896 800 895 c 1
 819 893 l 1
 839 889 854 880 867 865 c 0
 880 850 885 835 885 817 c 2
 885 812 l 1
 883 810 883 808 884 806 c 1
 877 765 851 730 806 702 c 1
 769 734 743 755 727 766 c 0
 711 777 694 781 673 781 c 1
 696 736 707 683 708 623 c 1
 708 531 678 452 618 385 c 0
 595 360 567 338 534 318 c 0
 486 290 441 276 398 277 c 0
 384 277 376 277 374 279 c 1
 350 259 334 237 325 214 c 1
 325 211 l 1
 323 209 323 207 323 205 c 0
336 23 m 1
 273 0 230 -28 207 -60 c 0
 184 -92 172 -124 172 -158 c 0
 172 -172 176 -187 184 -205 c 0
 200 -239 223 -263 255 -279 c 0
 307 -305 369 -318 441 -317 c 1
 469 -317 l 2
 516 -317 555 -305 587 -280 c 1
 618 -254 633 -220 632 -177 c 0
 631 -134 609 -100 564 -73 c 0
 531 -54 500 -40 469 -29 c 0
 438 -18 419 -11 411 -8 c 0
 403 -5 392 0 376 7 c 2
 336 23 l 1
EndSplineSet
Colour: ffff
EndChar

StartChar: h
Encoding: 104 104 72
Width: 901
VWidth: 1655
GlyphClass: 2
Flags: HMW
LayerCount: 2
Back
SplineSet
183 1142 m 5
 47 1170 l 5
 57 1243 l 5
 344 1266 l 5
 360 1245 l 5
 298 825 l 1
 235 564 l 1
 247 561 l 1
 278 653 322 731 380 795 c 128
 438 859 494 890 547 890 c 128
 600 890 639 876 666 849 c 128
 693 822 706 785 706 741 c 128
 706 697 704 653 698 608 c 2
 653 256 l 2
 649 227 648 203 648 183 c 0
 648 143 659 123 682 123 c 128
 705 123 731 134 763 157 c 128
 795 180 821 209 841 246 c 1
 882 217 l 1
 851 137 812 77 764 37 c 128
 716 -3 656 -23 581 -23 c 0
 516 -23 483 19 484 103 c 0
 484 138 490 203 504 298 c 1
 525 481 l 2
 535 557 539 610 540 638 c 128
 541 666 537 686 529 698 c 128
 521 710 508 716 488 716 c 0
 436 716 389 688 348 631 c 128
 307 574 272 480 242 346 c 1
 238 210 224 115 197 60 c 128
 170 5 128 -23 72 -23 c 0
 70 -23 56 -22 28 -19 c 1
 13 8 l 1
 93 434 l 1
 183 1142 l 5
EndSplineSet
Fore
SplineSet
191 1180 m 1
 55 1208 l 1
 65 1281 l 1
 352 1304 l 1
 368 1283 l 1
 298 825 l 1
 235 564 l 1
 247 561 l 1
 278 653 322 731 380 795 c 0
 438 859 494 890 547 890 c 0
 600 890 639 876 666 849 c 0
 693 822 706 785 706 741 c 0
 706 697 704 653 698 608 c 2
 653 256 l 2
 649 227 648 203 648 183 c 0
 648 143 659 123 682 123 c 0
 705 123 731 134 763 157 c 0
 795 180 821 209 841 246 c 1
 882 217 l 1
 851 137 812 77 764 37 c 0
 716 -3 656 -23 581 -23 c 0
 516 -23 483 19 484 103 c 0
 484 138 490 203 504 298 c 1
 525 481 l 1
 535 557 539 610 540 638 c 0
 541 666 537 686 529 698 c 0
 521 710 508 716 488 716 c 0
 436 716 389 688 348 631 c 0
 307 574 272 480 242 346 c 1
 238 210 224 115 197 60 c 0
 170 5 128 -23 72 -23 c 0
 70 -23 56 -22 28 -19 c 1
 13 8 l 1
 93 434 l 1
 191 1180 l 1
EndSplineSet
Colour: ffff
EndChar

StartChar: i
Encoding: 105 105 73
Width: 603
VWidth: 1655
GlyphClass: 2
Flags: HMW
LayerCount: 2
Fore
SplineSet
353 254 m 1
 349 225 348 201 348 181 c 0
 348 142 359 123 382 123 c 0
 405 123 432 134 464 157 c 0
 496 180 522 209 542 246 c 1
 584 217 l 1
 524 57 428 -23 296 -23 c 0
 255 -23 225 -10 208 15 c 0
 191 40 183 71 183 108 c 0
 183 145 187 208 196 296 c 1
 232 611 l 2
 258.259 840.77 160.561 747.619 61 599 c 1
 13 631 l 1
 56.0264 743.759 169.278 906 307 906 c 0
 433.723 906 397 745 381 569 c 2
 353 254 l 1
417 1278 m 0
 434 1258 442 1233 442 1203 c 0
 442 1173 431 1144 409 1119 c 0
 387 1094 361 1081 333 1081 c 0
 305 1081 284 1089 267 1108 c 0
 250 1127 242 1151 242 1180 c 0
 242 1209 253 1238 276 1266 c 0
 299 1294 323 1308 350 1308 c 0
 377 1308 400 1298 417 1278 c 0
EndSplineSet
Colour: ffff
EndChar

StartChar: j
Encoding: 106 106 74
Width: 689
VWidth: 1655
GlyphClass: 2
Flags: HMW
LayerCount: 2
Fore
SplineSet
624 1291 m 0
 640 1279 651 1266 659 1249 c 0
 667 1232 670 1216 670 1199 c 0
 670 1182 666 1162 655 1141 c 0
 644 1120 630 1104 611 1091 c 0
 592 1078 572 1071 552 1071 c 0
 511 1071 484 1087 470 1120 c 0
 461 1141 457 1159 457 1176 c 0
 457 1193 462 1212 474 1235 c 0
 486 1258 501 1276 522 1289 c 0
 543 1302 559 1308 576 1308 c 0
 593 1308 608 1303 624 1291 c 0
72 -132 m 1
 138 -196 204 -228 271 -228 c 0
 294 -228 310 -225 322 -218 c 1
 347 -207 361 -182 366 -143 c 0
 371 -104 382 21 402 232 c 1
 438 634 l 2
 439 644 439 659 439 681 c 0
 439 728 432 751 417 750 c 1
 415 752 411 752 402 752 c 0
 390 752 375 742 355 722 c 1
 312 667 l 1
 286 629 271 605 266 595 c 1
 215 631 l 1
 225 658 239 687 258 716 c 0
 301 785 353 839 413 877 c 0
 443 895 463 904 473 906 c 0
 483 908 495 909 512 909 c 0
 529 909 544 904 561 893 c 0
 592 873 607 835 605 780 c 1
 605 765 l 2
 605 740 602 692 595 621 c 2
 556 160 l 2
 547 59 535 -22 518 -85 c 0
 501 -148 478 -196 451 -230 c 0
 424 -264 396 -292 367 -313 c 1
 298 -358 232 -381 169 -381 c 2
 158 -381 l 1
 87 -375 42 -347 22 -296 c 0
 16 -280 14 -266 13 -253 c 1
 13 -242 l 1
 15 -226 20 -208 31 -187 c 0
 42 -166 55 -148 72 -132 c 1
EndSplineSet
Colour: ffff
EndChar

StartChar: k
Encoding: 107 107 75
Width: 814
VWidth: 1655
GlyphClass: 2
Flags: HMW
LayerCount: 2
Back
SplineSet
298 411 m 5
 459 438 539 515 538 641 c 4
 538 695 518 722 477 721 c 4
 426 721 381 693 343 636 c 132
 305 579 271 483 240 346 c 5
 236 212 223 117 199 60 c 132
 175 3 137 -26 84 -26 c 4
 66 -26 43 -22 14 -13 c 5
 8 0 l 5
 91 440 l 5
 181 1142 l 5
 46 1170 l 5
 56 1243 l 5
 343 1266 l 5
 359 1245 l 5
 298 832 l 5
 233 571 l 5
 246 566 l 5
 277 659 321 737 379 801 c 132
 437 865 493 897 546 897 c 132
 599 897 639 883 665 855 c 132
 691 827 704 791 704 746 c 132
 704 701 697 659 682 621 c 132
 667 583 648 549 623 520 c 4
 574 462 516 420 450 395 c 5
 493 282 l 6
 534 177 569 124 599 123 c 4
 652 123 701 164 748 246 c 5
 790 216 l 5
 767 147 733 92 688 50 c 132
 643 8 591 -13 532 -13 c 4
 493 -13 460 6 433 43 c 132
 406 80 378 136 351 212 c 6
 287 395 l 5
 298 411 l 5
EndSplineSet
Fore
SplineSet
303 832 m 1
 238 571 l 1
 251 566 l 1
 282 659 326 737 384 801 c 128
 442 865 498 897 551 897 c 128
 604 897 644 883 670 855 c 128
 696 827 709 791 709 746 c 128
 709 701 702 659 687 621 c 128
 672 583 653 549 628 520 c 0
 579 462 521 420 455 395 c 1
 498 282 l 2
 539 177 574 124 604 123 c 0
 657 123 706 164 753 246 c 1
 795 216 l 1
 772 147 738 92 693 50 c 128
 648 8 596 -13 537 -13 c 0
 498 -13 465 6 438 43 c 128
 411 80 383 136 356 212 c 2
 292 395 l 1
 303 411 l 1
 464 438 544 515 543 641 c 0
 543 695 523 722 482 721 c 0
 431 721 386 693 348 636 c 128
 310 579 276 483 245 346 c 1
 241 212 228 117 204 60 c 128
 180 3 142 -26 89 -26 c 0
 71 -26 48 -22 19 -13 c 1
 13 0 l 1
 96 440 l 1
303 411 m 1
 464 438 544 515 543 641 c 0
 543 695 523 722 482 721 c 1
 431 721 386 693 348 636 c 0
 310 579 276 483 245 346 c 1
 241 212 228 117 204 60 c 0
 180 3 142 -26 89 -26 c 0
 71 -26 48 -22 19 -13 c 1
 13 0 l 1
 96 440 l 1
 183 1175 l 1
 48 1203 l 1
 58 1276 l 1
 345 1299 l 1
 361 1278 l 1
 303 832 l 1
 238 571 l 1
 251 566 l 1
 282 659 326 737 384 801 c 0
 442 865 498 897 551 897 c 0
 604 897 644 883 670 855 c 0
 696 827 709 791 709 746 c 0
 709 701 702 659 687 621 c 0
 672 583 653 549 628 520 c 0
 579 462 521 420 455 395 c 1
 498 282 l 2
 539 177 574 124 604 123 c 1
 657 123 706 164 753 246 c 1
 795 216 l 1
 772 147 738 92 693 50 c 0
 648 8 596 -13 537 -13 c 0
 498 -13 465 6 438 43 c 0
 411 80 383 136 356 212 c 2
 292 395 l 1
 303 411 l 1
EndSplineSet
Colour: ffff
EndChar

StartChar: l
Encoding: 108 108 76
Width: 458
VWidth: 1655
GlyphClass: 2
Flags: HMW
LayerCount: 2
Back
SplineSet
116 885 m 5
 144 1142 l 5
 8 1170 l 5
 19 1243 l 5
 298 1266 l 5
 313 1245 l 5
 240 623 l 5
 200 253 l 6
 198 230 197 208 197 188 c 4
 197 143 208 121 231 121 c 132
 254 121 281 133 313 156 c 132
 345 179 371 209 392 246 c 5
 434 216 l 5
 374 56 273 -24 129 -24 c 4
 60 -24 26 24 26 120 c 4
 26 158 31 216 42 295 c 5
 116 885 l 5
EndSplineSet
Fore
SplineSet
121 885 m 1
 153 1175 l 1
 17 1203 l 1
 28 1276 l 1
 307 1299 l 1
 322 1278 l 1
 245 623 l 1
 205 253 l 2
 203 230 202 208 202 188 c 0
 202 143 213 121 236 121 c 0
 259 121 286 133 318 156 c 0
 350 179 376 209 397 246 c 1
 439 216 l 1
 379 56 278 -24 134 -24 c 0
 65 -24 31 24 31 120 c 0
 31 158 36 216 47 295 c 1
 121 885 l 1
EndSplineSet
Colour: ffff
EndChar

StartChar: m
Encoding: 109 109 77
Width: 1425
VWidth: 1655
GlyphClass: 2
Flags: HMW
LayerCount: 2
Fore
SplineSet
791 618 m 1
 801 613 l 1
 874 798 966 890 1076 890 c 0
 1121 890 1158 875 1185 847 c 0
 1212 819 1225 779 1225 726 c 0
 1225 673 1223 633 1218 605 c 1
 1175 253 l 2
 1171 224 1170 199 1169 179 c 1
 1169 139 1181 118 1204 119 c 0
 1227 120 1254 131 1286 154 c 0
 1318 177 1344 206 1364 242 c 1
 1406 214 l 1
 1346 54 1245 -26 1102 -26 c 0
 1037 -26 1004 16 1004 99 c 0
 1004 130 1011 195 1025 293 c 1
 1048 477 l 2
 1058 553 1062 604 1063 631 c 1
 1063 687 1045 715 1008 716 c 1
 957 716 911 687 872 630 c 0
 833 573 799 478 769 343 c 1
 765 206 752 110 727 53 c 0
 702 -4 661 -33 604 -33 c 0
 602 -33 588 -32 562 -30 c 1
 546 -2 l 1
 625 378 l 1
 641 486 649 563 649 609 c 0
 649 655 645 683 635 695 c 0
 625 707 611 712 590 712 c 0
 541 712 498 684 459 628 c 0
 420 572 385 478 354 344 c 1
 350 207 337 112 311 58 c 0
 285 4 243 -23 186 -23 c 0
 184 -23 170 -22 142 -19 c 1
 128 8 l 1
 210 378 l 1
 232 611 l 2
 234 639 235 664 235 686 c 0
 235 736 223 761 198 760 c 0
 185 760 165 743 136 710 c 0
 107 677 82 642 61 605 c 1
 13 641 l 1
 40 714 83 778 139 832 c 0
 195 886 253 913 313 913 c 0
 365 913 391 879 390 811 c 0
 390 780 386 745 377 704 c 0
 367 663 362 634 359 616 c 0
 353 584 350 566 349 562 c 1
 360 560 l 1
 390 651 435 729 494 793 c 0
 553 857 609 888 662 888 c 0
 715 888 752 878 774 858 c 0
 796 838 807 801 807 746 c 0
 807 691 802 649 791 618 c 1
EndSplineSet
Colour: ffff
EndChar

StartChar: n
Encoding: 110 110 78
Width: 1018
VWidth: 1655
GlyphClass: 2
Flags: HMW
LayerCount: 2
Fore
SplineSet
354 344 m 1
 350 207 337 112 311 56 c 0
 285 0 243 -28 184 -28 c 0
 182 -28 168 -27 142 -24 c 1
 128 3 l 1
 210 388 l 1
 232 620 l 2
 234 648 235 673 235 696 c 0
 235 745 223 769 198 768 c 0
 185 768 165 751 136 718 c 0
 107 685 82 650 61 613 c 1
 13 651 l 1
 40 724 83 787 139 841 c 0
 195 895 253 923 313 923 c 0
 365 923 391 888 390 818 c 0
 390 788 386 753 377 713 c 0
 367 672 362 644 359 627 c 0
 351 592 348 574 349 573 c 2
 360 567 l 1
 390 658 435 737 494 801 c 0
 553 865 609 897 662 897 c 0
 715 897 755 883 781 856 c 0
 807 829 820 794 820 750 c 0
 820 706 817 662 811 615 c 2
 767 253 l 2
 763 224 762 200 762 181 c 0
 762 141 773 121 796 121 c 0
 819 121 846 133 878 156 c 0
 910 179 936 209 956 246 c 1
 999 216 l 1
 939 56 838 -24 695 -24 c 0
 630 -24 597 18 597 101 c 0
 597 112 604 177 618 295 c 2
 641 488 l 2
 651 571 655 625 656 649 c 1
 656 698 637 722 600 721 c 1
 495 721 413 595 354 344 c 1
EndSplineSet
Colour: ffff
EndChar

StartChar: o
Encoding: 111 111 79
Width: 694
VWidth: 1655
GlyphClass: 2
Flags: HMW
LayerCount: 2
Fore
SplineSet
236 733 m 0
 182 672 155 581 155 460 c 0
 155 325 186 221 247 146 c 0
 277 109 310 89 347 90 c 0
 384 91 417 107 446 139 c 1
 502 204 530 300 530 424 c 0
 530 558 500 659 441 730 c 0
 411 765 377 783 339 784 c 0
 301 785 267 767 236 733 c 0
85 79 m 0
 37 149 14 236 14 340 c 0
 14 444 32 537 67 620 c 0
 102 703 149 770 210 820 c 0
 271 870 338 895 411 895 c 0
 484 895 546 861 597 794 c 0
 648 727 673 644 673 546 c 0
 673 448 658 358 627 274 c 0
 596 190 550 119 490 61 c 0
 430 3 360 -26 279 -26 c 0
 198 -26 133 9 85 79 c 0
EndSplineSet
Colour: ffff
EndChar

StartChar: p
Encoding: 112 112 80
Width: 916
VWidth: 1655
GlyphClass: 2
Flags: HMW
LayerCount: 2
Fore
SplineSet
230 205 m 1
 277 602 l 2
 282 641 284 667 284 681 c 0
 284 730 271 754 245 754 c 0
 233 754 212 737 183 703 c 0
 154 669 129 633 108 595 c 1
 62 632 l 1
 89 708 131 775 186 831 c 0
 241 887 299 915 358 915 c 0
 412 915 439 880 439 809 c 0
 439 778 434 733 421 673 c 0
 408 613 402 579 400 570 c 0
 398 561 397 557 397 555 c 1
 407 553 l 1
 444 647 488 725 539 786 c 0
 590 847 644 877 700 877 c 0
 756 877 802 847 839 785 c 0
 876 723 895 641 895 540 c 0
 895 439 880 350 851 274 c 0
 822 198 781 139 729 99 c 0
 632 23 523 -15 403 -16 c 1
 400 -16 l 1
 393 58 l 1
 434 63 467 68 491 75 c 0
 515 82 544 95 576 115 c 0
 608 135 633 159 653 190 c 0
 698 263 721 374 721 524 c 0
 721 593 715 642 701 673 c 0
 687 704 666 719 636 719 c 0
 584 719 532 670 480 572 c 0
 428 474 392 341 370 174 c 1
 307 -275 l 1
 491 -296 l 1
 473 -367 l 1
 13 -367 l 1
 35 -296 l 1
 163 -256 l 1
 230 205 l 1
EndSplineSet
Colour: ffff
EndChar

StartChar: q
Encoding: 113 113 81
Width: 726
VWidth: 1655
GlyphClass: 2
Flags: HMW
LayerCount: 2
Fore
SplineSet
413 80 m 1
 391 53 358 29 314 7 c 0
 270 -15 223 -26 175 -26 c 0
 127 -26 88 -2 58 45 c 0
 28 92 13 158 13 243 c 0
 13 328 32 423 69 528 c 0
 106 633 157 720 221 791 c 0
 285 862 354 897 426 897 c 0
 475 897 511 875 535 830 c 1
 545 830 l 1
 555 923 l 1
 581 923 l 1
 695 890 l 1
 551 -275 l 1
 707 -290 l 1
 691 -360 l 1
 202 -360 l 1
 221 -287 l 1
 400 -246 l 1
 482 317 l 1
 519 675 l 1
 505 698 485 721 456 743 c 0
 427 765 398 776 367 776 c 0
 336 776 308 761 280 732 c 0
 252 703 231 664 216 613 c 0
 188 518 174 415 173 305 c 0
 173 248 181 199 198 159 c 0
 215 119 241 99 277 99 c 0
 313 99 353 107 398 125 c 1
 413 80 l 1
EndSplineSet
Colour: ffff
EndChar

StartChar: r
Encoding: 114 114 82
Width: 749
VWidth: 1655
GlyphClass: 2
Flags: HMW
LayerCount: 2
Fore
SplineSet
357 360 m 0
 350 325 346 281 342 229 c 0
 338 177 335 136 330 106 c 1
 315 48 295 11 268 -7 c 0
 248 -21 233 -29 220 -31 c 0
 207 -33 196 -34 183 -34 c 0
 170 -34 157 -31 142 -24 c 1
 128 3 l 1
 210 388 l 1
 232 595 l 2
 234 623 235 649 235 673 c 0
 235 697 234 711 232 717 c 0
 230 723 228 728 222 734 c 0
 216 740 211 743 204 744 c 0
 195 746 185 743 172 734 c 0
 159 725 137 701 106 660 c 1
 80 622 65 599 61 589 c 1
 13 625 l 1
 46 715 102 792 183 855 c 1
 209 873 229 884 245 890 c 1
 292 899 l 1
 340 899 371 877 386 834 c 0
 391 821 393 805 393 785 c 2
 393 768 l 1
 391 743 388 718 383 693 c 2
 353 546 l 1
 365 543 l 1
 398.384 657.757 486.826 866 621 866 c 0
 695 866 739 811 739 733 c 0
 739 686 724 646 693 611 c 0
 678 594 658 581 633 571 c 1
 611.804 609.152 586.008 679 536 679 c 0
 465 679 374.25 446.252 357 360 c 0
EndSplineSet
Colour: ffff
EndChar

StartChar: s
Encoding: 115 115 83
Width: 609
VWidth: 1655
GlyphClass: 2
Flags: HMW
LayerCount: 2
Fore
SplineSet
313 339 m 1
 226 410 171 465 146 506 c 0
 121 547 108 585 108 620 c 0
 108 697 138 762 197 816 c 0
 256 870 325 897 403 897 c 0
 458 897 503 886 538 863 c 0
 573 840 590 811 590 775 c 0
 590 717 558 675 494 648 c 1
 468 700 441 739 411 766 c 0
 381 793 354 806 331 806 c 0
 308 806 287 797 266 777 c 0
 245 757 235 734 235 706 c 0
 235 661 275 605 354 537 c 0
 361 531 361 531 382 513 c 0
 396 501 406 493 412 487 c 0
 418 481 427 473 439 462 c 0
 451 451 460 443 467 435 c 0
 474 427 483 419 493 408 c 0
 547 349 574 292 573 239 c 0
 572 186 556 139 524 98 c 0
 492 57 450 25 396 1 c 0
 342 -23 285 -35 225 -35 c 0
 165 -35 115 -21 74 6 c 0
 33 33 13 64 13 99 c 0
 13 134 24 164 46 189 c 0
 68 214 95 229 128 233 c 1
 142 188 165 147 196 111 c 0
 227 75 261 57 298 57 c 0
 335 57 366 67 390 87 c 0
 414 107 426 135 426 171 c 1
 424 220 387 276 313 339 c 1
EndSplineSet
Colour: ffff
EndChar

StartChar: t
Encoding: 116 116 84
Width: 536
VWidth: 1655
GlyphClass: 2
Flags: HMW
LayerCount: 2
Fore
SplineSet
238 151 m 0
 269 151 297 166 322 196 c 0
 347 226 388 292 445 393 c 1
 494 355 l 1
 463 238 419 145 360 78 c 0
 301 11 235 -23 160 -23 c 0
 117 -23 88 -13 70 8 c 0
 52 29 44 60 44 103 c 0
 44 145 51 229 66 354 c 1
 125 766 l 1
 13 759 l 1
 38 864 l 1
 135 855 l 1
 155 1062 l 1
 307 1081 l 1
 318 1068 l 1
 285 855 l 1
 517 871 l 1
 491 754 l 1
 274 766 l 1
 230 392 l 1
 218 280 212 215 212 197 c 0
 212 179 214 168 218 161 c 0
 222 154 228 151 238 151 c 0
EndSplineSet
Colour: ffff
EndChar

StartChar: u
Encoding: 117 117 85
Width: 993
VWidth: 1655
GlyphClass: 2
Flags: HMW
LayerCount: 2
Fore
SplineSet
625 527 m 1
 627 668 639 765 662 819 c 0
 685 873 724 899 781 899 c 0
 797 899 810 898 823 895 c 1
 839 867 l 1
 769 484 l 1
 752 284 l 2
 747 233 744 199 745 178 c 0
 746 157 748 143 754 135 c 0
 760 127 771 123 787 123 c 0
 803 123 826 139 857 170 c 0
 888 201 913 234 933 270 c 1
 974 242 l 1
 922 64 824 -25 679 -24 c 0
 620 -24 591 17 590 98 c 0
 590 139 599 194 618 263 c 1
 607 265 l 1
 574 174 532 102 483 51 c 0
 434 0 382 -26 329 -26 c 0
 276 -26 235 -12 209 16 c 0
 183 44 170 82 170 130 c 0
 170 178 173 220 179 256 c 2
 232 602 l 2
 237 637 239 661 238 676 c 1
 238 717 227 737 204 738 c 1
 173 738 125 689 61 592 c 1
 13 623 l 1
 42 699 85 764 141 818 c 0
 197 872 252 899 307 899 c 0
 371 899 403 856 402 770 c 0
 402 739 394 669 377 561 c 2
 349 385 l 2
 340 332 335 284 336 244 c 0
 337 204 340 179 348 167 c 0
 356 155 370 150 390 150 c 0
 438 150 481 179 520 237 c 0
 559 296 594 392 625 527 c 1
EndSplineSet
Colour: ffff
EndChar

StartChar: v
Encoding: 118 118 86
Width: 821
VWidth: 1655
GlyphClass: 2
Flags: HMW
LayerCount: 2
Fore
SplineSet
359 400 m 2
 355 367 354 327 354 279 c 0
 354 231 363 187 383 149 c 0
 403 111 432 91 470 91 c 0
 508 91 545 115 579 162 c 0
 613 209 638 267 655 338 c 0
 672 409 679 478 679 545 c 0
 679 667 637 768 553 845 c 1
 584 879 621 897 664 896 c 0
 707 895 741 875 765 835 c 0
 789 795 801 747 801 688 c 0
 801 576 784 466 751 360 c 0
 718 254 669 164 604 90 c 0
 539 16 466 -21 383 -21 c 0
 257 -21 194 70 194 253 c 0
 194 277 196 309 200 349 c 1
 232 592 l 2
 236 623 237 648 237 669 c 0
 237 714 226 736 205 735 c 0
 184 734 141 689 75 599 c 0
 68 591 64 585 61 579 c 1
 13 611 l 1
 44 686 88 752 146 806 c 0
 204 860 260 887 315 887 c 0
 370 888 397 840 397 744 c 0
 397 719 388 631 370 481 c 1
 359 400 l 2
EndSplineSet
Colour: ffff
EndChar

StartChar: w
Encoding: 119 119 87
Width: 1167
VWidth: 1655
GlyphClass: 2
Flags: HMW
LayerCount: 2
Fore
SplineSet
226 618 m 2
 238 673 243 710 244 730 c 0
 245 750 238 760 222 760 c 0
 199 760 143 709 54 607 c 1
 13 637 l 1
 55 713 109 778 174 832 c 0
 239 886 299 913 354 913 c 0
 404 913 429 886 429 832 c 0
 429 794 420 743 401 679 c 0
 382 615 372 581 370 576 c 2
 322 385 l 2
 310 339 304 294 305 249 c 1
 305 161 339 117 406 116 c 0
 456 116 498 142 532 195 c 0
 566 248 589 344 604 484 c 1
 602 525 601 576 600 639 c 1
 600 772 644 838 732 838 c 0
 748 838 764 837 780 835 c 1
 791 817 l 1
 732 456 l 1
 736 284 l 2
 738 229 748 186 768 154 c 0
 788 122 811 106 837 106 c 0
 874 106 907 128 936 173 c 1
 995 260 1025 381 1025 534 c 0
 1025 591 1015 648 995 706 c 0
 975 764 952 815 925 858 c 1
 962 886 997 900 1032 900 c 0
 1067 900 1094 879 1115 837 c 0
 1136 795 1147 742 1147 676 c 0
 1147 610 1138 535 1119 451 c 0
 1100 367 1076 289 1042 216 c 0
 1008 143 965 86 911 42 c 0
 857 -2 799 -24 736 -24 c 0
 642 -24 595 40 595 168 c 0
 595 174 595 177 597 181 c 1
 597 193 l 1
 584 195 l 1
 561 126 525 72 475 33 c 0
 425 -6 368 -26 303 -26 c 0
 195 -26 141 42 141 178 c 0
 141 225 148 282 163 351 c 1
 226 618 l 2
EndSplineSet
Colour: ffff
EndChar

StartChar: x
Encoding: 120 120 88
Width: 888
VWidth: 1655
GlyphClass: 2
Flags: HMW
LayerCount: 2
Fore
SplineSet
449 130 m 1
 405 302 l 1
 304 80 207 -32 114 -34 c 0
 81 -34 56 -24 39 -4 c 0
 22 16 13 41 13 70 c 0
 13 127 29 170 61 197 c 1
 90 171 124 158 163 158 c 0
 236 158 305 239 370 401 c 1
 358 439 345 484 331 537 c 0
 304 634 286 690 274 707 c 0
 262 724 250 731 237 731 c 0
 215 731 179 685 130 592 c 1
 83 629 l 1
 145 798 228 882 333 882 c 0
 368 882 396 861 418 818 c 0
 434 787 450 740 468 675 c 0
 485 610 494 572 497 562 c 1
 541 653 587 727 636 785 c 0
 685 843 726 871 761 871 c 0
 796 871 822 863 841 846 c 0
 860 829 869 810 869 786 c 0
 869 733 854 690 823 657 c 1
 803 675 771 683 724 683 c 0
 653 683 586 614 525 474 c 1
 615 188 l 2
 631 138 648 113 666 113 c 0
 684 113 704 124 728 146 c 0
 752 168 775 198 797 237 c 1
 840 207 l 1
 783 54 696 -23 579 -23 c 0
 523 -23 480 28 449 130 c 1
EndSplineSet
Colour: ffff
EndChar

StartChar: y
Encoding: 121 121 89
Width: 856
VWidth: 1655
GlyphClass: 2
Flags: HMW
LayerCount: 2
Fore
SplineSet
62 592 m 1
 13 629 l 1
 38 700 75 764 127 819 c 0
 179 874 230 902 278 902 c 0
 326 902 362 885 387 852 c 0
 412 819 429 766 439 693 c 2
 500 205 l 1
 505 162 l 1
 514 162 l 1
 590 276 636 354 651 395 c 0
 666 436 674 467 677 490 c 0
 680 513 681 545 681 585 c 0
 681 625 667 671 640 723 c 0
 613 775 581 817 546 848 c 1
 559 864 577 877 601 889 c 0
 625 901 649 906 672 906 c 0
 717 906 755 886 788 846 c 0
 821 806 837 760 837 707 c 0
 837 616 812 524 763 429 c 0
 714 334 628 206 504 46 c 1
 495 -33 475 -105 442 -170 c 0
 409 -235 367 -286 317 -324 c 0
 267 -362 219 -381 171 -381 c 0
 123 -381 85 -370 57 -349 c 0
 29 -328 15 -302 15 -270 c 2
 15 -265 l 1
 18 -236 23 -213 32 -195 c 0
 41 -177 57 -160 80 -141 c 1
 131 -189 182 -213 231 -212 c 0
 280 -211 316 -198 339 -170 c 0
 362 -142 374 -93 374 -24 c 0
 374 13 371 57 364 109 c 2
 300 610 l 2
 294 652 284 685 266 710 c 0
 248 735 229 748 208 748 c 0
 187 748 165 733 138 703 c 0
 111 673 85 635 62 592 c 1
EndSplineSet
Colour: ffff
EndChar

StartChar: z
Encoding: 122 122 90
Width: 790
VWidth: 1655
GlyphClass: 2
Flags: HMW
LayerCount: 2
Fore
SplineSet
577 858 m 1
 646 858 704 866 753 883 c 1
 771 855 l 1
 453 414 l 1
 253 113 l 1
 259 115 274 114 299 113 c 0
 324 112 349 107 374 97 c 0
 399 87 423 79 446 69 c 0
 469 60 488 56 502 56 c 2
 509 56 l 2
 517 56 525 58 535 63 c 0
 545 68 552 73 557 81 c 0
 567 94 571 110 572 129 c 0
 573 148 569 175 562 212 c 0
 555 249 547 280 539 303 c 1
 571 319 600 327 626 327 c 0
 628 327 636 325 654 322 c 0
 672 319 686 313 698 302 c 0
 710 291 717 281 721 269 c 0
 725 257 727 244 727 227 c 0
 727 155 697 93 636 42 c 0
 596 8 546 -10 487 -13 c 1
 476 -13 l 1
 472 -15 465 -16 452 -15 c 0
 439 -14 404 -10 345 -2 c 1
 269 10 209 16 166 16 c 0
 123 16 78 10 32 -2 c 1
 13 26 l 1
 283 395 l 1
 541 765 l 1
 530 763 517 762 502 762 c 0
 487 762 469 766 446 774 c 0
 423 782 399 790 375 800 c 0
 351 810 331 815 314 815 c 0
 271 815 248 776 244 699 c 1
 244 680 l 2
 244 647 247 615 253 583 c 1
 237 577 219 575 199 574 c 1
 144 574 106 596 86 641 c 0
 79 656 76 669 76 681 c 0
 76 693 76 700 78 702 c 1
 86 745 116 783 169 818 c 0
 222 853 278 872 337 877 c 1
 352 877 l 2
 401 877 455 871 515 859 c 1
 577 858 l 1
EndSplineSet
Colour: ffff
EndChar

StartChar: braceleft
Encoding: 123 123 91
Width: 667
VWidth: 1655
GlyphClass: 2
Flags: HMW
LayerCount: 2
Fore
SplineSet
457 -280 m 1
 453 -381 l 1
 348 -381 l 2
 277 -381 226 -361 196 -321 c 0
 166 -281 151 -220 151 -139 c 0
 151 -108 155 -53 164 25 c 0
 173 103 176 160 176 199 c 0
 176 311 140 373 69 385 c 1
 17 393 l 1
 30 492 l 1
 81 500 l 2
 126 508 162 531 190 572 c 0
 218 613 236 662 246 721 c 1
 269 874 291 993 312 1080 c 1
 327 1136 355 1181 395 1215 c 0
 435 1249 486 1266 549 1266 c 2
 650 1266 l 1
 629 1164 l 1
 547 1158 l 1
 494 1153 460 1076 446 925 c 0
 441 880 439 853 437 843 c 0
 435 833 434 818 431 797 c 0
 428 776 426 762 424 752 c 0
 422 742 420 729 416 711 c 0
 412 693 409 680 405 669 c 0
 401 658 396 646 390 630 c 0
 355 532 297 471 216 448 c 1
 214 442 l 1
 302 415 346 331 347 191 c 0
 347 155 343 95 333 11 c 0
 323 -73 319 -129 319 -158 c 0
 319 -232 340 -271 383 -275 c 1
 457 -280 l 1
EndSplineSet
Colour: ffff
EndChar

StartChar: bar
Encoding: 124 124 92
Width: 338
VWidth: 1655
GlyphClass: 2
Flags: HMW
LayerCount: 2
Fore
SplineSet
130 -355 m 1
 17 -343 l 1
 209 1229 l 1
 321 1218 l 1
 130 -355 l 1
EndSplineSet
Colour: ffff
EndChar

StartChar: braceright
Encoding: 125 125 93
Width: 673
VWidth: 1655
GlyphClass: 2
Flags: HMW
LayerCount: 2
Fore
SplineSet
326 686 m 2
 326 706 l 2
 326 753 330 816 341 894 c 0
 352 972 357 1024 357 1053 c 0
 357 1120 339 1155 302 1158 c 2
 220 1164 l 1
 225 1266 l 1
 326 1266 l 2
 396 1266 446 1246 477 1205 c 0
 508 1164 523 1104 523 1026 c 0
 523 985 519 926 510 850 c 0
 501 774 498 722 498 693 c 0
 498 578 535 514 608 500 c 1
 655 492 l 1
 643 393 l 1
 590 385 l 1
 547 377 511 354 484 314 c 0
 457 274 440 224 432 165 c 0
 409 11 386 -109 363 -195 c 0
 347 -252 320 -296 278 -330 c 0
 236 -364 183 -381 120 -381 c 2
 17 -381 l 1
 39 -280 l 1
 113 -275 l 1
 172 -270 209 -192 227 -40 c 0
 245 107 260 200 276 239 c 0
 292 278 306 311 322 336 c 0
 357 390 402 425 459 442 c 1
 459 448 l 1
 370 473 326 552 326 686 c 2
EndSplineSet
Colour: ffff
EndChar

StartChar: asciitilde
Encoding: 126 126 94
Width: 860
VWidth: 1655
GlyphClass: 2
Flags: HMW
LayerCount: 2
Fore
SplineSet
21 416 m 1
 23 423 26 430 31 440 c 0
 63 514 104 566 154 595 c 0
 177 609 200 616 224 616 c 2
 230 616 l 1
 232 614 234 614 238 615 c 1
 680 571 l 1
 685 571 l 2
 706 571 731 586 760 616 c 2
 775 631 l 1
 840 631 l 1
 833 611 822 589 806 562 c 0
 790 535 774 513 758 495 c 0
 742 477 724 462 701 448 c 0
 678 434 654 427 631 427 c 2
 615 427 l 1
 171 472 l 1
 166 472 l 2
 142 472 116 455 88 421 c 1
 74 402 l 1
 21 416 l 1
EndSplineSet
Colour: ffff
EndChar

StartChar: exclamdown
Encoding: 161 161 96
Width: 341
VWidth: 1655
GlyphClass: 2
Flags: HMW
LayerCount: 2
Fore
SplineSet
152.767 755 m 0
 141.767 761 131.767 770 120.767 783 c 0
 109.767 796 105.767 807 102.767 818 c 0
 99.7666 829 98.7666 836 98.7666 841 c 0
 98.7666 846 100.767 861 106.767 888 c 0
 112.767 915 126.767 939 149.767 962 c 0
 172.767 985 199.767 996 229.767 996 c 1
 256.767 994 276.767 985 292.767 969 c 0
 308.767 953 316.767 937 319.767 919 c 0
 322.767 901 323.767 892 323.767 890 c 0
 323.767 888 322.767 876 317.767 853 c 0
 312.767 830 299.767 808 276.767 785 c 0
 253.767 762 230.767 749 206.767 748 c 0
 182.767 747 163.767 749 152.767 755 c 0
281.767 -296 m 1
 250.767 -318 214.767 -329 173.767 -328 c 0
 132.767 -327 99.7666 -316 73.7666 -293 c 0
 47.7666 -270 30.7666 -236 22.7666 -191 c 1
 17.7666 -171 15.7666 -149 17.7666 -123 c 1
 17.7666 -48 35.7666 81 70.7666 263 c 1
 146.767 623 l 1
 217.767 636 l 1
 206.767 467 l 2
 200.767 381 198.767 275 198.767 150 c 2
 198.767 88 l 1
 203.767 -61 230.767 -189 281.767 -296 c 1
EndSplineSet
Colour: ffff
EndChar

StartChar: cent
Encoding: 162 162 97
Width: 652
VWidth: 0
GlyphClass: 2
Flags: HMW
LayerCount: 2
Fore
SplineSet
422.595 1114 m 1
 571.275 1131 l 1
 513.164 895.972 l 1
 591.363 881.446 635 828.738 635 756 c 0
 635 687 570 649 496 642 c 1
 491 710 473 806 417 806 c 0
 320 806 189 621 189 330 c 0
 189 191 234 92 341 92 c 0
 424 92 474 122 524 157 c 1
 548 106 l 1
 492.45 36.7898 396.264 -19.1515 306.265 -28.5947 c 1
 300.573 -250 l 1
 150.05 -266 l 1
 212.351 -22.1121 l 1
 90.373 8.05969 17 123.749 17 307 c 0
 17 638.893 244.358 855.472 415.067 893.87 c 1
 417.576 967.247 420.086 1040.62 422.595 1114 c 1
EndSplineSet
Colour: ffff
EndChar

StartChar: sterling
Encoding: 163 163 98
Width: 1080
VWidth: 1655
GlyphClass: 2
Flags: HMW
LayerCount: 2
Fore
SplineSet
939 877 m 1
 859 890 l 1
 841 1099 l 1
 814 1115 788 1122 761 1122 c 0
 682 1122 626 1092 595 1032 c 1
 561 971 532 857 507 690 c 2
 500 643 l 1
 719 655 l 1
 696 557 l 1
 489 543 l 1
 482 505 l 1
 455 309 417 173 370 98 c 1
 823 94 l 1
 981 341 l 1
 1063 323 l 1
 986 0 l 1
 17 0 l 1
 36 73 l 1
 201 118 l 1
 230 183 258 294 283 451 c 1
 293 537 l 1
 117 527 l 1
 143 627 l 1
 310 636 l 1
 329 770 l 1
 352 918 403 1031 484 1108 c 0
 565 1185 666 1224 784 1224 c 0
 874 1224 949 1211 1009 1186 c 1
 939 877 l 1
EndSplineSet
Colour: ffff
EndChar

StartChar: currency
Encoding: 164 164 99
Width: 695
VWidth: 1655
GlyphClass: 2
Flags: HMW
LayerCount: 2
Fore
SplineSet
605 514 m 0
 605 442 584 382 542 334 c 1
 625 251 l 1
 528 170 l 1
 462 259 l 1
 406 228 356 212 310 212 c 0
 264 212 220 226 178 253 c 1
 91 165 l 1
 19 249 l 1
 110 325 l 1
 92 358 84 403 84 460 c 0
 84 517 103 568 140 615 c 1
 64 699 l 1
 157 780 l 1
 219 695 l 1
 272 734 327 753 382 752 c 0
 437 752 484 736 525 704 c 1
 614 781 l 1
 676 696 l 1
 584 623 l 1
 598 593 605 557 605 514 c 0
500 512 m 0
 500 557 488 592 463 618 c 0
 438 644 404 657 360 657 c 0
 316 657 278 641 247 609 c 0
 208 570 189 523 189 468 c 0
 189 413 200 373 224 347 c 0
 248 321 282 308 325 308 c 0
 368 307 406 323 439 354 c 0
 480 393 500 445 500 512 c 0
EndSplineSet
Colour: ffff
EndChar

StartChar: yen
Encoding: 165 165 100
Width: 1078
VWidth: 1655
GlyphClass: 2
Flags: HMW
LayerCount: 2
Fore
SplineSet
358 484 m 1
 51 484 l 1
 74 583 l 1
 341 583 l 1
 160 1133 l 1
 32 1176 l 1
 53 1252 l 1
 518 1252 l 1
 495 1176 l 1
 357 1137 l 1
 514 641 l 1
 795 1133 l 1
 641 1176 l 1
 662 1252 l 1
 1061 1252 l 1
 1041 1176 l 1
 913 1137 l 1
 588 583 l 1
 890 583 l 1
 867 484 l 1
 549 484 l 1
 529 339 l 1
 857 339 l 1
 834 242 l 1
 519 242 l 1
 502 113 l 1
 662 78 l 1
 643 0 l 1
 138 0 l 1
 158 72 l 1
 316 120 l 1
 329 242 l 1
 17 242 l 1
 42 339 l 1
 341 339 l 1
 358 484 l 1
EndSplineSet
Colour: ffff
EndChar

StartChar: brokenbar
Encoding: 166 166 101
Width: 333
VWidth: 1655
GlyphClass: 2
Flags: HMW
LayerCount: 2
Fore
SplineSet
123 529 m 1
 209 1229 l 1
 316 1218 l 1
 224 517 l 1
 123 529 l 1
17 -343 m 1
 111 423 l 1
 218 411 l 1
 124 -355 l 1
 17 -343 l 1
EndSplineSet
Colour: ffff
EndChar

StartChar: section
Encoding: 167 167 102
Width: 948
VWidth: 1655
GlyphClass: 2
Flags: HMW
LayerCount: 2
Fore
SplineSet
275.393 46 m 1
 255.393 -7 245.393 -56 246.393 -99 c 1
 246.393 -166 268.393 -214 313.393 -241 c 1
 342.393 -264 378.393 -276 421.393 -277 c 0
 464.393 -278 503.393 -266 538.393 -244 c 0
 573.393 -222 597.393 -191 612.393 -150 c 0
 620.393 -131 624.393 -110 622.393 -86 c 1
 622.393 -29 601.393 22 559.393 67 c 0
 547.393 81 506.393 117 433.393 176 c 0
 360.393 235 301.393 291 254.393 346 c 1
 222.393 386 200.393 421 187.393 452 c 0
 174.393 483 169.393 508 169.393 528 c 0
 169.393 548 169.393 558 170.393 561 c 1
 170.393 574 l 1
 174.393 607 182.393 641 197.393 676 c 1
 506.393 414 662.393 281 666.393 277 c 0
 715.393 232 752.393 191 777.393 152 c 0
 802.393 113 816.393 68 821.393 19 c 1
 823.393 14 823.393 4 823.393 -12 c 0
 823.393 -95 792.393 -170 729.393 -237 c 0
 683.393 -286 628.393 -322 564.393 -345 c 0
 500.393 -368 439.393 -380 381.393 -380 c 0
 277.393 -380 192.393 -356 125.393 -307 c 1
 96.3926 -288 72.3926 -263 52.3926 -231 c 0
 32.3926 -199 22.3926 -172 19.3926 -149 c 1
 17.3926 -145 16.3926 -137 17.3926 -123 c 0
 18.3926 -109 20.3926 -92 25.3926 -72 c 1
 42.3926 -20 77.3926 17 130.393 39 c 1
 153.393 50 178.393 55 204.393 56 c 0
 230.393 57 254.393 53 275.393 46 c 1
866.393 832 m 1
 778.393 851 l 1
 771.393 1101 l 1
 739.393 1144 699.393 1170 652.393 1179 c 1
 639.393 1183 626.393 1184 612.393 1184 c 0
 566.393 1184 525.393 1169 487.393 1139 c 0
 449.393 1109 429.393 1068 425.393 1016 c 1
 425.393 1005 l 2
 425.393 956 438.393 914 463.393 878 c 0
 488.393 842 532.393 799 594.393 749 c 0
 656.393 699 705.393 658 742.393 623 c 0
 779.393 588 810.393 552 837.393 513 c 0
 864.393 474 881.393 429 888.393 376 c 1
 890.393 371 891.393 353 890.393 322 c 0
 889.393 291 881.393 258 864.393 225 c 1
 544.393 493 l 1
 439.393 577 361.393 650 310.393 712 c 0
 259.393 774 233.393 839 233.393 906 c 0
 233.393 911 233.393 914 234.393 918 c 1
 234.393 928 l 1
 238.393 969 249.393 1007 269.393 1043 c 0
 304.393 1109 354.393 1163 421.393 1206 c 0
 488.393 1249 558.393 1272 633.393 1278 c 1
 657.393 1278 l 2
 762.393 1278 854.393 1245 931.393 1178 c 1
 866.393 832 l 1
EndSplineSet
Colour: ffff
EndChar

StartChar: dieresis
Encoding: 168 168 103
Width: 512
VWidth: 1655
GlyphClass: 2
Flags: HMW
LayerCount: 2
Fore
SplineSet
184 1490 m 0
 201 1475 208 1457 208 1434 c 0
 208 1411 201 1393 184 1378 c 0
 167 1363 147 1356 124 1356 c 0
 101 1356 83 1363 66 1378 c 0
 49 1393 41 1412 41 1435 c 0
 41 1458 49 1475 66 1490 c 0
 83 1505 101 1512 124 1512 c 0
 147 1512 167 1505 184 1490 c 0
446 1490 m 0
 463 1475 471 1457 471 1435 c 0
 471 1413 463 1393 446 1378 c 0
 429 1363 409 1356 386 1356 c 0
 363 1356 345 1363 328 1378 c 0
 311 1393 303 1412 303 1435 c 0
 303 1458 311 1475 328 1490 c 0
 345 1505 363 1512 386 1512 c 0
 409 1512 429 1505 446 1490 c 0
EndSplineSet
Colour: ffff
EndChar

StartChar: copyright
Encoding: 169 169 104
Width: 1289
VWidth: 1655
GlyphClass: 2
Flags: HMW
LayerCount: 2
Fore
SplineSet
204 908 m 0
 160 824 139 730 139 627 c 0
 139 524 160 430 203 346 c 0
 246 262 304 196 380 149 c 0
 456 102 535 78 618 78 c 0
 701 78 775 91 838 118 c 0
 901 145 956 182 1002 230 c 0
 1048 278 1084 335 1111 402 c 0
 1138 469 1152 540 1152 615 c 0
 1152 767 1111 898 1030 1008 c 0
 989 1063 934 1106 866 1137 c 0
 798 1168 720 1184 633 1184 c 0
 546 1184 463 1159 386 1109 c 0
 309 1059 248 992 204 908 c 0
630 -28 m 0
 542 -28 459 -11 383 22 c 0
 307 55 242 101 189 158 c 0
 136 215 94 284 64 364 c 0
 34 444 18 531 18 622 c 0
 18 713 35 800 69 882 c 0
 103 964 147 1035 204 1093 c 0
 261 1151 328 1198 404 1233 c 0
 480 1268 562 1285 652 1285 c 0
 742 1285 828 1267 909 1232 c 0
 990 1197 1057 1149 1111 1087 c 1
 1219 958 1273 804 1272 625 c 0
 1272 539 1256 455 1222 375 c 0
 1188 295 1143 226 1087 167 c 0
 1031 108 962 62 882 26 c 0
 802 -10 718 -28 630 -28 c 0
500 421 m 0
 549 366 615 338 697 338 c 0
 779 338 849 361 907 408 c 1
 916 399 925 383 935 360 c 1
 858 286 763 249 651 249 c 0
 583 249 521 264 466 294 c 0
 411 324 366 367 332 425 c 0
 298 483 282 548 282 623 c 0
 282 771 340 886 456 971 c 1
 520 1016 596 1039 684 1038 c 0
 772 1037 843 1016 897 975 c 1
 881 780 l 1
 828 786 l 1
 806 916 l 1
 778 951 728 968 655 967 c 0
 582 966 525 940 485 886 c 0
 445 832 426 756 426 655 c 0
 426 554 451 476 500 421 c 0
EndSplineSet
Colour: ffff
EndChar

StartChar: ordfeminine
Encoding: 170 170 105
Width: 701
VWidth: 0
GlyphClass: 2
Flags: HMW
LayerCount: 2
Fore
SplineSet
197.12 700.979 m 0
 197.12 665.387 215.447 631.2 269.611 631.2 c 0
 329.111 631.2 367.417 679.8 400.155 709.4 c 1
 425.506 874.4 l 1
 266.878 846.688 197.12 793.795 197.12 700.979 c 0
435.787 932 m 1
 441.172 966 l 2
 457.777 1074 464.919 1169.6 362.97 1169.6 c 0
 292.919 1169.6 272.113 1114 238.21 977.6 c 1
 157.306 970 115.673 1004 115.673 1066 c 0
 115.673 1168 317.237 1254 434.537 1254 c 0
 585.837 1254 632.091 1177 605.588 1008.4 c 2
 564.345 748 l 2
 552.688 674.4 568.306 648 641.615 634.8 c 2
 682.975 627.6 l 1
 662.137 565.8 l 1
 615.458 529 589.369 519.6 539.22 519.6 c 0
 431.19 519.6 397.447 582.606 406.349 638.8 c 1
 396.999 638.8 l 1
 367.333 596.4 303.86 514.8 164.459 514.8 c 0
 83.7344 514.8 20 573.613 20 654.585 c 0
 20 796.262 148.046 932 435.787 932 c 1
EndSplineSet
Colour: ffff
EndChar

StartChar: guillemotleft
Encoding: 171 171 106
Width: 645
VWidth: 0
GlyphClass: 2
Flags: HMW
LayerCount: 2
Fore
SplineSet
21 469 m 1
 344 821 l 1
 379 761 l 1
 166 461 l 1
 283 140 l 1
 220 78 l 1
 19 449 l 1
 21 469 l 1
268 469 m 1
 592 821 l 1
 627 761 l 1
 414 461 l 1
 531 140 l 1
 468 78 l 1
 267 449 l 1
 268 469 l 1
EndSplineSet
Colour: ffff
EndChar

StartChar: logicalnot
Encoding: 172 172 107
Width: 816
VWidth: 0
GlyphClass: 2
Flags: HMW
LayerCount: 2
Fore
SplineSet
50 664 m 1
 795 664 l 1
 747 350 l 1
 638 332 l 1
 674 558 l 1
 22 558 l 1
 50 664 l 1
EndSplineSet
Colour: ffff
EndChar

StartChar: softhyphen
Encoding: 173 173 108
Width: 489
VWidth: 0
GlyphClass: 2
Flags: HMW
LayerCount: 2
Fore
SplineSet
48 522 m 1
 466 581 l 1
 440 466 l 1
 22 406 l 1
 48 522 l 1
EndSplineSet
Colour: ffff
EndChar

StartChar: registered
Encoding: 174 174 109
Width: 1010
VWidth: 0
GlyphClass: 2
Flags: HMW
LayerCount: 2
Fore
SplineSet
106 1036.5 m 0
 106 776 277 616.5 495 616.5 c 0
 723 616.5 904 784 904 1016.5 c 0
 904 1280 723 1446.5 497 1446.5 c 0
 275 1446.5 106 1300 106 1036.5 c 0
18 1022.5 m 0
 18 1344 229 1522.5 497 1522.5 c 0
 773 1522.5 992 1352 992 1026.5 c 0
 992 716 769 540.5 487 540.5 c 0
 225 540.5 18 724 18 1022.5 c 0
431.9 1068.5 m 1
 510.65 1068.5 l 1
 550.25 1085.6 582.2 1117.1 582.2 1170.2 c 0
 582.2 1232.75 539 1271.8 466.1 1271.8 c 0
 448.1 1271.8 434.6 1270.45 431.9 1270.45 c 1
 431.9 1068.5 l 1
218.15 776.9 m 1
 224.9 824.601 l 1
 305 852.95 l 1
 305 1248.5 l 1
 223.55 1265.6 l 1
 228.5 1319.15 l 1
 294.2 1329.5 407.6 1341.2 474.2 1341.2 c 0
 626.75 1341.2 719 1304.3 719 1193.6 c 0
 719 1123.4 660.15 1051.3 593.55 1027.9 c 1
 592.9 1026 l 1
 670.5 935.2 l 2
 720.9 877 739.979 862.651 790.2 839.4 c 2
 806.4 831.9 l 1
 796.05 776.9 l 1
 776.7 770.601 745.5 766.101 714 766.101 c 0
 623.1 766.101 581.404 822.362 531.5 917.5 c 2
 487.7 1001 l 1
 431.9 1001 l 1
 431.9 857 l 1
 506.15 830.45 l 1
 501.2 776.9 l 1
 218.15 776.9 l 1
EndSplineSet
Colour: ffff
EndChar

StartChar: macron
Encoding: 175 175 110
Width: 527
VWidth: 1655
GlyphClass: 2
Flags: HMW
LayerCount: 2
Fore
SplineSet
54 1450 m 1
 486 1450 l 1
 473 1351 l 1
 41 1351 l 1
 54 1450 l 1
EndSplineSet
Colour: ffff
EndChar

StartChar: degree
Encoding: 176 176 111
Width: 374
VWidth: 1655
GlyphClass: 2
Flags: HMW
LayerCount: 2
Fore
SplineSet
120 1210 m 0
 105 1189 98 1160 98 1126 c 0
 98 1092 106 1062 123 1037 c 0
 140 1012 163 999 192 999 c 0
 251 999 280 1037 281 1113 c 0
 281 1150 272 1181 254 1205 c 0
 236 1229 213 1241 185 1241 c 0
 157 1241 135 1231 120 1210 c 0
309 1243 m 0
 337 1213 350 1173 350 1125 c 0
 350 1077 334 1036 303 1002 c 0
 272 968 232 951 184 951 c 0
 136 951 98 966 69 996 c 0
 40 1026 26 1065 26 1114 c 0
 26 1163 43 1203 76 1237 c 0
 109 1271 150 1288 197 1288 c 0
 244 1288 281 1273 309 1243 c 0
EndSplineSet
Colour: ffff
EndChar

StartChar: plusminus
Encoding: 177 177 112
Width: 699
VWidth: 0
GlyphClass: 2
Flags: HMW
LayerCount: 2
Fore
SplineSet
34.5273 117 m 1
 646.419 124 l 1
 629.891 20 l 1
 18 13 l 1
 34.5273 117 l 1
446.229 494 m 1
 418.229 255 l 1
 309.229 267 l 1
 337.229 494 l 1
 113.229 494 l 1
 138.229 595 l 1
 347.229 595 l 1
 377.229 828 l 1
 483.229 815 l 1
 458.229 595 l 1
 681.229 595 l 1
 655.229 494 l 1
 446.229 494 l 1
EndSplineSet
Colour: ffff
EndChar

StartChar: two.superior
Encoding: 178 178 113
Width: 670
VWidth: 0
GlyphClass: 2
Flags: HMW
LayerCount: 2
Fore
SplineSet
44.9463 638 m 1
 219.427 761 l 1
 356.842 860.438 445.742 928.414 445.742 1056.71 c 0
 445.742 1109.26 426.824 1153 355.514 1153 c 0
 306.514 1153 262.396 1127 242.328 1095 c 1
 199.896 966 l 1
 132.688 971 l 1
 144.614 1141 l 1
 197.809 1218 334.986 1257 435.986 1257 c 0
 573.925 1257 650.277 1201.73 650.277 1104.38 c 0
 650.277 922.489 460.202 804.898 277.132 696 c 2
 203.164 652 l 1
 473.164 652 l 1
 576.396 805 l 1
 630.071 784 l 1
 571 531 l 1
 20 531 l 1
 44.9463 638 l 1
EndSplineSet
Colour: ffff
EndChar

StartChar: three.superior
Encoding: 179 179 114
Width: 642
VWidth: 0
GlyphClass: 2
Flags: HMW
LayerCount: 2
Fore
SplineSet
19 563 m 1
 80.5166 762 l 1
 154.251 754 l 1
 140.869 619 l 1
 155.543 598 190.534 579 233.534 579 c 0
 327.181 579 407.836 639.22 407.836 733.142 c 0
 407.836 797.666 336.164 849 223.298 849 c 1
 216.642 908 l 1
 271.352 924.291 428.06 975.102 428.06 1092.15 c 0
 428.06 1141.95 400.868 1189 338.148 1189 c 0
 307.148 1189 275.673 1186 251.664 1167 c 1
 202.798 1010 l 1
 127.748 1016 l 1
 142.831 1187 l 1
 180.801 1231 303.402 1279 406.402 1279 c 0
 531.11 1279 622.648 1231.21 622.648 1140.37 c 0
 622.648 1018.9 514.814 955.477 411.651 927 c 1
 410.543 920 l 1
 538.426 906.55 601.93 852.098 601.93 766.735 c 0
 601.93 604.157 409.867 495 216.229 495 c 0
 121.229 495 32.3477 521 19 563 c 1
EndSplineSet
Colour: ffff
EndChar

StartChar: acute
Encoding: 180 180 115
Width: 310
VWidth: 1655
GlyphClass: 2
Flags: HMW
LayerCount: 2
Fore
SplineSet
270 1633 m 1
 90 1322 l 1
 40 1352 l 1
 159 1671 l 1
 270 1633 l 1
EndSplineSet
Colour: ffff
EndChar

StartChar: micro
Encoding: 181 181 116
Width: 946
VWidth: 1655
GlyphClass: 2
Flags: HMW
LayerCount: 2
Fore
SplineSet
179 738 m 1
 48 792 l 1
 71 874 l 1
 343 895 l 1
 363 871 l 1
 295 317 l 2
 293 299 292 282 291 264 c 1
 291 159 336 107 426 106 c 0
 453 106 474 108 489 114 c 0
 504 120 514 123 521 125 c 0
 528 127 538 132 550 140 c 0
 562 148 569 152 573 154 c 0
 600 170 616 180 623 188 c 1
 689 734 l 1
 534 775 l 1
 555 867 l 1
 855 895 l 1
 871 871 l 1
 793 214 l 1
 790 178 l 1
 790 144 798 122 817 111 c 0
 836 100 858 94 885 88 c 2
 929 78 l 1
 909 -7 l 1
 852 -20 802 -26 758 -26 c 0
 714 -26 680 -15 658 7 c 0
 636 29 625 59 625 98 c 0
 625 103 625 106 627 108 c 1
 627 121 l 2
 627 123 627 123 628 125 c 1
 628 129 l 1
 616 129 l 1
 509 26 406 -26 307 -26 c 0
 245 -26 201 -4 175 39 c 1
 169 39 l 1
 169 -16 l 2
 169 -51 169 -74 167 -86 c 1
 147 -390 l 1
 17 -364 l 1
 80 -2 124 284 149 495 c 1
 179 738 l 1
EndSplineSet
Colour: ffff
EndChar

StartChar: paragraph
Encoding: 182 182 117
Width: 1295
VWidth: 0
GlyphClass: 2
Flags: HMW
LayerCount: 2
Fore
SplineSet
760.924 0 m 1
 958.114 1245 l 1
 1278.11 1245 l 1
 1256.91 1168 l 1
 1080.89 1130 l 1
 919.984 114 l 1
 1095.59 80 l 1
 1072.92 0 l 1
 760.924 0 l 1
533.112 1245 m 2
 879.114 1245 l 1
 681.924 0 l 1
 275.924 0 l 1
 294.645 74 l 1
 543.088 121 l 1
 706.383 1152 l 1
 666.541 1153 609.699 1154 599.699 1154 c 0
 367.019 1154 229.166 1039.23 229.166 816.553 c 0
 229.166 675.835 308.32 546 497.402 546 c 1
 463.88 448 l 1
 226.015 448 18 551.091 18 785.08 c 0
 18 1071.96 273.218 1245 533.112 1245 c 2
EndSplineSet
Colour: ffff
EndChar

StartChar: periodcentered
Encoding: 183 183 118
Width: 287
VWidth: 1655
GlyphClass: 2
Flags: HMW
LayerCount: 2
Fore
SplineSet
59 419 m 0
 35 444 23 473 23 507 c 0
 23 541 35 568 58 589 c 0
 81 610 110 620 143 620 c 0
 176 620 204 608 228 586 c 0
 252 564 264 537 264 504 c 0
 264 471 252 443 228 418 c 0
 204 393 176 381 143 381 c 0
 110 381 83 394 59 419 c 0
EndSplineSet
Colour: ffff
EndChar

StartChar: cedilla
Encoding: 184 184 119
Width: 266
VWidth: 1655
GlyphClass: 2
Flags: HMW
LayerCount: 2
Fore
SplineSet
153 -75 m 1
 212 -126 241 -174 240 -221 c 1
 240 -290 175 -343 45 -381 c 1
 25 -323 l 1
 81 -303 109 -276 109 -242 c 0
 109 -215 85 -179 38 -134 c 1
 133 3 l 1
 207 3 l 1
 153 -75 l 1
EndSplineSet
Colour: ffff
EndChar

StartChar: one.superior
Encoding: 185 185 120
Width: 541
VWidth: 0
GlyphClass: 2
Flags: HMW
LayerCount: 2
Fore
SplineSet
20 531 m 1
 35.7188 605 l 1
 192.679 630 l 1
 270.604 1122 l 1
 125.604 1122 l 1
 141.8 1199 l 1
 451.085 1245 l 1
 470.085 1245 l 1
 372.204 627 l 1
 522.145 614 l 1
 503 531 l 1
 20 531 l 1
EndSplineSet
Colour: ffff
EndChar

StartChar: ordmasculine
Encoding: 186 186 121
Width: 759
VWidth: 0
GlyphClass: 2
Flags: HMW
LayerCount: 2
Fore
SplineSet
195.628 810.639 m 0
 195.628 691.238 223.446 593.6 349.152 593.6 c 0
 506.234 593.6 562.444 784.34 562.444 948.204 c 0
 562.444 1067.75 527.084 1175 407.195 1175 c 0
 244.511 1175 195.628 984.086 195.628 810.639 c 0
456.199 1258 m 0
 638.466 1258 740.084 1144.33 740.084 969.448 c 0
 740.084 697.528 536.487 514 317.961 514 c 0
 121.206 514 20 634.545 20 802.837 c 0
 20 1090.28 251.548 1258 456.199 1258 c 0
EndSplineSet
Colour: ffff
EndChar

StartChar: guillemotright
Encoding: 187 187 122
Width: 645
VWidth: 0
GlyphClass: 2
Flags: HMW
LayerCount: 2
Fore
SplineSet
625 430 m 1
 302 78 l 1
 267 138 l 1
 480 438 l 1
 363 759 l 1
 426 821 l 1
 627 450 l 1
 625 430 l 1
378 430 m 1
 54 78 l 1
 19 138 l 1
 232 438 l 1
 115 759 l 1
 178 821 l 1
 379 450 l 1
 378 430 l 1
EndSplineSet
Colour: ffff
EndChar

StartChar: onequarter
Encoding: 188 188 123
Width: 1344
VWidth: 0
GlyphClass: 2
Flags: HMW
LayerCount: 2
Fore
SplineSet
143 -10 m 1
 644 588 l 1
 1134 1210 l 1
 1309 1207 l 1
 1303 1178 l 1
 809 591 l 1
 339 -32 l 1
 143 -10 l 1
17 531 m 1
 33 605 l 1
 190 630 l 1
 268 1122 l 1
 123 1122 l 1
 139 1199 l 1
 448 1245 l 1
 467 1245 l 1
 370 627 l 1
 519 614 l 1
 500 531 l 1
 17 531 l 1
828 272 m 1
 1018 272 l 1
 1056 508 l 1
 828 272 l 1
721 270 m 1
 1205 737 l 1
 1260 726 l 1
 1240 641 1222 542 1204 430 c 2
 1179 272 l 1
 1327 272 l 1
 1303 175 l 1
 1164 175 l 1
 1149 83 l 1
 1268 65 l 1
 1251 0 l 1
 837 0 l 1
 850 58 l 1
 991 85 l 1
 1006 178 l 1
 719 178 l 1
 721 270 l 1
EndSplineSet
Colour: ffff
EndChar

StartChar: onehalf
Encoding: 189 189 124
Width: 1417
VWidth: 0
GlyphClass: 2
Flags: HMW
LayerCount: 2
Fore
SplineSet
123 -10 m 1
 624 588 l 1
 1114 1210 l 1
 1289 1207 l 1
 1283 1178 l 1
 789 591 l 1
 319 -32 l 1
 123 -10 l 1
17 531 m 1
 33 605 l 1
 190 630 l 1
 268 1122 l 1
 123 1122 l 1
 139 1199 l 1
 448 1245 l 1
 467 1245 l 1
 370 627 l 1
 519 614 l 1
 500 531 l 1
 17 531 l 1
794 109 m 1
 969 232 l 2
 1003 256 1028 276 1046 290 c 0
 1064 304 1085 320 1107 341 c 0
 1129 362 1145 381 1156 398 c 0
 1167 415 1176 433 1184 456 c 0
 1192 479 1195 503 1195 528 c 0
 1195 592 1165 624 1105 624 c 0
 1081 624 1059 618 1038 607 c 0
 1017 596 1002 583 991 566 c 1
 949 437 l 1
 882 442 l 1
 894 612 l 1
 919 648 960 676 1017 697 c 0
 1074 718 1130 728 1185 728 c 0
 1254 728 1307 715 1344 688 c 0
 1381 661 1400 624 1400 575 c 0
 1400 550 1396 526 1388 501 c 0
 1380 476 1370 454 1358 434 c 0
 1346 414 1331 394 1310 372 c 0
 1289 350 1269 333 1251 317 c 0
 1233 301 1209 284 1180 264 c 0
 1151 244 1125 228 1105 215 c 0
 1085 202 1060 187 1027 167 c 2
 952 123 l 1
 1222 123 l 1
 1326 276 l 1
 1379 255 l 1
 1320 2 l 1
 770 2 l 1
 794 109 l 1
EndSplineSet
Colour: ffff
EndChar

StartChar: threequarters
Encoding: 190 190 125
Width: 1320
VWidth: 0
GlyphClass: 2
Flags: HMW
LayerCount: 2
Fore
SplineSet
804 272 m 1
 994 272 l 1
 1032 508 l 1
 804 272 l 1
697 270 m 1
 1181 737 l 1
 1236 726 l 1
 1216 641 1198 542 1180 430 c 2
 1155 272 l 1
 1303 272 l 1
 1279 175 l 1
 1140 175 l 1
 1125 83 l 1
 1244 65 l 1
 1227 0 l 1
 813 0 l 1
 826 58 l 1
 967 85 l 1
 982 178 l 1
 695 178 l 1
 697 270 l 1
132 -10 m 1
 634 588 l 1
 1124 1210 l 1
 1299 1207 l 1
 1293 1178 l 1
 799 591 l 1
 329 -32 l 1
 132 -10 l 1
17 546 m 1
 78 745 l 1
 152 737 l 1
 138 602 l 1
 146 591 158 582 175 574 c 0
 192 566 210 562 231 562 c 0
 279 562 321 576 355 605 c 0
 389 634 405 670 405 716 c 0
 405 749 389 777 355 799 c 0
 321 821 276 832 221 832 c 1
 214 891 l 1
 230 896 244 900 258 905 c 0
 272 910 289 918 311 929 c 0
 333 940 353 951 368 964 c 0
 383 977 396 992 408 1012 c 0
 420 1032 425 1053 425 1075 c 0
 425 1102 418 1125 403 1144 c 0
 388 1163 365 1172 335 1172 c 0
 296 1172 268 1165 249 1150 c 1
 200 993 l 1
 125 999 l 1
 140 1170 l 1
 160 1193 197 1214 250 1233 c 0
 303 1252 354 1262 404 1262 c 0
 468 1262 520 1250 560 1226 c 0
 600 1202 620 1167 620 1123 c 0
 620 1094 614 1067 602 1043 c 0
 590 1019 574 998 553 981 c 0
 532 964 510 951 486 939 c 0
 462 927 437 918 409 910 c 1
 408 903 l 1
 471 896 519 880 551 854 c 0
 583 828 600 793 600 750 c 0
 600 698 581 650 543 608 c 0
 505 566 457 534 399 512 c 0
 341 490 278 478 213 478 c 0
 164 478 121 484 83 497 c 0
 45 510 24 525 17 546 c 1
EndSplineSet
Colour: ffff
EndChar

StartChar: questiondown
Encoding: 191 191 126
Width: 585
VWidth: 1655
GlyphClass: 2
Flags: HMW
LayerCount: 2
Fore
SplineSet
488 453 m 1
 493 401 l 1
 493 361 481 326 458 295 c 0
 435 264 413 241 389 225 c 0
 365 209 334 195 297 180 c 0
 260 165 232 152 214 141 c 0
 196 130 177 113 158 91 c 0
 139 69 128 43 124 14 c 1
 124 7 l 1
 122 3 122 1 123 -3 c 1
 123 -56 147 -101 195 -136 c 1
 215 -149 237 -156 260 -160 c 1
 270 -160 l 1
 272 -162 277 -162 285 -162 c 0
 293 -162 310 -159 336 -151 c 0
 395 -135 438 -114 464 -89 c 1
 475 -94 485 -101 495 -113 c 0
 513 -133 521 -151 521 -169 c 0
 521 -187 521 -196 519 -200 c 1
 511 -248 480 -285 425 -311 c 0
 393 -327 359 -334 324 -334 c 2
 302 -334 l 1
 243 -330 192 -312 148 -278 c 0
 104 -244 71 -199 49 -146 c 0
 27 -93 17 -44 17 -1 c 0
 17 42 19 73 24 93 c 0
 37 156 70 211 124 258 c 1
 155 283 177 299 192 305 c 0
 215 315 229 319 234 321 c 0
 239 323 244 325 251 328 c 0
 258 331 261 331 263 332 c 0
 265 333 268 334 274 337 c 0
 280 340 282 341 285 343 c 0
 289 345 289 345 296 349 c 0
 301 352 304 353 307 355 c 0
 310 357 313 359 317 362 c 0
 327 370 336 380 347 392 c 0
 365 412 374 443 374 484 c 2
 374 505 l 1
 372 512 372 517 372 521 c 0
 372 525 371 542 368 571 c 1
 444 587 l 1
 468 528 482 484 488 453 c 1
364 778 m 1
 354 791 350 802 347 813 c 0
 344 824 343 831 343 836 c 0
 343 841 345 857 351 884 c 0
 357 911 371 937 394 959 c 0
 417 981 443 992 474 992 c 1
 501 990 521 981 536 964 c 0
 551 947 560 932 563 914 c 0
 566 896 568 887 568 885 c 0
 568 883 566 871 561 848 c 0
 556 825 543 803 520 780 c 0
 497 757 474 745 450 744 c 0
 426 743 410 745 399 750 c 0
 388 755 377 764 364 778 c 1
EndSplineSet
Colour: ffff
EndChar

StartChar: Agrave
Encoding: 192 192 127
Width: 1273
VWidth: 1655
GlyphClass: 2
Flags: HMW
LayerCount: 2
Fore
SplineSet
587 1655 m 1
 701 1693 l 1
 830 1365 l 1
 773 1332 l 1
 587 1655 l 1
866 1271 m 1
 1076 132 l 1
 1254 81 l 1
 1231 0 l 1
 655 0 l 1
 678 72 l 1
 876 108 l 1
 825 430 l 1
 533 446 l 1
 484 310 443 215 410 157 c 0
 377 99 347 56 319 29 c 0
 291 2 256 -16 217 -24 c 1
 199 -26 190 -27 186 -28 c 1
 148 -28 113 -16 81 8 c 0
 49 32 26 62 13 101 c 1
 63 120 108 142 147 168 c 0
 216 213 280 274 339 349 c 1
 416 450 489 596 558 786 c 1
 613 947 657 1098 688 1241 c 1
 866 1271 l 1
812 505 m 1
 724 1062 l 1
 720 1062 l 1
 623 724 l 1
 594 627 574 564 564 536 c 1
 812 505 l 1
EndSplineSet
Colour: ffff
EndChar

StartChar: Aacute
Encoding: 193 193 128
Width: 1273
VWidth: 1655
GlyphClass: 2
Flags: HMW
LayerCount: 2
Fore
SplineSet
1008 1661 m 1
 829 1351 l 1
 778 1382 l 1
 899 1701 l 1
 1008 1661 l 1
866 1271 m 1
 1076 132 l 1
 1254 81 l 1
 1231 0 l 1
 655 0 l 1
 678 72 l 1
 876 108 l 1
 825 430 l 1
 533 446 l 1
 484 310 443 215 410 157 c 0
 377 99 347 56 319 29 c 0
 291 2 256 -16 217 -24 c 1
 199 -26 190 -27 186 -28 c 1
 148 -28 113 -16 81 8 c 0
 49 32 26 62 13 101 c 1
 63 120 108 142 147 168 c 0
 216 213 280 274 339 349 c 1
 416 450 489 596 558 786 c 1
 613 947 657 1098 688 1241 c 1
 866 1271 l 1
812 505 m 1
 724 1062 l 1
 720 1062 l 1
 623 724 l 1
 594 627 574 564 564 536 c 1
 812 505 l 1
EndSplineSet
Colour: ffff
EndChar

StartChar: Acircumflex
Encoding: 194 194 129
Width: 1273
VWidth: 1655
GlyphClass: 2
Flags: HMW
LayerCount: 2
Fore
SplineSet
809 1577 m 1
 984 1396 l 1
 936 1361 l 1
 775 1468 l 1
 765 1468 l 1
 627 1359 l 1
 590 1388 l 1
 756 1564 l 1
 809 1577 l 1
866 1271 m 1
 1076 132 l 1
 1254 81 l 1
 1231 0 l 1
 655 0 l 1
 678 72 l 1
 876 108 l 1
 825 430 l 1
 533 446 l 1
 484 310 443 215 410 157 c 0
 377 99 347 56 319 29 c 0
 291 2 256 -16 217 -24 c 1
 199 -26 190 -27 186 -28 c 1
 148 -28 113 -16 81 8 c 0
 49 32 26 62 13 101 c 1
 63 120 108 142 147 168 c 0
 216 213 280 274 339 349 c 1
 416 450 489 596 558 786 c 1
 613 947 657 1098 688 1241 c 1
 866 1271 l 1
812 505 m 1
 724 1062 l 1
 720 1062 l 1
 623 724 l 1
 594 627 574 564 564 536 c 1
 812 505 l 1
EndSplineSet
Colour: ffff
EndChar

StartChar: Atilde
Encoding: 195 195 130
Width: 1273
VWidth: 1655
GlyphClass: 2
Flags: HMW
LayerCount: 2
Fore
SplineSet
655 1419 m 2
 638 1419 619 1403 597 1372 c 1
 559 1380 l 1
 561 1387 564 1397 568 1411 c 0
 572 1425 580 1441 594 1462 c 0
 619 1501 647 1521 680 1522 c 1
 687 1522 l 1
 689 1520 691 1520 693 1520 c 2
 911 1490 l 1
 915 1490 l 2
 929 1490 947 1504 969 1531 c 1
 1017 1529 l 1
 986 1435 943 1388 889 1388 c 2
 878 1388 l 1
 659 1419 l 1
 655 1419 l 2
866 1271 m 1
 1076 132 l 1
 1254 81 l 1
 1231 0 l 1
 655 0 l 1
 678 72 l 1
 876 108 l 1
 825 430 l 1
 533 446 l 1
 484 310 443 215 410 157 c 0
 377 99 347 56 319 29 c 0
 291 2 256 -16 217 -24 c 1
 199 -26 190 -27 186 -28 c 1
 148 -28 113 -16 81 8 c 0
 49 32 26 62 13 101 c 1
 63 120 108 142 147 168 c 0
 216 213 280 274 339 349 c 1
 416 450 489 596 558 786 c 1
 613 947 657 1098 688 1241 c 1
 866 1271 l 1
812 505 m 1
 724 1062 l 1
 720 1062 l 1
 623 724 l 1
 594 627 574 564 564 536 c 1
 812 505 l 1
EndSplineSet
Colour: ffff
EndChar

StartChar: Adieresis
Encoding: 196 196 131
Width: 1273
VWidth: 1655
GlyphClass: 2
Flags: HMW
LayerCount: 2
Fore
SplineSet
716 1519 m 0
 733 1504 740 1486 740 1464 c 0
 740 1442 733 1423 716 1408 c 0
 699 1393 679 1385 656 1385 c 0
 633 1385 615 1392 598 1408 c 0
 581 1424 573 1443 573 1465 c 0
 573 1488 581 1504 598 1519 c 0
 615 1534 633 1541 656 1541 c 0
 679 1541 699 1534 716 1519 c 0
978 1519 m 0
 995 1504 1003 1486 1003 1464 c 0
 1003 1442 995 1424 978 1408 c 0
 961 1392 941 1385 918 1385 c 0
 895 1385 875 1392 859 1408 c 0
 843 1424 835 1443 835 1465 c 0
 835 1488 843 1504 859 1519 c 0
 875 1534 895 1541 918 1541 c 0
 941 1541 961 1534 978 1519 c 0
866 1271 m 1
 1076 132 l 1
 1254 81 l 1
 1231 0 l 1
 655 0 l 1
 678 72 l 1
 876 108 l 1
 825 430 l 1
 533 446 l 1
 484 310 443 215 410 157 c 0
 377 99 347 56 319 29 c 0
 291 2 256 -16 217 -24 c 1
 199 -26 190 -27 186 -28 c 1
 148 -28 113 -16 81 8 c 0
 49 32 26 62 13 101 c 1
 63 120 108 142 147 168 c 0
 216 213 280 274 339 349 c 1
 416 450 489 596 558 786 c 1
 613 947 657 1098 688 1241 c 1
 866 1271 l 1
812 505 m 1
 724 1062 l 1
 720 1062 l 1
 623 724 l 1
 594 627 574 564 564 536 c 1
 812 505 l 1
EndSplineSet
Colour: ffff
EndChar

StartChar: Aring
Encoding: 197 197 132
Width: 1273
VWidth: 1655
GlyphClass: 2
Flags: HMW
LayerCount: 2
Fore
SplineSet
905 1649 m 0
 933 1619 948 1582 948 1535 c 0
 948 1488 932 1448 900 1414 c 0
 868 1380 829 1363 783 1363 c 0
 737 1363 699 1378 671 1408 c 0
 643 1438 629 1476 629 1523 c 0
 629 1570 645 1609 678 1643 c 0
 711 1677 750 1694 795 1694 c 0
 840 1694 877 1679 905 1649 c 0
722 1615 m 0
 706 1594 699 1568 699 1535 c 0
 699 1502 707 1473 725 1448 c 0
 743 1423 765 1410 792 1410 c 0
 848 1411 876 1448 878 1523 c 0
 878 1558 870 1587 852 1611 c 0
 834 1635 812 1647 785 1647 c 0
 758 1647 738 1636 722 1615 c 0
866 1271 m 1
 1076 132 l 1
 1254 81 l 1
 1231 0 l 1
 655 0 l 1
 678 72 l 1
 876 108 l 1
 825 430 l 1
 533 446 l 1
 484 310 443 215 410 157 c 0
 377 99 347 56 319 29 c 0
 291 2 256 -16 217 -24 c 1
 199 -26 190 -27 186 -28 c 1
 148 -28 113 -16 81 8 c 0
 49 32 26 62 13 101 c 1
 63 120 108 142 147 168 c 0
 216 213 280 274 339 349 c 1
 416 450 489 596 558 786 c 1
 613 947 657 1098 688 1241 c 1
 866 1271 l 1
812 505 m 1
 724 1062 l 1
 720 1062 l 1
 623 724 l 1
 594 627 574 564 564 536 c 1
 812 505 l 1
EndSplineSet
Colour: ffff
EndChar

StartChar: AE
Encoding: 198 198 133
Width: 1468
VWidth: 1655
GlyphClass: 2
Flags: HMW
LayerCount: 2
Fore
SplineSet
1439 430 m 1
 1444 412 1446 375 1446 317 c 0
 1446 187 1426 81 1386 0 c 1
 1359 0 l 2
 1328 0 1303 0 1282 2 c 1
 1057 2 l 2
 1004 2 965 2 941 3 c 1
 769 3 l 1
 516 -3 l 1
 539 80 l 1
 756 134 l 1
 746 432 l 1
 534 444 l 1
 483 307 440 208 405 146 c 1
 372 91 342 52 316 26 c 0
 290 0 262 -16 234 -21 c 0
 206 -26 191 -28 187 -28 c 0
 150 -28 115 -16 82 8 c 0
 49 32 27 63 13 101 c 1
 63 120 108 142 148 168 c 0
 214 210 277 270 338 349 c 1
 447 495 550 733 645 1066 c 0
 661 1119 675 1178 687 1241 c 1
 1430 1280 l 1
 1390 862 l 1
 1303 869 l 1
 1247 1125 l 1
 1217 1128 l 2
 1144 1135 1048 1139 929 1142 c 2
 897 1143 l 1
 917 681 l 1
 1284 698 l 1
 1245 557 l 1
 922 578 l 1
 950 101 l 1
 1035 108 l 1
 1149 120 1216 127 1237 132 c 1
 1257 157 1280 203 1305 270 c 0
 1330 337 1345 391 1352 434 c 1
 1439 430 l 1
744 507 m 1
 724 1064 l 1
 718 1064 l 1
 624 726 l 2
 608 671 588 607 563 534 c 1
 744 507 l 1
EndSplineSet
Colour: ffff
EndChar

StartChar: Ccedilla
Encoding: 199 199 134
Width: 971
VWidth: 1655
GlyphClass: 2
Flags: HMW
LayerCount: 2
Fore
SplineSet
535 -75 m 1
 594 -126 623 -174 622 -221 c 1
 622 -290 557 -343 427 -381 c 1
 407 -323 l 1
 463 -303 491 -276 492 -242 c 0
 492 -215 468 -179 420 -134 c 1
 494 -30 l 1
 471 -30 l 2
 432 -30 390 -24 345 -12 c 1
 252 17 176 71 115 151 c 0
 54 231 22 332 16 455 c 1
 16 471 l 1
 14 477 14 482 14 488 c 0
 14 707 85 899 227 1064 c 0
 337 1192 467 1255 617 1254 c 0
 765 1254 868 1197 927 1085 c 1
 945 1055 953 1021 952 982 c 1
 952 971 l 1
 951 932 939 897 915 865 c 0
 891 833 864 814 835 806 c 0
 806 798 784 794 767 794 c 0
 750 794 734 796 718 802 c 1
 727 847 731 885 731 917 c 0
 731 949 729 978 724 1005 c 0
 714 1058 680 1097 621 1123 c 1
 598 1132 569 1136 532 1134 c 0
 495 1132 456 1117 414 1087 c 0
 372 1057 338 1018 313 971 c 1
 270 894 245 785 236 641 c 0
 234 604 233 583 233 578 c 0
 233 405 277 278 365 196 c 0
 417 148 478 124 547 125 c 0
 589 125 629 133 668 149 c 0
 707 165 742 190 775 223 c 0
 808 256 831 285 847 310 c 1
 889 248 l 1
 875 213 855 177 826 142 c 0
 765 69 689 19 600 -10 c 0
 589 -14 581 -15 575 -16 c 1
 535 -75 l 1
EndSplineSet
Colour: ffff
EndChar

StartChar: Egrave
Encoding: 200 200 135
Width: 1221
VWidth: 1655
GlyphClass: 2
Flags: HMW
LayerCount: 2
Fore
SplineSet
604 1655 m 1
 717 1693 l 1
 846 1365 l 1
 790 1332 l 1
 604 1655 l 1
1063 0 m 1
 695 2 488 3 445 3 c 2
 13 -3 l 1
 36 80 l 1
 254 134 l 1
 379 1094 l 1
 152 1117 l 1
 172 1194 l 1
 245 1209 353 1221 498 1233 c 0
 643 1245 779 1250 905 1250 c 2
 978 1250 l 1
 1202 1246 l 1
 1122 835 l 1
 1036 848 l 1
 1004 1111 l 1
 976 1117 l 1
 875 1136 752 1145 607 1143 c 1
 574 1143 l 1
 519 680 l 1
 974 712 l 1
 940 569 l 1
 507 578 l 1
 445 99 l 1
 662 108 l 1
 784 115 868 122 913 132 c 1
 936 169 962 222 993 292 c 0
 1024 362 1043 415 1053 451 c 1
 1140 440 l 1
 1140 434 l 2
 1140 345 1133 262 1119 182 c 0
 1105 102 1087 41 1063 0 c 1
EndSplineSet
Colour: ffff
EndChar

StartChar: Eacute
Encoding: 201 201 136
Width: 1221
VWidth: 1655
GlyphClass: 2
Flags: HMW
LayerCount: 2
Fore
SplineSet
1024 1661 m 1
 844 1351 l 1
 795 1382 l 1
 914 1701 l 1
 1024 1661 l 1
1063 0 m 1
 695 2 488 3 445 3 c 2
 13 -3 l 1
 36 80 l 1
 254 134 l 1
 379 1094 l 1
 152 1117 l 1
 172 1194 l 1
 245 1209 353 1221 498 1233 c 0
 643 1245 779 1250 905 1250 c 2
 978 1250 l 1
 1202 1246 l 1
 1122 835 l 1
 1036 848 l 1
 1004 1111 l 1
 976 1117 l 1
 875 1136 752 1145 607 1143 c 1
 574 1143 l 1
 519 680 l 1
 974 712 l 1
 940 569 l 1
 507 578 l 1
 445 99 l 1
 662 108 l 1
 784 115 868 122 913 132 c 1
 936 169 962 222 993 292 c 0
 1024 362 1043 415 1053 451 c 1
 1140 440 l 1
 1140 434 l 2
 1140 345 1133 262 1119 182 c 0
 1105 102 1087 41 1063 0 c 1
EndSplineSet
Colour: ffff
EndChar

StartChar: Ecircumflex
Encoding: 202 202 137
Width: 1221
VWidth: 1655
GlyphClass: 2
Flags: HMW
LayerCount: 2
Fore
SplineSet
825 1577 m 1
 1000 1396 l 1
 951 1361 l 1
 791 1468 l 1
 781 1468 l 1
 644 1359 l 1
 607 1388 l 1
 771 1564 l 1
 825 1577 l 1
1063 0 m 1
 695 2 488 3 445 3 c 2
 13 -3 l 1
 36 80 l 1
 254 134 l 1
 379 1094 l 1
 152 1117 l 1
 172 1194 l 1
 245 1209 353 1221 498 1233 c 0
 643 1245 779 1250 905 1250 c 2
 978 1250 l 1
 1202 1246 l 1
 1122 835 l 1
 1036 848 l 1
 1004 1111 l 1
 976 1117 l 1
 875 1136 752 1145 607 1143 c 1
 574 1143 l 1
 519 680 l 1
 974 712 l 1
 940 569 l 1
 507 578 l 1
 445 99 l 1
 662 108 l 1
 784 115 868 122 913 132 c 1
 936 169 962 222 993 292 c 0
 1024 362 1043 415 1053 451 c 1
 1140 440 l 1
 1140 434 l 2
 1140 345 1133 262 1119 182 c 0
 1105 102 1087 41 1063 0 c 1
EndSplineSet
Colour: ffff
EndChar

StartChar: Edieresis
Encoding: 203 203 138
Width: 1221
VWidth: 1655
GlyphClass: 2
Flags: HMW
LayerCount: 2
Fore
SplineSet
730 1519 m 0
 747 1504 755 1486 755 1464 c 0
 755 1442 747 1423 730 1408 c 0
 713 1393 695 1385 672 1385 c 0
 649 1385 629 1392 612 1408 c 0
 595 1424 588 1443 588 1465 c 0
 588 1488 595 1504 612 1519 c 0
 629 1534 649 1541 672 1541 c 0
 695 1541 713 1534 730 1519 c 0
994 1519 m 0
 1012 1504 1020 1486 1020 1464 c 0
 1020 1442 1012 1424 994 1408 c 0
 976 1392 957 1385 934 1385 c 0
 911 1385 892 1392 875 1408 c 0
 858 1424 851 1443 851 1465 c 0
 851 1488 858 1504 875 1519 c 0
 892 1534 911 1541 934 1541 c 0
 957 1541 976 1534 994 1519 c 0
1063 0 m 1
 695 2 488 3 445 3 c 2
 13 -3 l 1
 36 80 l 1
 254 134 l 1
 379 1094 l 1
 152 1117 l 1
 172 1194 l 1
 245 1209 353 1221 498 1233 c 0
 643 1245 779 1250 905 1250 c 2
 978 1250 l 1
 1202 1246 l 1
 1122 835 l 1
 1036 848 l 1
 1004 1111 l 1
 976 1117 l 1
 875 1136 752 1145 607 1143 c 1
 574 1143 l 1
 519 680 l 1
 974 712 l 1
 940 569 l 1
 507 578 l 1
 445 99 l 1
 662 108 l 1
 784 115 868 122 913 132 c 1
 936 169 962 222 993 292 c 0
 1024 362 1043 415 1053 451 c 1
 1140 440 l 1
 1140 434 l 2
 1140 345 1133 262 1119 182 c 0
 1105 102 1087 41 1063 0 c 1
EndSplineSet
Colour: ffff
EndChar

StartChar: Igrave
Encoding: 204 204 139
Width: 809
VWidth: 1655
GlyphClass: 2
Flags: HMW
LayerCount: 2
Fore
SplineSet
315 1650 m 1
 429 1687 l 1
 558 1361 l 1
 502 1327 l 1
 315 1650 l 1
639 0 m 1
 13 0 l 1
 31 78 l 1
 254 129 l 1
 377 1090 l 1
 151 1123 l 1
 170 1199 l 1
 318 1230 472 1246 634 1246 c 0
 675 1246 727 1244 790 1239 c 1
 771 1164 l 1
 572 1142 l 1
 445 106 l 1
 663 81 l 1
 639 0 l 1
EndSplineSet
Colour: ffff
EndChar

StartChar: Iacute
Encoding: 205 205 140
Width: 809
VWidth: 1655
GlyphClass: 2
Flags: HMW
LayerCount: 2
Fore
SplineSet
736 1657 m 1
 556 1345 l 1
 507 1377 l 1
 626 1696 l 1
 736 1657 l 1
639 0 m 1
 13 0 l 1
 31 78 l 1
 254 129 l 1
 377 1090 l 1
 151 1123 l 1
 170 1199 l 1
 318 1230 472 1246 634 1246 c 0
 675 1246 727 1244 790 1239 c 1
 771 1164 l 1
 572 1142 l 1
 445 106 l 1
 663 81 l 1
 639 0 l 1
EndSplineSet
Colour: ffff
EndChar

StartChar: Icircumflex
Encoding: 206 206 141
Width: 809
VWidth: 1655
GlyphClass: 2
Flags: HMW
LayerCount: 2
Fore
SplineSet
537 1572 m 1
 712 1391 l 1
 663 1356 l 1
 504 1463 l 1
 494 1463 l 1
 356 1354 l 1
 318 1383 l 1
 484 1559 l 1
 537 1572 l 1
639 0 m 1
 13 0 l 1
 31 78 l 1
 254 129 l 1
 377 1090 l 1
 151 1123 l 1
 170 1199 l 1
 318 1230 472 1246 634 1246 c 0
 675 1246 727 1244 790 1239 c 1
 771 1164 l 1
 572 1142 l 1
 445 106 l 1
 663 81 l 1
 639 0 l 1
EndSplineSet
Colour: ffff
EndChar

StartChar: Idieresis
Encoding: 207 207 142
Width: 810
VWidth: 1655
GlyphClass: 2
Flags: HMW
LayerCount: 2
Fore
SplineSet
443 1514 m 0
 460 1499 468 1481 468 1459 c 0
 468 1437 460 1418 443 1403 c 0
 426 1388 406 1380 383 1380 c 0
 360 1380 341 1387 325 1403 c 0
 309 1419 301 1438 301 1460 c 0
 301 1483 309 1499 325 1514 c 0
 341 1529 360 1536 383 1536 c 0
 406 1536 426 1529 443 1514 c 0
706 1514 m 0
 723 1499 731 1481 731 1459 c 0
 731 1437 723 1419 706 1403 c 0
 689 1387 669 1380 646 1380 c 0
 623 1380 604 1387 587 1403 c 0
 570 1419 563 1438 563 1460 c 0
 563 1483 570 1499 587 1514 c 0
 604 1529 623 1536 646 1536 c 0
 669 1536 689 1529 706 1514 c 0
639 0 m 1
 13 0 l 1
 31 78 l 1
 254 129 l 1
 377 1090 l 1
 151 1123 l 1
 170 1199 l 1
 318 1230 472 1246 634 1246 c 0
 677 1246 729 1244 791 1239 c 1
 771 1164 l 1
 572 1142 l 1
 445 106 l 1
 663 81 l 1
 639 0 l 1
EndSplineSet
Colour: ffff
EndChar

StartChar: Eth
Encoding: 208 208 143
Width: 1407
VWidth: 1655
GlyphClass: 2
Flags: HMW
LayerCount: 2
Fore
SplineSet
13 0 m 1
 33 77 l 1
 242 129 l 1
 298 541 l 1
 132 536 l 1
 158 634 l 1
 312 641 l 1
 369 1068 l 1
 152 1085 l 1
 173 1158 l 1
 338 1220 529 1251 746 1250 c 0
 786 1250 811 1250 822 1249 c 0
 1002 1240 1136 1200 1225 1127 c 0
 1265 1094 1298 1055 1324 1009 c 0
 1367 932 1389 846 1388 752 c 0
 1388 727 1387 704 1383 681 c 1
 1365 507 1289 358 1155 234 c 0
 1030 119 873 47 685 18 c 0
 606 6 492 0 341 0 c 2
 13 0 l 1
493 551 m 1
 439 106 l 1
 449 106 l 1
 453 104 463 104 484 104 c 0
 505 104 543 107 600 113 c 0
 740 126 857 160 951 218 c 0
 1045 276 1111 353 1148 450 c 0
 1173 515 1185 589 1185 672 c 0
 1185 755 1167 832 1132 904 c 0
 1107 957 1073 1001 1031 1037 c 0
 989 1073 930 1104 854 1132 c 0
 778 1160 718 1174 673 1175 c 0
 628 1176 592 1175 566 1171 c 1
 504 649 l 1
 755 660 l 1
 727 561 l 1
 493 551 l 1
EndSplineSet
Colour: ffff
EndChar

StartChar: Ntilde
Encoding: 209 209 144
Width: 1525
VWidth: 1655
GlyphClass: 2
Flags: HMW
LayerCount: 2
Fore
SplineSet
703 1419 m 2
 686 1419 667 1403 644 1372 c 1
 607 1380 l 1
 609 1387 611 1397 615 1411 c 0
 619 1425 627 1441 641 1462 c 0
 666 1501 694 1521 726 1522 c 1
 732 1522 l 1
 734 1520 735 1520 739 1520 c 2
 957 1490 l 1
 961 1490 l 2
 975 1490 993 1504 1016 1531 c 1
 1063 1529 l 1
 1032 1435 989 1388 934 1388 c 2
 925 1388 l 1
 706 1419 l 1
 703 1419 l 2
1016 -31 m 1
 461 999 l 1
 458 999 l 1
 439 486 l 1
 434 381 426 298 412 239 c 0
 398 180 371 124 332 70 c 1
 279 3 223 -31 163 -31 c 2
 156 -31 l 1
 97 -25 56 1 31 49 c 1
 22 69 17 87 13 103 c 1
 92 140 155 186 202 242 c 1
 296 359 346 567 354 864 c 1
 356 984 357 1053 358 1071 c 1
 132 1125 l 1
 154 1201 l 1
 247 1220 321 1230 378 1235 c 0
 435 1240 496 1243 563 1246 c 1
 651 1078 l 1
 1086 274 l 1
 1157 1106 l 1
 930 1122 l 1
 950 1197 l 1
 1053 1220 1137 1233 1199 1238 c 0
 1261 1243 1316 1245 1363 1245 c 0
 1410 1245 1458 1243 1506 1239 c 1
 1485 1163 l 1
 1280 1109 l 1
 1176 2 l 1
 1016 -31 l 1
EndSplineSet
Colour: ffff
EndChar

StartChar: Ograve
Encoding: 210 210 145
Width: 1099
VWidth: 1655
GlyphClass: 2
Flags: HMW
LayerCount: 2
Fore
SplineSet
420 1655 m 1
 533 1693 l 1
 663 1365 l 1
 606 1332 l 1
 420 1655 l 1
1080 744 m 1
 1078 596 1043 457 975 325 c 1
 898 179 799 78 681 21 c 0
 614 -12 540 -28 458 -28 c 0
 376 -28 300 -4 230 45 c 0
 160 94 107 158 70 238 c 0
 33 318 14 408 14 505 c 0
 14 642 40 769 92 886 c 0
 144 1003 218 1098 313 1169 c 0
 408 1240 517 1275 637 1275 c 0
 728 1275 808 1249 879 1196 c 0
 950 1143 1002 1077 1033 998 c 0
 1064 919 1080 836 1080 748 c 2
 1080 744 l 1
222 651 m 0
 222 495 252 368 312 269 c 0
 372 170 451 120 547 120 c 0
 643 120 721 167 782 260 c 0
 843 353 873 475 873 625 c 0
 873 720 860 805 833 881 c 0
 806 957 765 1018 712 1063 c 0
 659 1108 598 1130 531 1130 c 0
 464 1130 407 1108 360 1064 c 0
 267 975 221 838 222 651 c 0
EndSplineSet
Colour: ffff
EndChar

StartChar: Oacute
Encoding: 211 211 146
Width: 1099
VWidth: 1655
GlyphClass: 2
Flags: HMW
LayerCount: 2
Fore
SplineSet
841 1661 m 1
 661 1351 l 1
 611 1382 l 1
 730 1701 l 1
 841 1661 l 1
1080 744 m 1
 1078 596 1043 457 975 325 c 1
 898 179 799 78 681 21 c 0
 614 -12 540 -28 458 -28 c 0
 376 -28 300 -4 230 45 c 0
 160 94 107 158 70 238 c 0
 33 318 14 408 14 505 c 0
 14 642 40 769 92 886 c 0
 144 1003 218 1098 313 1169 c 0
 408 1240 517 1275 637 1275 c 0
 728 1275 808 1249 879 1196 c 0
 950 1143 1002 1077 1033 998 c 0
 1064 919 1080 836 1080 748 c 2
 1080 744 l 1
222 651 m 0
 222 495 252 368 312 269 c 0
 372 170 451 120 547 120 c 0
 643 120 721 167 782 260 c 0
 843 353 873 475 873 625 c 0
 873 720 860 805 833 881 c 0
 806 957 765 1018 712 1063 c 0
 659 1108 598 1130 531 1130 c 0
 464 1130 407 1108 360 1064 c 0
 267 975 221 838 222 651 c 0
EndSplineSet
Colour: ffff
EndChar

StartChar: Ocircumflex
Encoding: 212 212 147
Width: 1099
VWidth: 1655
GlyphClass: 2
Flags: HMW
LayerCount: 2
Fore
SplineSet
642 1577 m 1
 817 1396 l 1
 768 1361 l 1
 608 1468 l 1
 598 1468 l 1
 461 1359 l 1
 424 1388 l 1
 589 1564 l 1
 642 1577 l 1
1080 744 m 1
 1078 596 1043 457 975 325 c 1
 898 179 799 78 681 21 c 0
 614 -12 540 -28 458 -28 c 0
 376 -28 300 -4 230 45 c 0
 160 94 107 158 70 238 c 0
 33 318 14 408 14 505 c 0
 14 642 40 769 92 886 c 0
 144 1003 218 1098 313 1169 c 0
 408 1240 517 1275 637 1275 c 0
 728 1275 808 1249 879 1196 c 0
 950 1143 1002 1077 1033 998 c 0
 1064 919 1080 836 1080 748 c 2
 1080 744 l 1
222 651 m 0
 222 495 252 368 312 269 c 0
 372 170 451 120 547 120 c 0
 643 120 721 167 782 260 c 0
 843 353 873 475 873 625 c 0
 873 720 860 805 833 881 c 0
 806 957 765 1018 712 1063 c 0
 659 1108 598 1130 531 1130 c 0
 464 1130 407 1108 360 1064 c 0
 267 975 221 838 222 651 c 0
EndSplineSet
Colour: ffff
EndChar

StartChar: Otilde
Encoding: 213 213 148
Width: 1099
VWidth: 1655
GlyphClass: 2
Flags: HMW
LayerCount: 2
Fore
SplineSet
489 1419 m 2
 472 1419 453 1403 430 1372 c 1
 392 1380 l 1
 394 1387 397 1397 401 1411 c 0
 405 1425 413 1441 427 1462 c 0
 452 1501 480 1521 513 1522 c 1
 520 1522 l 1
 522 1520 523 1520 525 1520 c 2
 744 1490 l 1
 747 1490 l 2
 761 1490 779 1504 802 1531 c 1
 849 1529 l 1
 818 1435 775 1388 722 1388 c 2
 710 1388 l 1
 492 1419 l 1
 489 1419 l 2
1080 744 m 1
 1078 596 1043 457 975 325 c 1
 898 179 799 78 681 21 c 0
 614 -12 540 -28 458 -28 c 0
 376 -28 300 -4 230 45 c 0
 160 94 107 158 70 238 c 0
 33 318 14 408 14 505 c 0
 14 642 40 769 92 886 c 0
 144 1003 218 1098 313 1169 c 0
 408 1240 517 1275 637 1275 c 0
 728 1275 808 1249 879 1196 c 0
 950 1143 1002 1077 1033 998 c 0
 1064 919 1080 836 1080 748 c 2
 1080 744 l 1
222 651 m 0
 222 495 252 368 312 269 c 0
 372 170 451 120 547 120 c 0
 643 120 721 167 782 260 c 0
 843 353 873 475 873 625 c 0
 873 720 860 805 833 881 c 0
 806 957 765 1018 712 1063 c 0
 659 1108 598 1130 531 1130 c 0
 464 1130 407 1108 360 1064 c 0
 267 975 221 838 222 651 c 0
EndSplineSet
Colour: ffff
EndChar

StartChar: Odieresis
Encoding: 214 214 149
Width: 1099
VWidth: 1655
GlyphClass: 2
Flags: HMW
LayerCount: 2
Fore
SplineSet
547 1519 m 0
 564 1504 572 1486 572 1464 c 0
 572 1442 564 1423 547 1408 c 0
 530 1393 511 1385 488 1385 c 0
 465 1385 446 1392 430 1408 c 0
 414 1424 406 1443 406 1465 c 0
 406 1488 414 1504 430 1519 c 0
 446 1534 465 1541 488 1541 c 0
 511 1541 530 1534 547 1519 c 0
811 1519 m 0
 828 1504 836 1486 836 1464 c 0
 836 1442 828 1424 811 1408 c 0
 794 1392 774 1385 751 1385 c 0
 728 1385 710 1392 693 1408 c 0
 676 1424 668 1443 668 1465 c 0
 668 1488 676 1504 693 1519 c 0
 710 1534 728 1541 751 1541 c 0
 774 1541 794 1534 811 1519 c 0
1080 744 m 1
 1078 596 1043 457 975 325 c 1
 898 179 799 78 681 21 c 0
 614 -12 540 -28 458 -28 c 0
 376 -28 300 -4 230 45 c 0
 160 94 107 158 70 238 c 0
 33 318 14 408 14 505 c 0
 14 642 40 769 92 886 c 0
 144 1003 218 1098 313 1169 c 0
 408 1240 517 1275 637 1275 c 0
 728 1275 808 1249 879 1196 c 0
 950 1143 1002 1077 1033 998 c 0
 1064 919 1080 836 1080 748 c 2
 1080 744 l 1
222 651 m 0
 222 495 252 368 312 269 c 0
 372 170 451 120 547 120 c 0
 643 120 721 167 782 260 c 0
 843 353 873 475 873 625 c 0
 873 720 860 805 833 881 c 0
 806 957 765 1018 712 1063 c 0
 659 1108 598 1130 531 1130 c 0
 464 1130 407 1108 360 1064 c 0
 267 975 221 838 222 651 c 0
EndSplineSet
Colour: ffff
EndChar

StartChar: multiply
Encoding: 215 215 150
Width: 526
VWidth: 1655
GlyphClass: 2
Flags: HMW
LayerCount: 2
Fore
SplineSet
250 380 m 1
 68 223 l 1
 13 305 l 1
 184 453 l 1
 51 607 l 1
 140 672 l 1
 272 520 l 1
 454 678 l 1
 507 595 l 1
 335 448 l 1
 471 291 l 1
 382 227 l 1
 250 380 l 1
EndSplineSet
Colour: ffff
EndChar

StartChar: Oslash
Encoding: 216 216 151
Width: 1100
VWidth: 1655
GlyphClass: 2
Flags: HMW
LayerCount: 2
Fore
SplineSet
831 1296 m 1
 973 1304 l 1
 906 1176 l 1
 962 1128 1006 1066 1036 989 c 0
 1066 912 1081 832 1081 748 c 2
 1081 744 l 1
 1079 596 1044 457 976 325 c 1
 899 179 800 78 682 21 c 0
 615 -12 547 -28 476 -28 c 0
 405 -28 341 -14 284 14 c 1
 234 -73 l 1
 91 -81 l 1
 183 84 l 1
 162 104 139 115 113 121 c 0
 88 127 72 131 65 136 c 0
 49 147 38 182 29 241 c 0
 20 300 15 394 15 521 c 0
 15 648 41 769 93 886 c 0
 145 1003 219 1098 314 1169 c 0
 409 1240 518 1275 638 1275 c 0
 696 1275 750 1264 801 1243 c 1
 831 1296 l 1
223 651 m 0
 223 496 253 370 312 272 c 1
 725 1053 l 1
 668 1104 604 1130 535 1130 c 0
 466 1130 408 1108 361 1064 c 0
 268 975 222 838 223 651 c 0
360 205 m 1
 414 148 476 119 547 120 c 1
 644 120 722 167 783 260 c 0
 844 353 874 474 874 623 c 0
 874 772 842 895 778 992 c 1
 360 205 l 1
EndSplineSet
Colour: ffff
EndChar

StartChar: Ugrave
Encoding: 217 217 152
Width: 1445
VWidth: 1655
GlyphClass: 2
Flags: HMW
LayerCount: 2
Fore
SplineSet
556 1655 m 1
 670 1693 l 1
 799 1365 l 1
 743 1332 l 1
 556 1655 l 1
235 1087 m 1
 13 1123 l 1
 35 1199 l 1
 145 1219 241 1231 323 1237 c 0
 405 1243 475 1245 535 1245 c 0
 595 1245 633 1245 651 1243 c 1
 633 1166 l 1
 434 1138 l 1
 386 745 l 2
 386 743 386 735 384 721 c 0
 382 707 380 682 375 647 c 0
 370 612 369 585 367 566 c 0
 365 547 365 521 365 488 c 0
 365 455 366 428 369 405 c 0
 372 382 376 357 383 330 c 0
 398 274 429 227 477 188 c 1
 527 145 586 123 655 123 c 0
 785 123 879 179 936 290 c 0
 963 343 983 425 999 534 c 1
 1073 1111 l 1
 848 1120 l 1
 866 1197 l 1
 1007 1228 1153 1243 1306 1243 c 0
 1317 1243 1357 1242 1426 1239 c 1
 1406 1163 l 1
 1199 1096 l 1
 1114 517 l 2
 1085 325 1034 191 959 114 c 0
 924 77 875 43 813 12 c 0
 751 -19 677 -34 592 -34 c 2
 584 -34 l 1
 456 -28 356 11 285 83 c 0
 204 164 164 277 163 425 c 0
 163 460 171 552 189 702 c 2
 235 1087 l 1
EndSplineSet
Colour: ffff
EndChar

StartChar: Uacute
Encoding: 218 218 153
Width: 1445
VWidth: 1655
GlyphClass: 2
Flags: HMW
LayerCount: 2
Fore
SplineSet
978 1661 m 1
 797 1351 l 1
 748 1382 l 1
 867 1701 l 1
 978 1661 l 1
235 1087 m 1
 13 1123 l 1
 35 1199 l 1
 145 1219 241 1231 323 1237 c 0
 405 1243 475 1245 535 1245 c 0
 595 1245 633 1245 651 1243 c 1
 633 1166 l 1
 434 1138 l 1
 386 745 l 2
 386 743 386 735 384 721 c 0
 382 707 380 682 375 647 c 0
 370 612 369 585 367 566 c 0
 365 547 365 521 365 488 c 0
 365 455 366 428 369 405 c 0
 372 382 376 357 383 330 c 0
 398 274 429 227 477 188 c 1
 527 145 586 123 655 123 c 0
 785 123 879 179 936 290 c 0
 963 343 983 425 999 534 c 1
 1073 1111 l 1
 848 1120 l 1
 866 1197 l 1
 1007 1228 1153 1243 1306 1243 c 0
 1317 1243 1357 1242 1426 1239 c 1
 1406 1163 l 1
 1199 1096 l 1
 1114 517 l 2
 1085 325 1034 191 959 114 c 0
 924 77 875 43 813 12 c 0
 751 -19 677 -34 592 -34 c 2
 584 -34 l 1
 456 -28 356 11 285 83 c 0
 204 164 164 277 163 425 c 0
 163 460 171 552 189 702 c 2
 235 1087 l 1
EndSplineSet
Colour: ffff
EndChar

StartChar: Ucircumflex
Encoding: 219 219 154
Width: 1445
VWidth: 1655
GlyphClass: 2
Flags: HMW
LayerCount: 2
Fore
SplineSet
778 1577 m 1
 953 1396 l 1
 905 1361 l 1
 744 1468 l 1
 734 1468 l 1
 597 1359 l 1
 560 1388 l 1
 725 1564 l 1
 778 1577 l 1
235 1087 m 1
 13 1123 l 1
 35 1199 l 1
 145 1219 241 1231 323 1237 c 0
 405 1243 475 1245 535 1245 c 0
 595 1245 633 1245 651 1243 c 1
 633 1166 l 1
 434 1138 l 1
 386 745 l 2
 386 743 386 735 384 721 c 0
 382 707 380 682 375 647 c 0
 370 612 369 585 367 566 c 0
 365 547 365 521 365 488 c 0
 365 455 366 428 369 405 c 0
 372 382 376 357 383 330 c 0
 398 274 429 227 477 188 c 1
 527 145 586 123 655 123 c 0
 785 123 879 179 936 290 c 0
 963 343 983 425 999 534 c 1
 1073 1111 l 1
 848 1120 l 1
 866 1197 l 1
 1007 1228 1153 1243 1306 1243 c 0
 1317 1243 1357 1242 1426 1239 c 1
 1406 1163 l 1
 1199 1096 l 1
 1114 517 l 2
 1085 325 1034 191 959 114 c 0
 924 77 875 43 813 12 c 0
 751 -19 677 -34 592 -34 c 2
 584 -34 l 1
 456 -28 356 11 285 83 c 0
 204 164 164 277 163 425 c 0
 163 460 171 552 189 702 c 2
 235 1087 l 1
EndSplineSet
Colour: ffff
EndChar

StartChar: Udieresis
Encoding: 220 220 155
Width: 1445
VWidth: 1655
GlyphClass: 2
Flags: HMW
LayerCount: 2
Fore
SplineSet
684 1519 m 0
 701 1504 709 1486 709 1464 c 0
 709 1442 701 1423 684 1408 c 0
 667 1393 647 1385 624 1385 c 0
 601 1385 582 1392 566 1408 c 0
 550 1424 542 1443 542 1465 c 0
 542 1488 550 1504 566 1519 c 0
 582 1534 601 1541 624 1541 c 0
 647 1541 667 1534 684 1519 c 0
947 1519 m 0
 964 1504 972 1486 972 1464 c 0
 972 1442 964 1424 947 1408 c 0
 930 1392 910 1385 887 1385 c 0
 864 1385 846 1392 829 1408 c 0
 812 1424 804 1443 804 1465 c 0
 804 1488 812 1504 829 1519 c 0
 846 1534 864 1541 887 1541 c 0
 910 1541 930 1534 947 1519 c 0
235 1087 m 1
 13 1123 l 1
 35 1199 l 1
 145 1219 241 1231 323 1237 c 0
 405 1243 475 1245 535 1245 c 0
 595 1245 633 1245 651 1243 c 1
 633 1166 l 1
 434 1138 l 1
 386 745 l 2
 386 743 386 735 384 721 c 0
 382 707 380 682 375 647 c 0
 370 612 369 585 367 566 c 0
 365 547 365 521 365 488 c 0
 365 455 366 428 369 405 c 0
 372 382 376 357 383 330 c 0
 398 274 429 227 477 188 c 1
 527 145 586 123 655 123 c 0
 785 123 879 179 936 290 c 0
 963 343 983 425 999 534 c 1
 1073 1111 l 1
 848 1120 l 1
 866 1197 l 1
 1007 1228 1153 1243 1306 1243 c 0
 1317 1243 1357 1242 1426 1239 c 1
 1406 1163 l 1
 1199 1096 l 1
 1114 517 l 2
 1085 325 1034 191 959 114 c 0
 924 77 875 43 813 12 c 0
 751 -19 677 -34 592 -34 c 2
 584 -34 l 1
 456 -28 356 11 285 83 c 0
 204 164 164 277 163 425 c 0
 163 460 171 552 189 702 c 2
 235 1087 l 1
EndSplineSet
Colour: ffff
EndChar

StartChar: Yacute
Encoding: 221 221 156
Width: 1097
VWidth: 1655
GlyphClass: 2
Flags: HMW
LayerCount: 2
Fore
SplineSet
813 1661 m 1
 633 1351 l 1
 583 1382 l 1
 703 1701 l 1
 813 1661 l 1
613 680 m 1
 584 583 562 476 548 359 c 2
 519 106 l 1
 732 81 l 1
 711 0 l 1
 85 0 l 1
 104 83 l 1
 325 129 l 1
 364 423 l 2
 371 470 374 519 374 569 c 0
 374 688 352 796 307 893 c 1
 246 1019 149 1092 13 1111 c 1
 23 1160 44 1197 78 1221 c 0
 112 1245 152 1259 196 1262 c 0
 198 1262 200 1262 202 1264 c 1
 207 1264 l 2
 314 1264 396 1204 451 1086 c 0
 498 985 521 857 519 702 c 1
 519 664 l 1
 535 664 l 1
 558 763 589 855 627 940 c 0
 665 1025 701 1088 734 1132 c 0
 767 1176 801 1206 838 1224 c 0
 875 1242 907 1250 936 1250 c 2
 946 1250 l 1
 950 1248 952 1248 956 1249 c 1
 993 1245 1023 1231 1045 1205 c 0
 1067 1179 1078 1150 1078 1120 c 0
 1078 1107 1077 1097 1074 1087 c 1
 1035 1085 991 1078 941 1063 c 0
 891 1048 845 1026 804 995 c 1
 757 957 720 915 693 869 c 0
 666 823 640 760 613 680 c 1
EndSplineSet
Colour: ffff
EndChar

StartChar: Thorn
Encoding: 222 222 157
Width: 1158
VWidth: 1655
GlyphClass: 2
Flags: HMW
LayerCount: 2
Fore
SplineSet
643 0 m 1
 13 0 l 1
 30 78 l 1
 252 130 l 1
 378 1099 l 1
 152 1131 l 1
 169 1205 l 1
 354 1239 509 1256 634 1255 c 0
 679 1255 733 1253 796 1249 c 1
 777 1171 l 1
 573 1150 l 1
 561 1039 l 1
 624 1045 672 1047 705 1047 c 0
 846 1047 954 1017 1028 957 c 0
 1102 897 1139 809 1139 696 c 0
 1139 581 1087 480 982 393 c 0
 874 304 721 250 523 232 c 1
 516 315 l 1
 675 333 791 379 864 453 c 0
 918 508 946 579 945 665 c 0
 944 751 913 824 853 885 c 0
 793 946 712 977 610 977 c 0
 590 977 572 975 552 971 c 1
 450 108 l 1
 668 80 l 1
 643 0 l 1
EndSplineSet
Colour: ffff
EndChar

StartChar: germandbls
Encoding: 223 223 158
Width: 1271
VWidth: 1655
GlyphClass: 2
Flags: HMW
LayerCount: 2
Fore
SplineSet
761 233 m 1
 798 125 852 66 924 57 c 1
 932 57 l 1
 934 55 939 55 948 56 c 0
 957 57 972 60 994 70 c 0
 1016 80 1033 92 1045 106 c 1
 1056 123 1061 140 1061 158 c 2
 1061 165 l 1
 1059 167 1059 173 1057 185 c 0
 1035.82 338.532 758 407.263 758 575 c 0
 758 772.84 1036 856.53 1036 1058 c 0
 1036 1159.93 981.28 1224.91 910 1222 c 1
 792.503 1222 692.35 1169.15 652 1074 c 1
 627 1023 612 949 605 851 c 1
 600 806 l 1
 579 468 565 251 557 155 c 0
 549 59 537 -21 520 -84 c 0
 503 -147 476 -200 441 -242 c 1
 394 -301 335 -342 264 -365 c 1
 227 -375 192 -378 161 -379 c 0
 130 -380 101 -373 76 -359 c 0
 34 -334 13 -297 13 -248 c 0
 13 -201 31 -163 68 -132 c 1
 132 -196 198 -228 265 -228 c 0
 287 -228 305 -224 321 -217 c 0
 337 -210 346 -200 352 -185 c 0
 397.356 -71.6112 380.426 -3.03046 403 313 c 2
 436 775 l 1
 325 766 l 1
 340 871 l 1
 445 855 l 1
 451 882 456 907 462 931 c 0
 483 1007 514 1070 556 1119 c 1
 651.212 1242.64 808.635 1299 1009 1299 c 0
 1095.52 1299 1201 1236 1201 1110 c 0
 1201 879.253 882 778 882 656 c 0
 882 629 891 601 911 573 c 1
 940 538 965 512 987 494 c 0
 1009 476 1033 456 1059 435 c 0
 1085 414 1102 399 1113 389 c 0
 1144 362 1166 335 1181 306 c 0
 1196 277 1203 252 1205 230 c 1
 1205 218 l 2
 1205 179 1190 139 1159 98 c 1
 1127 59 1084 27 1030 2 c 0
 976 -23 924 -35 875 -35 c 0
 780 -36 714 -13 675 34 c 0
 656 56 647 83 647 116 c 0
 647 149 664 179 699 207 c 0
 718 221 738 229 761 233 c 1
EndSplineSet
Colour: ffff
EndChar

StartChar: agrave
Encoding: 224 224 159
Width: 859
VWidth: 1655
GlyphClass: 2
Flags: HMW
LayerCount: 2
Fore
SplineSet
291 1303 m 1
 403 1339 l 1
 532 1013 l 1
 476 978 l 1
 291 1303 l 1
219 595 m 0
 185 490 168 398 168 317 c 0
 168 236 172 186 180 165 c 0
 188 144 205 134 232 134 c 0
 280 134 335 185 398 286 c 0
 461 387 505 512 532 660 c 1
 522 688 503 713 473 736 c 0
 443 759 413 770 381 770 c 0
 349 770 319 754 289 722 c 0
 259 690 236 648 219 595 c 0
592 918 m 1
 711 881 l 1
 639 491 l 1
 609 253 l 2
 604 214 602 186 602 168 c 0
 602 133 617 116 646 116 c 0
 664 116 688 133 718 166 c 0
 748 199 776 236 799 275 c 1
 840 240 l 1
 803 147 763 79 719 35 c 0
 675 -9 618 -31 548 -31 c 0
 515 -31 489 -18 471 6 c 0
 453 30 445 66 445 113 c 0
 445 161 457 219 481 287 c 1
 468 287 l 1
 433 203 387 131 330 70 c 0
 273 9 217 -21 162 -21 c 0
 107 -21 68 0 46 41 c 0
 24 82 13 143 13 225 c 0
 13 307 32 401 70 505 c 0
 108 609 159 701 223 779 c 0
 287 857 351 895 414 895 c 0
 477 895 525 870 558 820 c 1
 567 820 l 1
 581 909 l 1
 592 918 l 1
EndSplineSet
Colour: ffff
EndChar

StartChar: aacute
Encoding: 225 225 160
Width: 859
VWidth: 1655
GlyphClass: 2
Flags: HMW
LayerCount: 2
Fore
SplineSet
711 1309 m 1
 530 998 l 1
 481 1029 l 1
 600 1347 l 1
 711 1309 l 1
219 595 m 0
 185 490 168 398 168 317 c 0
 168 236 172 186 180 165 c 0
 188 144 205 134 232 134 c 0
 280 134 335 185 398 286 c 0
 461 387 505 512 532 660 c 1
 522 688 503 713 473 736 c 0
 443 759 413 770 381 770 c 0
 349 770 319 754 289 722 c 0
 259 690 236 648 219 595 c 0
592 918 m 1
 711 881 l 1
 639 491 l 1
 609 253 l 2
 604 214 602 186 602 168 c 0
 602 133 617 116 646 116 c 0
 664 116 688 133 718 166 c 0
 748 199 776 236 799 275 c 1
 840 240 l 1
 803 147 763 79 719 35 c 0
 675 -9 618 -31 548 -31 c 0
 515 -31 489 -18 471 6 c 0
 453 30 445 66 445 113 c 0
 445 161 457 219 481 287 c 1
 468 287 l 1
 433 203 387 131 330 70 c 0
 273 9 217 -21 162 -21 c 0
 107 -21 68 0 46 41 c 0
 24 82 13 143 13 225 c 0
 13 307 32 401 70 505 c 0
 108 609 159 701 223 779 c 0
 287 857 351 895 414 895 c 0
 477 895 525 870 558 820 c 1
 567 820 l 1
 581 909 l 1
 592 918 l 1
EndSplineSet
Colour: ffff
EndChar

StartChar: acircumflex
Encoding: 226 226 161
Width: 859
VWidth: 1655
GlyphClass: 2
Flags: HMW
LayerCount: 2
Fore
SplineSet
512 1224 m 1
 686 1043 l 1
 637 1008 l 1
 477 1115 l 1
 468 1115 l 1
 330 1006 l 1
 293 1036 l 1
 458 1212 l 1
 512 1224 l 1
219 595 m 0
 185 490 168 398 168 317 c 0
 168 236 172 186 180 165 c 0
 188 144 205 134 232 134 c 0
 280 134 335 185 398 286 c 0
 461 387 505 512 532 660 c 1
 522 688 503 713 473 736 c 0
 443 759 413 770 381 770 c 0
 349 770 319 754 289 722 c 0
 259 690 236 648 219 595 c 0
592 918 m 1
 711 881 l 1
 639 491 l 1
 609 253 l 2
 604 214 602 186 602 168 c 0
 602 133 617 116 646 116 c 0
 664 116 688 133 718 166 c 0
 748 199 776 236 799 275 c 1
 840 240 l 1
 803 147 763 79 719 35 c 0
 675 -9 618 -31 548 -31 c 0
 515 -31 489 -18 471 6 c 0
 453 30 445 66 445 113 c 0
 445 161 457 219 481 287 c 1
 468 287 l 1
 433 203 387 131 330 70 c 0
 273 9 217 -21 162 -21 c 0
 107 -21 68 0 46 41 c 0
 24 82 13 143 13 225 c 0
 13 307 32 401 70 505 c 0
 108 609 159 701 223 779 c 0
 287 857 351 895 414 895 c 0
 477 895 525 870 558 820 c 1
 567 820 l 1
 581 909 l 1
 592 918 l 1
EndSplineSet
Colour: ffff
EndChar

StartChar: atilde
Encoding: 227 227 162
Width: 859
VWidth: 1655
GlyphClass: 2
Flags: HMW
LayerCount: 2
Fore
SplineSet
358 1066 m 2
 341 1066 322 1050 300 1019 c 1
 263 1027 l 1
 265 1034 268 1044 272 1058 c 0
 276 1072 283 1089 296 1110 c 0
 321 1149 349 1169 382 1168 c 1
 388 1168 l 1
 390 1166 392 1166 395 1166 c 2
 613 1137 l 1
 616 1137 l 2
 630 1137 649 1151 672 1178 c 1
 719 1176 l 1
 688 1082 645 1035 590 1036 c 1
 579 1036 l 1
 360 1066 l 1
 358 1066 l 2
219 595 m 0
 185 490 168 398 168 317 c 0
 168 236 172 186 180 165 c 0
 188 144 205 134 232 134 c 0
 280 134 335 185 398 286 c 0
 461 387 505 512 532 660 c 1
 522 688 503 713 473 736 c 0
 443 759 413 770 381 770 c 0
 349 770 319 754 289 722 c 0
 259 690 236 648 219 595 c 0
592 918 m 1
 711 881 l 1
 639 491 l 1
 609 253 l 2
 604 214 602 186 602 168 c 0
 602 133 617 116 646 116 c 0
 664 116 688 133 718 166 c 0
 748 199 776 236 799 275 c 1
 840 240 l 1
 803 147 763 79 719 35 c 0
 675 -9 618 -31 548 -31 c 0
 515 -31 489 -18 471 6 c 0
 453 30 445 66 445 113 c 0
 445 161 457 219 481 287 c 1
 468 287 l 1
 433 203 387 131 330 70 c 0
 273 9 217 -21 162 -21 c 0
 107 -21 68 0 46 41 c 0
 24 82 13 143 13 225 c 0
 13 307 32 401 70 505 c 0
 108 609 159 701 223 779 c 0
 287 857 351 895 414 895 c 0
 477 895 525 870 558 820 c 1
 567 820 l 1
 581 909 l 1
 592 918 l 1
EndSplineSet
Colour: ffff
EndChar

StartChar: adieresis
Encoding: 228 228 163
Width: 859
VWidth: 1655
GlyphClass: 2
Flags: HMW
LayerCount: 2
Fore
SplineSet
417 1165 m 0
 434 1150 442 1132 442 1110 c 0
 442 1088 434 1070 417 1055 c 0
 400 1040 380 1032 357 1032 c 0
 334 1032 315 1039 299 1055 c 0
 283 1071 275 1089 275 1111 c 0
 275 1133 283 1151 299 1166 c 0
 315 1181 334 1187 357 1187 c 0
 380 1187 400 1180 417 1165 c 0
681 1165 m 0
 698 1150 706 1132 706 1110 c 0
 706 1088 698 1071 681 1055 c 0
 664 1039 643 1032 620 1032 c 0
 597 1032 579 1039 562 1055 c 0
 545 1071 537 1089 537 1111 c 0
 537 1133 545 1151 562 1166 c 0
 579 1181 597 1187 620 1187 c 0
 643 1187 664 1180 681 1165 c 0
219 595 m 0
 185 490 168 398 168 317 c 0
 168 236 172 186 180 165 c 0
 188 144 205 134 232 134 c 0
 280 134 335 185 398 286 c 0
 461 387 505 512 532 660 c 1
 522 688 503 713 473 736 c 0
 443 759 413 770 381 770 c 0
 349 770 319 754 289 722 c 0
 259 690 236 648 219 595 c 0
592 918 m 1
 711 881 l 1
 639 491 l 1
 609 253 l 2
 604 214 602 186 602 168 c 0
 602 133 617 116 646 116 c 0
 664 116 688 133 718 166 c 0
 748 199 776 236 799 275 c 1
 840 240 l 1
 803 147 763 79 719 35 c 0
 675 -9 618 -31 548 -31 c 0
 515 -31 489 -18 471 6 c 0
 453 30 445 66 445 113 c 0
 445 161 457 219 481 287 c 1
 468 287 l 1
 433 203 387 131 330 70 c 0
 273 9 217 -21 162 -21 c 0
 107 -21 68 0 46 41 c 0
 24 82 13 143 13 225 c 0
 13 307 32 401 70 505 c 0
 108 609 159 701 223 779 c 0
 287 857 351 895 414 895 c 0
 477 895 525 870 558 820 c 1
 567 820 l 1
 581 909 l 1
 592 918 l 1
EndSplineSet
Colour: ffff
EndChar

StartChar: aring
Encoding: 229 229 164
Width: 859
VWidth: 1655
GlyphClass: 2
Flags: HMW
LayerCount: 2
Fore
SplineSet
607 1296 m 0
 635 1267 649 1229 649 1182 c 0
 649 1135 633 1096 602 1062 c 0
 571 1028 531 1011 485 1011 c 0
 439 1011 402 1026 374 1056 c 0
 346 1086 332 1124 332 1171 c 0
 332 1218 348 1258 380 1291 c 0
 412 1324 451 1340 497 1340 c 0
 543 1340 579 1325 607 1296 c 0
425 1262 m 0
 410 1241 402 1215 402 1182 c 0
 402 1149 411 1120 428 1095 c 0
 445 1070 467 1058 496 1058 c 0
 552 1058 580 1095 579 1170 c 0
 579 1205 571 1234 553 1258 c 0
 535 1282 514 1294 487 1294 c 0
 460 1294 440 1283 425 1262 c 0
219 595 m 0
 185 490 168 398 168 317 c 0
 168 236 172 186 180 165 c 0
 188 144 205 134 232 134 c 0
 280 134 335 185 398 286 c 0
 461 387 505 512 532 660 c 1
 522 688 503 713 473 736 c 0
 443 759 413 770 381 770 c 0
 349 770 319 754 289 722 c 0
 259 690 236 648 219 595 c 0
592 918 m 1
 711 881 l 1
 639 491 l 1
 609 253 l 2
 604 214 602 186 602 168 c 0
 602 133 617 116 646 116 c 0
 664 116 688 133 718 166 c 0
 748 199 776 236 799 275 c 1
 840 240 l 1
 803 147 763 79 719 35 c 0
 675 -9 618 -31 548 -31 c 0
 515 -31 489 -18 471 6 c 0
 453 30 445 66 445 113 c 0
 445 161 457 219 481 287 c 1
 468 287 l 1
 433 203 387 131 330 70 c 0
 273 9 217 -21 162 -21 c 0
 107 -21 68 0 46 41 c 0
 24 82 13 143 13 225 c 0
 13 307 32 401 70 505 c 0
 108 609 159 701 223 779 c 0
 287 857 351 895 414 895 c 0
 477 895 525 870 558 820 c 1
 567 820 l 1
 581 909 l 1
 592 918 l 1
EndSplineSet
Colour: ffff
EndChar

StartChar: ae
Encoding: 230 230 165
Width: 1043
VWidth: 1655
GlyphClass: 2
Flags: HMW
LayerCount: 2
Fore
SplineSet
799 512 m 0
 848 571 872 632 872 696 c 0
 872 760 846 791 793 791 c 0
 683 791 618 653 600 377 c 1
 683 408 750 453 799 512 c 0
231 628 m 0
 213 587 198 537 186 479 c 0
 174 421 168 360 168 294 c 0
 168 228 172 186 180 165 c 0
 188 144 205 134 231 134 c 0
 279 134 335 185 398 286 c 0
 461 387 505 512 532 660 c 1
 522 688 503 713 473 736 c 0
 443 759 415 770 386 770 c 0
 357 770 327 757 299 730 c 0
 271 703 249 669 231 628 c 0
858 897 m 0
 910 897 951 881 980 850 c 0
 1009 819 1024 775 1024 718 c 0
 1024 661 1001 604 955 544 c 0
 909 484 854 434 788 393 c 0
 722 352 659 323 598 305 c 1
 599 235 612 184 638 152 c 0
 664 120 700 104 747 104 c 0
 834 104 907 151 967 246 c 1
 1003 214 l 1
 981 148 941 91 882 42 c 0
 823 -7 757 -31 686 -31 c 0
 615 -31 558 -8 515 39 c 0
 472 86 448 151 442 235 c 1
 400 159 354 97 305 50 c 0
 256 3 206 -21 157 -21 c 0
 61 -21 13 59 13 218 c 0
 13 305 32 400 70 505 c 0
 108 610 161 701 225 779 c 0
 289 857 355 895 424 895 c 0
 459 895 492 879 521 847 c 0
 550 815 570 775 582 726 c 1
 665 840 757 897 858 897 c 0
EndSplineSet
Colour: ffff
EndChar

StartChar: ccedilla
Encoding: 231 231 166
Width: 620
VWidth: 1655
GlyphClass: 2
Flags: HMW
LayerCount: 2
Fore
SplineSet
296 -75 m 1
 355 -126 384 -174 383 -221 c 1
 383 -290 318 -343 187 -381 c 1
 168 -323 l 1
 224 -303 252 -276 252 -242 c 0
 252 -215 228 -179 180 -134 c 1
 254 -31 l 1
 192 -25 148 -19 124 -8 c 0
 100 3 83 15 71 30 c 0
 59 45 48 70 34 105 c 0
 20 140 14 206 14 302 c 0
 14 398 26 480 50 549 c 0
 74 618 106 677 144 727 c 0
 182 777 226 817 275 847 c 0
 324 877 376 893 428 893 c 0
 480 893 522 878 554 847 c 0
 586 816 601 778 601 732 c 0
 601 686 590 653 568 632 c 0
 546 611 511 598 462 592 c 1
 462 602 459 625 452 663 c 0
 439 732 419 774 392 790 c 0
 382 795 372 797 360 796 c 1
 300 796 254 760 223 687 c 0
 192 614 176 521 176 411 c 0
 176 301 189 221 217 172 c 0
 245 123 292 98 359 98 c 2
 361 98 l 2
 393 98 424 110 456 133 c 0
 488 156 515 188 536 227 c 1
 572 195 l 1
 559 146 529 101 483 59 c 0
 437 17 386 -11 329 -24 c 1
 296 -75 l 1
EndSplineSet
Colour: ffff
EndChar

StartChar: egrave
Encoding: 232 232 167
Width: 616
VWidth: 1655
GlyphClass: 2
Flags: HMW
LayerCount: 2
Fore
SplineSet
246 1315 m 1
 359 1351 l 1
 489 1024 l 1
 432 990 l 1
 246 1315 l 1
445 698 m 0
 445 760 418 791 365 790 c 1
 253 790 189 664 173 414 c 1
 354 481 445 576 445 698 c 0
553 849 m 0
 583 817 597 777 597 726 c 0
 597 630 548 547 449 477 c 0
 366 418 273 373 172 341 c 1
 176 183 230 104 335 104 c 0
 373 104 410 118 446 144 c 0
 482 170 513 204 541 246 c 1
 578 214 l 1
 555 147 513 89 455 41 c 0
 397 -7 330 -31 254 -31 c 0
 178 -31 120 -2 77 56 c 0
 34 114 13 193 13 293 c 0
 13 393 32 488 71 580 c 0
 110 672 162 749 227 808 c 0
 292 867 359 897 430 897 c 0
 482 897 523 881 553 849 c 0
EndSplineSet
Colour: ffff
EndChar

StartChar: eacute
Encoding: 233 233 168
Width: 686
VWidth: 1655
GlyphClass: 2
Flags: HMW
LayerCount: 2
Fore
SplineSet
667 1320 m 1
 488 1010 l 1
 437 1041 l 1
 556 1359 l 1
 667 1320 l 1
445 698 m 0
 445 760 418 791 365 790 c 1
 253 790 189 664 173 414 c 1
 354 481 445 576 445 698 c 0
553 849 m 0
 583 817 597 777 597 726 c 0
 597 630 548 547 449 477 c 0
 366 418 273 373 172 341 c 1
 176 183 230 104 335 104 c 0
 373 104 410 118 446 144 c 0
 482 170 513 204 541 246 c 1
 578 214 l 1
 555 147 513 89 455 41 c 0
 397 -7 330 -31 254 -31 c 0
 178 -31 120 -2 77 56 c 0
 34 114 13 193 13 293 c 0
 13 393 32 488 71 580 c 0
 110 672 162 749 227 808 c 0
 292 867 359 897 430 897 c 0
 482 897 523 881 553 849 c 0
EndSplineSet
Colour: ffff
EndChar

StartChar: ecircumflex
Encoding: 234 234 169
Width: 661
VWidth: 1655
GlyphClass: 2
Flags: HMW
LayerCount: 2
Fore
SplineSet
468 1236 m 1
 642 1055 l 1
 594 1019 l 1
 434 1127 l 1
 424 1127 l 1
 287 1018 l 1
 249 1047 l 1
 414 1224 l 1
 468 1236 l 1
445 698 m 0
 445 760 418 791 365 790 c 1
 253 790 189 664 173 414 c 1
 354 481 445 576 445 698 c 0
553 849 m 0
 583 817 597 777 597 726 c 0
 597 630 548 547 449 477 c 0
 366 418 273 373 172 341 c 1
 176 183 230 104 335 104 c 0
 373 104 410 118 446 144 c 0
 482 170 513 204 541 246 c 1
 578 214 l 1
 555 147 513 89 455 41 c 0
 397 -7 330 -31 254 -31 c 0
 178 -31 120 -2 77 56 c 0
 34 114 13 193 13 293 c 0
 13 393 32 488 71 580 c 0
 110 672 162 749 227 808 c 0
 292 867 359 897 430 897 c 0
 482 897 523 881 553 849 c 0
EndSplineSet
Colour: ffff
EndChar

StartChar: edieresis
Encoding: 235 235 170
Width: 681
VWidth: 1655
GlyphClass: 2
Flags: HMW
LayerCount: 2
Fore
SplineSet
373 1177 m 0
 390 1162 398 1143 398 1121 c 0
 398 1099 390 1081 373 1066 c 0
 356 1051 338 1043 315 1043 c 0
 292 1043 272 1050 256 1066 c 0
 240 1082 232 1100 232 1122 c 0
 232 1145 240 1163 256 1178 c 0
 272 1193 292 1199 315 1199 c 0
 338 1199 356 1192 373 1177 c 0
636 1177 m 0
 653 1162 662 1144 662 1122 c 0
 662 1100 653 1082 636 1066 c 0
 619 1050 600 1043 577 1043 c 0
 554 1043 534 1050 518 1066 c 0
 502 1082 494 1100 494 1122 c 0
 494 1145 502 1163 518 1178 c 0
 534 1193 554 1199 577 1199 c 0
 600 1199 619 1192 636 1177 c 0
445 698 m 0
 445 760 418 791 365 790 c 1
 253 790 189 664 173 414 c 1
 354 481 445 576 445 698 c 0
553 849 m 0
 583 817 597 777 597 726 c 0
 597 630 548 547 449 477 c 0
 366 418 273 373 172 341 c 1
 176 183 230 104 335 104 c 0
 373 104 410 118 446 144 c 0
 482 170 513 204 541 246 c 1
 578 214 l 1
 555 147 513 89 455 41 c 0
 397 -7 330 -31 254 -31 c 0
 178 -31 120 -2 77 56 c 0
 34 114 13 193 13 293 c 0
 13 393 32 488 71 580 c 0
 110 672 162 749 227 808 c 0
 292 867 359 897 430 897 c 0
 482 897 523 881 553 849 c 0
EndSplineSet
Colour: ffff
EndChar

StartChar: igrave
Encoding: 236 236 171
Width: 603
VWidth: 1655
GlyphClass: 2
Flags: HMW
LayerCount: 2
Fore
SplineSet
98 1331 m 1
 210 1367 l 1
 339 1041 l 1
 284 1006 l 1
 98 1331 l 1
353 254 m 1
 349 225 348 201 348 181 c 0
 348 142 359 123 382 123 c 0
 405 123 432 134 464 157 c 0
 496 180 522 209 542 246 c 1
 584 217 l 1
 524 57 428 -23 296 -23 c 0
 255 -23 225 -10 208 15 c 0
 191 40 183 71 183 108 c 0
 183 145 187 208 196 296 c 1
 232 611 l 2
 234 634 235 656 235 676 c 0
 235 728 223 754 199 754 c 0
 175 754 130 702 61 599 c 1
 13 631 l 1
 42 707 85 772 141 826 c 0
 197 880 252 906 307 906 c 0
 369 906 400 859 398 766 c 0
 398 758 393 692 381 569 c 1
 353 254 l 1
EndSplineSet
Colour: ffff
EndChar

StartChar: iacute
Encoding: 237 237 172
Width: 603
VWidth: 1655
GlyphClass: 2
Flags: HMW
LayerCount: 2
Fore
SplineSet
519 1336 m 1
 337 1026 l 1
 289 1057 l 1
 407 1375 l 1
 519 1336 l 1
353 254 m 1
 349 225 348 201 348 181 c 0
 348 142 359 123 382 123 c 0
 405 123 432 134 464 157 c 0
 496 180 522 209 542 246 c 1
 584 217 l 1
 524 57 428 -23 296 -23 c 0
 255 -23 225 -10 208 15 c 0
 191 40 183 71 183 108 c 0
 183 145 187 208 196 296 c 1
 232 611 l 2
 234 634 235 656 235 676 c 0
 235 728 223 754 199 754 c 0
 175 754 130 702 61 599 c 1
 13 631 l 1
 42 707 85 772 141 826 c 0
 197 880 252 906 307 906 c 0
 369 906 400 859 398 766 c 0
 398 758 393 692 381 569 c 1
 353 254 l 1
EndSplineSet
Colour: ffff
EndChar

StartChar: icircumflex
Encoding: 238 238 173
Width: 603
VWidth: 1655
GlyphClass: 2
Flags: HMW
LayerCount: 2
Fore
SplineSet
318 1252 m 1
 494 1071 l 1
 445 1036 l 1
 285 1142 l 1
 275 1142 l 1
 137 1034 l 1
 101 1064 l 1
 266 1239 l 1
 318 1252 l 1
353 254 m 1
 349 225 348 201 348 181 c 0
 348 142 359 123 382 123 c 0
 405 123 432 134 464 157 c 0
 496 180 522 209 542 246 c 1
 584 217 l 1
 524 57 428 -23 296 -23 c 0
 255 -23 225 -10 208 15 c 0
 191 40 183 71 183 108 c 0
 183 145 187 208 196 296 c 1
 232 611 l 2
 234 634 235 656 235 676 c 0
 235 728 223 754 199 754 c 0
 175 754 130 702 61 599 c 1
 13 631 l 1
 42 707 85 772 141 826 c 0
 197 880 252 906 307 906 c 0
 369 906 400 859 398 766 c 0
 398 758 393 692 381 569 c 1
 353 254 l 1
EndSplineSet
Colour: ffff
EndChar

StartChar: idieresis
Encoding: 239 239 174
Width: 603
VWidth: 1655
GlyphClass: 2
Flags: HMW
LayerCount: 2
Fore
SplineSet
224 1193 m 0
 241 1178 249 1160 249 1138 c 0
 249 1116 241 1098 224 1083 c 0
 207 1068 188 1060 165 1060 c 0
 142 1060 122 1067 106 1083 c 0
 90 1099 83 1117 83 1139 c 0
 83 1161 90 1179 106 1194 c 0
 122 1209 142 1215 165 1215 c 0
 188 1215 207 1208 224 1193 c 0
488 1193 m 0
 506 1178 514 1160 514 1138 c 0
 514 1116 506 1099 488 1083 c 0
 470 1067 451 1060 428 1060 c 0
 405 1060 385 1067 368 1083 c 0
 351 1099 344 1117 344 1139 c 0
 344 1161 351 1179 368 1194 c 0
 385 1209 405 1215 428 1215 c 0
 451 1215 470 1208 488 1193 c 0
353 254 m 1
 349 225 348 201 348 181 c 0
 348 142 359 123 382 123 c 0
 405 123 432 134 464 157 c 0
 496 180 522 209 542 246 c 1
 584 217 l 1
 524 57 428 -23 296 -23 c 0
 255 -23 225 -10 208 15 c 0
 191 40 183 71 183 108 c 0
 183 145 187 208 196 296 c 1
 232 611 l 2
 234 634 235 656 235 676 c 0
 235 728 223 754 199 754 c 0
 175 754 130 702 61 599 c 1
 13 631 l 1
 42 707 85 772 141 826 c 0
 197 880 252 906 307 906 c 0
 369 906 400 859 398 766 c 0
 398 758 393 692 381 569 c 1
 353 254 l 1
EndSplineSet
Colour: ffff
EndChar

StartChar: eth
Encoding: 240 240 175
Width: 782
VWidth: 1655
GlyphClass: 2
Flags: HMW
LayerCount: 2
Fore
SplineSet
419 790 m 2
 353 790 302 766 265 717 c 0
 228 668 203 592 189 489 c 0
 184 457 182 420 184 377 c 1
 184 280 199 205 230 151 c 0
 261 97 307 70 368 70 c 0
 486 70 559 185 587 416 c 0
 591 445 592 474 592 502 c 0
 592 587 577 656 546 708 c 0
 515 760 475 787 426 790 c 1
 419 790 l 2
640 1085 m 1
 721 951 761 792 762 608 c 1
 762 389 709 221 603 105 c 0
 523 18 431 -26 327 -26 c 0
 258 -26 200 -9 153 24 c 0
 60 89 14 198 13 353 c 0
 13 382 14 411 18 442 c 0
 35 577 83 683 164 762 c 0
 245 841 339 881 447 881 c 0
 478 881 507 873 533 858 c 0
 559 843 575 821 582 791 c 1
 588 791 l 1
 576 853 549 939 506 1048 c 1
 299 1008 l 1
 318 1085 l 1
 478 1117 l 1
 455 1164 419 1218 370 1277 c 1
 478 1277 l 1
 529 1234 570 1190 602 1145 c 1
 743 1176 l 1
 724 1101 l 1
 640 1085 l 1
EndSplineSet
Colour: ffff
EndChar

StartChar: ntilde
Encoding: 241 241 176
Width: 1018
VWidth: 1655
GlyphClass: 2
Flags: HMW
LayerCount: 2
Fore
SplineSet
827 1203 m 1
 796 1109 753 1062 700 1064 c 1
 688 1064 l 1
 470 1094 l 1
 466 1094 l 2
 446 1094 430 1082 416 1058 c 1
 407 1047 l 1
 370 1055 l 1
 372 1062 375 1072 379 1086 c 0
 383 1100 391 1116 405 1136 c 0
 430 1175 458 1195 491 1196 c 1
 497 1196 l 1
 499 1194 500 1194 504 1194 c 2
 723 1164 l 1
 725 1164 l 2
 743 1164 760 1178 780 1205 c 1
 827 1203 l 1
354 344 m 1
 350 207 337 112 311 56 c 0
 285 0 243 -28 184 -28 c 0
 182 -28 168 -27 142 -24 c 1
 128 3 l 1
 210 388 l 1
 232 620 l 2
 234 648 235 673 235 696 c 0
 235 745 223 769 198 768 c 0
 185 768 165 751 136 718 c 0
 107 685 82 650 61 613 c 1
 13 651 l 1
 40 724 82 786 138 840 c 0
 194 894 252 921 313 921 c 0
 365 921 391 887 390 818 c 0
 390 788 386 753 377 713 c 0
 367 672 362 644 359 627 c 0
 351 592 348 574 349 573 c 2
 360 567 l 1
 390 658 435 737 494 801 c 0
 553 865 609 897 662 897 c 0
 715 897 755 883 781 856 c 0
 807 829 820 794 820 750 c 0
 820 706 817 662 811 615 c 2
 767 253 l 2
 762 218 760 195 760 181 c 0
 760 141 772 121 795 121 c 0
 818 121 846 133 878 156 c 0
 910 179 936 209 956 246 c 1
 999 216 l 1
 939 56 838 -24 695 -24 c 0
 630 -24 597 18 597 101 c 0
 597 112 604 177 618 295 c 2
 641 488 l 2
 651 571 655 625 656 649 c 1
 656 698 637 722 600 721 c 1
 495 721 413 595 354 344 c 1
EndSplineSet
Colour: ffff
EndChar

StartChar: ograve
Encoding: 242 242 177
Width: 694
VWidth: 1655
GlyphClass: 2
Flags: HMW
LayerCount: 2
Fore
SplineSet
204 1298 m 1
 316 1336 l 1
 447 1008 l 1
 390 973 l 1
 204 1298 l 1
235 733 m 0
 181 672 154 581 154 460 c 0
 154 325 185 221 246 146 c 0
 276 109 309 89 346 90 c 0
 383 91 416 107 445 139 c 1
 501 204 529 300 529 424 c 0
 529 558 499 659 440 730 c 0
 410 765 376 783 338 784 c 0
 300 785 266 767 235 733 c 0
84 79 m 0
 36 149 13 236 13 340 c 0
 13 444 31 537 66 620 c 0
 101 703 148 770 209 821 c 0
 270 872 337 897 410 897 c 0
 483 897 546 863 597 795 c 0
 648 727 674 644 674 546 c 0
 674 448 659 358 628 274 c 0
 597 190 551 119 490 61 c 0
 429 3 358 -26 277 -26 c 0
 196 -26 132 9 84 79 c 0
EndSplineSet
Colour: ffff
EndChar

StartChar: oacute
Encoding: 243 243 178
Width: 694
VWidth: 1655
GlyphClass: 2
Flags: HMW
LayerCount: 2
Fore
SplineSet
625 1304 m 1
 445 994 l 1
 395 1024 l 1
 515 1342 l 1
 625 1304 l 1
235 733 m 0
 181 672 154 581 154 460 c 0
 154 325 185 221 246 146 c 0
 276 109 309 89 346 90 c 0
 383 91 416 107 445 139 c 1
 501 204 529 300 529 424 c 0
 529 558 499 659 440 730 c 0
 410 765 376 783 338 784 c 0
 300 785 266 767 235 733 c 0
84 79 m 0
 36 149 13 236 13 340 c 0
 13 444 31 537 66 620 c 0
 101 703 148 770 209 821 c 0
 270 872 337 897 410 897 c 0
 483 897 546 863 597 795 c 0
 648 727 674 644 674 546 c 0
 674 448 659 358 628 274 c 0
 597 190 551 119 490 61 c 0
 429 3 358 -26 277 -26 c 0
 196 -26 132 9 84 79 c 0
EndSplineSet
Colour: ffff
EndChar

StartChar: ocircumflex
Encoding: 244 244 179
Width: 695
VWidth: 1655
GlyphClass: 2
Flags: HMW
LayerCount: 2
Fore
SplineSet
427 1220 m 1
 601 1039 l 1
 552 1003 l 1
 392 1111 l 1
 383 1111 l 1
 246 1001 l 1
 208 1031 l 1
 373 1207 l 1
 427 1220 l 1
236 733 m 0
 182 672 155 581 155 460 c 0
 155 325 186 221 247 146 c 0
 277 109 310 89 347 90 c 0
 384 91 417 107 446 139 c 1
 502 204 530 300 530 424 c 0
 530 558 500 659 441 730 c 0
 411 765 377 783 339 784 c 0
 301 785 267 767 236 733 c 0
85 79 m 0
 37 149 14 236 14 340 c 0
 14 444 32 537 67 620 c 0
 102 703 149 770 210 821 c 0
 271 872 338 897 411 897 c 0
 484 897 547 863 598 795 c 0
 649 727 675 644 675 546 c 0
 675 448 660 358 629 274 c 0
 598 190 552 119 491 61 c 0
 430 3 359 -26 278 -26 c 0
 197 -26 133 9 85 79 c 0
EndSplineSet
Colour: ffff
EndChar

StartChar: otilde
Encoding: 245 245 180
Width: 695
VWidth: 1655
GlyphClass: 2
Flags: HMW
LayerCount: 2
Fore
SplineSet
634 1171 m 1
 603 1077 560 1030 506 1031 c 1
 495 1031 l 1
 276 1062 l 1
 273 1062 l 2
 253 1062 237 1050 223 1026 c 1
 215 1015 l 1
 177 1022 l 1
 179 1029 182 1039 186 1053 c 0
 190 1067 198 1084 211 1105 c 0
 236 1144 264 1164 297 1163 c 1
 304 1163 l 1
 306 1161 307 1161 311 1161 c 2
 528 1132 l 1
 531 1132 l 2
 549 1132 567 1146 587 1173 c 1
 634 1171 l 1
236 733 m 0
 182 672 155 581 155 460 c 0
 155 325 186 221 247 146 c 0
 277 109 310 89 347 90 c 0
 384 91 417 107 446 139 c 1
 502 204 530 300 530 424 c 0
 530 558 500 659 441 730 c 0
 411 765 377 783 339 784 c 0
 301 785 267 767 236 733 c 0
85 79 m 0
 37 149 14 236 14 340 c 0
 14 444 32 537 67 620 c 0
 102 703 149 770 210 821 c 0
 271 872 338 897 411 897 c 0
 484 897 547 863 598 795 c 0
 649 727 675 644 675 546 c 0
 675 448 660 358 629 274 c 0
 598 190 552 119 491 61 c 0
 430 3 359 -26 278 -26 c 0
 197 -26 133 9 85 79 c 0
EndSplineSet
Colour: ffff
EndChar

StartChar: odieresis
Encoding: 246 246 181
Width: 695
VWidth: 1655
GlyphClass: 2
Flags: HMW
LayerCount: 2
Fore
SplineSet
332 1160 m 0
 349 1145 357 1127 357 1105 c 0
 357 1083 349 1065 332 1050 c 0
 315 1035 297 1027 274 1027 c 0
 251 1027 231 1034 214 1050 c 0
 197 1066 190 1084 190 1106 c 0
 190 1128 197 1146 214 1161 c 0
 231 1176 251 1182 274 1182 c 0
 297 1182 315 1175 332 1160 c 0
595 1160 m 0
 613 1145 621 1127 621 1105 c 0
 621 1083 613 1066 595 1050 c 0
 577 1034 558 1027 535 1027 c 0
 512 1027 493 1034 476 1050 c 0
 459 1066 452 1084 452 1106 c 0
 452 1128 459 1146 476 1161 c 0
 493 1176 512 1182 535 1182 c 0
 558 1182 577 1175 595 1160 c 0
236 733 m 0
 182 672 155 581 155 460 c 0
 155 325 186 221 247 146 c 0
 277 109 310 89 347 90 c 0
 384 91 417 107 446 139 c 1
 502 204 530 300 530 424 c 0
 530 558 500 659 441 730 c 0
 411 765 377 783 339 784 c 0
 301 785 267 767 236 733 c 0
85 79 m 0
 37 149 14 236 14 340 c 0
 14 444 32 537 67 620 c 0
 102 703 149 770 210 821 c 0
 271 872 338 897 411 897 c 0
 484 897 547 863 598 795 c 0
 649 727 675 644 675 546 c 0
 675 448 660 358 629 274 c 0
 598 190 552 119 491 61 c 0
 430 3 359 -26 278 -26 c 0
 197 -26 133 9 85 79 c 0
EndSplineSet
Colour: ffff
EndChar

StartChar: divide
Encoding: 247 247 182
Width: 855
VWidth: 1655
GlyphClass: 2
Flags: HMW
LayerCount: 2
Fore
SplineSet
40 548 m 1
 836 548 l 1
 808 446 l 1
 13 446 l 1
 40 548 l 1
493 238 m 0
 493 230 493 225 492 221 c 0
 486 188 470 160 443 137 c 0
 416 114 386 103 356 103 c 0
 326 103 302 112 283 131 c 0
 264 150 255 168 255 188 c 0
 255 208 255 219 257 223 c 1
 261 254 276 280 303 301 c 0
 330 322 358 332 389 332 c 0
 420 332 444 323 464 305 c 0
 484 287 493 265 493 238 c 0
581 790 m 0
 581 782 581 777 579 773 c 1
 573 740 558 711 531 688 c 0
 504 665 475 653 444 653 c 0
 413 653 388 662 370 682 c 0
 352 702 344 720 344 740 c 0
 344 760 344 771 345 775 c 0
 349 806 364 832 390 853 c 0
 416 874 445 885 476 885 c 0
 507 885 532 876 552 857 c 0
 572 838 581 817 581 790 c 0
EndSplineSet
Colour: ffff
EndChar

StartChar: oslash
Encoding: 248 248 183
Width: 710
VWidth: 1655
GlyphClass: 2
Flags: HMW
LayerCount: 2
Fore
SplineSet
550 915 m 1
 679 923 l 1
 611 794 l 1
 663 727 689 645 690 547 c 0
 691 449 675 358 644 274 c 0
 613 190 567 119 506 61 c 0
 445 3 375 -26 296 -26 c 0
 257 -26 219 -17 184 2 c 1
 142 -77 l 1
 13 -84 l 1
 102 80 l 1
 53 149 29 235 29 339 c 0
 29 443 47 537 82 620 c 0
 117 703 164 770 225 821 c 0
 286 872 351 897 421 897 c 0
 453 897 488 888 526 869 c 1
 550 915 l 1
251 733 m 0
 197 672 170 581 170 460 c 0
 170 377 183 301 210 233 c 1
 467 716 l 1
 436 761 400 784 359 784 c 0
 318 784 282 767 251 733 c 0
248 163 m 1
 282 114 318 89 358 90 c 0
 398 91 432 107 461 139 c 1
 517 204 545 300 545 424 c 0
 545 503 532 576 505 644 c 1
 248 163 l 1
EndSplineSet
Colour: ffff
EndChar

StartChar: ugrave
Encoding: 249 249 184
Width: 991
VWidth: 1655
GlyphClass: 2
Flags: HMW
LayerCount: 2
Fore
SplineSet
364 1331 m 1
 477 1367 l 1
 607 1041 l 1
 550 1006 l 1
 364 1331 l 1
662 817 m 0
 685 872 724 900 781 900 c 0
 795 900 808 899 823 895 c 1
 839 867 l 1
 769 484 l 1
 752 284 l 2
 747 233 744 199 745 178 c 0
 746 157 748 143 754 135 c 0
 760 127 771 123 787 123 c 0
 803 123 826 139 857 170 c 0
 888 201 913 234 933 270 c 1
 972 242 l 1
 920 64 823 -25 679 -24 c 0
 620 -24 591 17 590 98 c 0
 590 139 599 194 618 263 c 1
 607 265 l 1
 574 174 532 102 483 51 c 0
 434 0 382 -26 329 -26 c 0
 276 -26 235 -12 209 16 c 0
 183 44 170 77 170 118 c 0
 170 159 173 205 179 256 c 1
 232 602 l 2
 237 637 239 661 238 676 c 1
 238 717 227 737 204 738 c 1
 173 738 125 689 61 592 c 1
 13 623 l 1
 42 699 85 765 141 819 c 0
 197 873 252 900 307 900 c 0
 372 900 405 857 403 770 c 0
 403 743 395 673 377 561 c 2
 349 385 l 2
 339 328 335 281 335 242 c 0
 335 203 338 179 347 167 c 0
 356 155 370 150 390 150 c 0
 438 150 481 179 520 237 c 0
 559 296 594 393 625 527 c 1
 627 668 639 764 662 817 c 0
EndSplineSet
Colour: ffff
EndChar

StartChar: uacute
Encoding: 250 250 185
Width: 991
VWidth: 1655
GlyphClass: 2
Flags: HMW
LayerCount: 2
Fore
SplineSet
785 1336 m 1
 605 1026 l 1
 555 1057 l 1
 675 1375 l 1
 785 1336 l 1
662 817 m 0
 685 872 724 900 781 900 c 0
 795 900 808 899 823 895 c 1
 839 867 l 1
 769 484 l 1
 752 284 l 2
 747 233 744 199 745 178 c 0
 746 157 748 143 754 135 c 0
 760 127 771 123 787 123 c 0
 803 123 826 139 857 170 c 0
 888 201 913 234 933 270 c 1
 972 242 l 1
 920 64 823 -25 679 -24 c 0
 620 -24 591 17 590 98 c 0
 590 139 599 194 618 263 c 1
 607 265 l 1
 574 174 532 102 483 51 c 0
 434 0 382 -26 329 -26 c 0
 276 -26 235 -12 209 16 c 0
 183 44 170 77 170 118 c 0
 170 159 173 205 179 256 c 1
 232 602 l 2
 237 637 239 661 238 676 c 1
 238 717 227 737 204 738 c 1
 173 738 125 689 61 592 c 1
 13 623 l 1
 42 699 85 765 141 819 c 0
 197 873 252 900 307 900 c 0
 372 900 405 857 403 770 c 0
 403 743 395 673 377 561 c 2
 349 385 l 2
 339 328 335 281 335 242 c 0
 335 203 338 179 347 167 c 0
 356 155 370 150 390 150 c 0
 438 150 481 179 520 237 c 0
 559 296 594 393 625 527 c 1
 627 668 639 764 662 817 c 0
EndSplineSet
Colour: ffff
EndChar

StartChar: ucircumflex
Encoding: 251 251 186
Width: 991
VWidth: 1655
GlyphClass: 2
Flags: HMW
LayerCount: 2
Fore
SplineSet
586 1252 m 1
 760 1071 l 1
 712 1036 l 1
 551 1142 l 1
 542 1142 l 1
 405 1034 l 1
 367 1064 l 1
 532 1239 l 1
 586 1252 l 1
662 817 m 0
 685 872 724 900 781 900 c 0
 795 900 808 899 823 895 c 1
 839 867 l 1
 769 484 l 1
 752 284 l 2
 747 233 744 199 745 178 c 0
 746 157 748 143 754 135 c 0
 760 127 771 123 787 123 c 0
 803 123 826 139 857 170 c 0
 888 201 913 234 933 270 c 1
 972 242 l 1
 920 64 823 -25 679 -24 c 0
 620 -24 591 17 590 98 c 0
 590 139 599 194 618 263 c 1
 607 265 l 1
 574 174 532 102 483 51 c 0
 434 0 382 -26 329 -26 c 0
 276 -26 235 -12 209 16 c 0
 183 44 170 77 170 118 c 0
 170 159 173 205 179 256 c 1
 232 602 l 2
 237 637 239 661 238 676 c 1
 238 717 227 737 204 738 c 1
 173 738 125 689 61 592 c 1
 13 623 l 1
 42 699 85 765 141 819 c 0
 197 873 252 900 307 900 c 0
 372 900 405 857 403 770 c 0
 403 743 395 673 377 561 c 2
 349 385 l 2
 339 328 335 281 335 242 c 0
 335 203 338 179 347 167 c 0
 356 155 370 150 390 150 c 0
 438 150 481 179 520 237 c 0
 559 296 594 393 625 527 c 1
 627 668 639 764 662 817 c 0
EndSplineSet
Colour: ffff
EndChar

StartChar: udieresis
Encoding: 252 252 187
Width: 991
VWidth: 1655
GlyphClass: 2
Flags: HMW
LayerCount: 2
Fore
SplineSet
492 1193 m 0
 509 1178 517 1160 517 1138 c 0
 517 1116 509 1098 492 1083 c 0
 475 1068 456 1060 433 1060 c 0
 410 1060 390 1067 373 1083 c 0
 356 1099 349 1117 349 1139 c 0
 349 1161 356 1179 373 1194 c 0
 390 1209 410 1215 433 1215 c 0
 456 1215 475 1208 492 1193 c 0
754 1193 m 0
 772 1178 780 1160 780 1138 c 0
 780 1116 772 1099 754 1083 c 0
 736 1067 717 1060 694 1060 c 0
 671 1060 652 1067 636 1083 c 0
 620 1099 612 1117 612 1139 c 0
 612 1161 620 1179 636 1194 c 0
 652 1209 671 1215 694 1215 c 0
 717 1215 736 1208 754 1193 c 0
662 817 m 0
 685 872 724 900 781 900 c 0
 795 900 808 899 823 895 c 1
 839 867 l 1
 769 484 l 1
 752 284 l 2
 747 233 744 199 745 178 c 0
 746 157 748 143 754 135 c 0
 760 127 771 123 787 123 c 0
 803 123 826 139 857 170 c 0
 888 201 913 234 933 270 c 1
 972 242 l 1
 920 64 823 -25 679 -24 c 0
 620 -24 591 17 590 98 c 0
 590 139 599 194 618 263 c 1
 607 265 l 1
 574 174 532 102 483 51 c 0
 434 0 382 -26 329 -26 c 0
 276 -26 235 -12 209 16 c 0
 183 44 170 77 170 118 c 0
 170 159 173 205 179 256 c 1
 232 602 l 2
 237 637 239 661 238 676 c 1
 238 717 227 737 204 738 c 1
 173 738 125 689 61 592 c 1
 13 623 l 1
 42 699 85 765 141 819 c 0
 197 873 252 900 307 900 c 0
 372 900 405 857 403 770 c 0
 403 743 395 673 377 561 c 2
 349 385 l 2
 339 328 335 281 335 242 c 0
 335 203 338 179 347 167 c 0
 356 155 370 150 390 150 c 0
 438 150 481 179 520 237 c 0
 559 296 594 393 625 527 c 1
 627 668 639 764 662 817 c 0
EndSplineSet
Colour: ffff
EndChar

StartChar: yacute
Encoding: 253 253 188
Width: 856
VWidth: 1655
GlyphClass: 2
Flags: HMW
LayerCount: 2
Fore
SplineSet
734 1336 m 1
 555 1026 l 1
 505 1057 l 1
 625 1375 l 1
 734 1336 l 1
62 592 m 1
 13 629 l 1
 38 700 75 764 127 819 c 0
 179 874 230 902 278 902 c 0
 326 902 362 885 387 852 c 0
 412 819 429 766 439 693 c 2
 500 205 l 1
 505 162 l 1
 514 162 l 1
 590 276 636 354 651 395 c 0
 666 436 674 467 677 490 c 0
 680 513 681 545 681 585 c 0
 681 625 667 671 640 723 c 0
 613 775 581 817 546 848 c 1
 559 864 577 877 601 889 c 0
 625 901 649 906 672 906 c 0
 717 906 755 886 788 846 c 0
 821 806 837 760 837 707 c 0
 837 616 812 524 763 429 c 0
 714 334 628 206 504 46 c 1
 491 -73 451 -174 385 -257 c 0
 319 -340 242 -381 155 -381 c 0
 117 -381 85 -370 57 -349 c 0
 29 -328 15 -302 15 -270 c 2
 15 -265 l 1
 18 -236 23 -213 32 -195 c 0
 41 -177 57 -160 80 -141 c 1
 131 -189 182 -213 231 -212 c 0
 280 -211 316 -198 339 -170 c 0
 362 -142 374 -93 374 -24 c 0
 374 13 371 57 364 109 c 2
 300 610 l 2
 294 652 284 685 266 710 c 0
 248 735 229 748 208 748 c 0
 187 748 165 733 138 703 c 0
 111 673 85 635 62 592 c 1
EndSplineSet
Colour: ffff
EndChar

StartChar: thorn
Encoding: 254 254 189
Width: 914
VWidth: 1655
GlyphClass: 2
Flags: HMW
LayerCount: 2
Back
SplineSet
164 -251 m 1
 309 887 l 1
 345 1145 l 1
 206 1171 l 1
 217 1246 l 1
 505 1269 l 1
 522 1248 l 1
 464 839 l 1
 396 560 l 1
 408 558 l 1
 445 652 488 730 539 791 c 128
 590 852 643 882 699 882 c 128
 755 882 801 852 838 790 c 128
 875 728 894 646 894 545 c 128
 894 444 879 355 850 278 c 128
 821 201 780 142 729 103 c 0
 632 27 522 -11 401 -13 c 1
 391 61 l 1
 433 66 466 71 491 79 c 128
 516 87 544 99 576 119 c 0
 608 139 633 164 653 195 c 0
 699 268 722 378 722 527 c 0
 722 596 715 645 702 676 c 128
 689 707 668 722 637 722 c 0
 586 722 533 673 480 574 c 1
 426 473 390 341 371 179 c 1
 308 -270 l 1
 490 -291 l 1
 473 -362 l 1
 13 -362 l 1
 32 -293 l 1
 164 -251 l 1
EndSplineSet
Fore
SplineSet
164 -251 m 1
 309 887 l 1
 349 1175 l 1
 210 1201 l 1
 221 1276 l 1
 509 1299 l 1
 526 1278 l 1
 464 839 l 1
 396 560 l 1
 408 558 l 1
 445 652 488 730 539 791 c 0
 590 852 643 882 699 882 c 0
 755 882 801 852 838 790 c 0
 875 728 894 646 894 545 c 0
 894 444 879 355 850 278 c 0
 821 201 780 142 729 103 c 0
 632 27 522 -11 401 -13 c 1
 391 61 l 1
 433 66 466 71 491 79 c 0
 516 87 544 99 576 119 c 0
 608 139 633 164 653 195 c 0
 699 268 722 378 722 527 c 0
 722 596 715 645 702 676 c 0
 689 707 668 722 637 722 c 0
 586 722 533 673 480 574 c 0
 426 473 390 341 371 179 c 1
 308 -270 l 1
 490 -291 l 1
 473 -362 l 1
 13 -362 l 1
 32 -293 l 1
 164 -251 l 1
EndSplineSet
Colour: ffff
EndChar

StartChar: ydieresis
Encoding: 255 255 190
Width: 856
VWidth: 1655
GlyphClass: 2
Flags: HMW
LayerCount: 2
Fore
SplineSet
442 1193 m 0
 459 1178 466 1160 466 1138 c 0
 466 1116 459 1098 442 1083 c 0
 425 1068 405 1060 382 1060 c 0
 359 1060 340 1067 324 1083 c 0
 308 1099 300 1117 300 1139 c 0
 300 1161 308 1179 324 1194 c 0
 340 1209 359 1215 382 1215 c 0
 405 1215 425 1208 442 1193 c 0
705 1193 m 0
 722 1178 729 1160 729 1138 c 0
 729 1116 722 1099 705 1083 c 0
 688 1067 668 1060 645 1060 c 0
 622 1060 602 1067 586 1083 c 0
 570 1099 562 1117 562 1139 c 0
 562 1161 570 1179 586 1194 c 0
 602 1209 622 1215 645 1215 c 0
 668 1215 688 1208 705 1193 c 0
62 592 m 1
 13 629 l 1
 38 700 75 764 127 819 c 0
 179 874 230 902 278 902 c 0
 326 902 362 885 387 852 c 0
 412 819 429 766 439 693 c 2
 500 205 l 1
 505 162 l 1
 514 162 l 1
 590 276 636 354 651 395 c 0
 666 436 674 467 677 490 c 0
 680 513 681 545 681 585 c 0
 681 625 667 671 640 723 c 0
 613 775 581 817 546 848 c 1
 559 864 577 877 601 889 c 0
 625 901 649 906 672 906 c 0
 717 906 755 886 788 846 c 0
 821 806 837 760 837 707 c 0
 837 616 812 524 763 429 c 0
 714 334 628 206 504 46 c 1
 491 -73 451 -174 385 -257 c 0
 319 -340 242 -381 155 -381 c 0
 117 -381 85 -370 57 -349 c 0
 29 -328 15 -302 15 -270 c 2
 15 -265 l 1
 18 -236 23 -213 32 -195 c 0
 41 -177 57 -160 80 -141 c 1
 131 -189 182 -213 231 -212 c 0
 280 -211 316 -198 339 -170 c 0
 362 -142 374 -93 374 -24 c 0
 374 13 371 57 364 109 c 2
 300 610 l 2
 294 652 284 685 266 710 c 0
 248 735 229 748 208 748 c 0
 187 748 165 733 138 703 c 0
 111 673 85 635 62 592 c 1
EndSplineSet
Colour: ffff
EndChar

StartChar: circumflex
Encoding: 710 710 191
Width: 474
VWidth: 1655
GlyphClass: 2
Flags: HMW
LayerCount: 2
Fore
SplineSet
258 1548 m 1
 434 1367 l 1
 385 1332 l 1
 225 1438 l 1
 215 1438 l 1
 77 1331 l 1
 40 1359 l 1
 206 1536 l 1
 258 1548 l 1
EndSplineSet
Colour: ffff
EndChar

StartChar: dotaccent
Encoding: 729 729 192
Width: 316
VWidth: 1655
GlyphClass: 2
Flags: HMW
LayerCount: 2
Fore
SplineSet
241 1527 m 0
 264 1506 276 1480 276 1448 c 0
 276 1416 264 1387 241 1364 c 0
 218 1341 190 1329 157 1329 c 0
 124 1329 97 1341 74 1364 c 0
 51 1387 40 1415 40 1448 c 0
 40 1481 52 1507 75 1528 c 0
 98 1549 125 1559 157 1559 c 0
 189 1559 218 1548 241 1527 c 0
EndSplineSet
Colour: ffff
EndChar

StartChar: ring
Encoding: 730 730 193
Width: 398
VWidth: 1655
GlyphClass: 2
Flags: HMW
LayerCount: 2
Fore
SplineSet
316 1620 m 0
 344 1590 358 1551 358 1505 c 0
 358 1459 343 1419 311 1386 c 0
 279 1353 240 1336 194 1336 c 0
 148 1336 110 1350 82 1379 c 0
 54 1408 40 1446 40 1493 c 0
 40 1540 56 1580 89 1614 c 0
 122 1648 161 1665 206 1665 c 0
 251 1665 288 1650 316 1620 c 0
133 1586 m 0
 117 1565 110 1538 110 1505 c 0
 110 1472 118 1444 136 1419 c 0
 154 1394 176 1382 204 1382 c 0
 260 1382 288 1419 288 1494 c 0
 288 1529 279 1558 261 1582 c 0
 243 1606 222 1617 196 1617 c 0
 170 1617 149 1607 133 1586 c 0
EndSplineSet
Colour: ffff
EndChar

StartChar: tilde
Encoding: 732 732 194
Width: 539
VWidth: 1655
GlyphClass: 2
Flags: HMW
LayerCount: 2
Fore
SplineSet
137 1389 m 2
 120 1389 101 1373 78 1342 c 1
 41 1351 l 1
 43 1358 46 1367 50 1381 c 0
 54 1395 62 1412 75 1432 c 0
 100 1471 128 1491 161 1492 c 1
 168 1492 l 1
 170 1490 172 1490 174 1490 c 2
 392 1461 l 1
 396 1461 l 2
 410 1461 428 1474 450 1501 c 1
 498 1500 l 1
 467 1406 424 1359 370 1359 c 2
 359 1359 l 1
 140 1389 l 1
 137 1389 l 2
EndSplineSet
Colour: ffff
EndChar

StartChar: Germandbls
Encoding: 7838 7838 195
Width: 1376
VWidth: 1655
GlyphClass: 2
Flags: HMW
LayerCount: 2
Fore
SplineSet
788 369 m 1
 768 317 757 271 758 232 c 0
 759 193 764 164 775 144 c 1
 784 122 800 103 823 86 c 0
 859 60 897 47 937 47 c 0
 977 47 1011 57 1042 78 c 0
 1094 113 1120 160 1120 220 c 0
 1120 268 1109 308 1086 341 c 0
 1063 374 1013 428 936 502 c 0
 859 576 804 631 773 667 c 0
 742 703 719 738 704 770 c 0
 689 802 681 839 681 882 c 2
 681 893 l 1
 683 939 695 981 717 1020 c 0
 755 1090 813 1142 890 1176 c 1
 890 1184 l 1
 876 1184 l 2
 790 1184 719 1160 662 1113 c 0
 605 1066 566 1005 545 931 c 0
 536 902 531 871 527 838 c 2
 423 -2 l 1
 13 -2 l 1
 36 80 l 1
 254 134 l 1
 335 771 l 1
 347 844 356 896 365 926 c 0
 374 956 389 988 411 1022 c 0
 490 1146 635 1221 844 1246 c 1
 875 1251 919 1253 976 1252 c 0
 1033 1251 1087 1245 1138 1230 c 0
 1189 1215 1233 1194 1271 1163 c 1
 1306 1132 1328 1100 1340 1068 c 0
 1352 1036 1357 1010 1357 992 c 0
 1357 923 1336 873 1293 841 c 0
 1264 819 1234 808 1204 809 c 0
 1174 810 1145 816 1118 830 c 1
 1144 902 1157 958 1157 999 c 0
 1157 1040 1154 1069 1147 1086 c 0
 1140 1103 1128 1119 1108 1136 c 0
 1088 1153 1070 1162 1052 1164 c 1
 1048 1166 1043 1166 1034 1166 c 0
 995 1166 961 1150 930 1117 c 1
 899 1086 880 1045 872 994 c 1
 868 978 867 963 867 948 c 0
 867 933 869 912 874 886 c 0
 879 860 886 839 897 821 c 0
 913 795 956 749 1027 683 c 0
 1098 617 1141 576 1157 561 c 0
 1200 520 1235 477 1262 432 c 0
 1296 377 1313 319 1313 258 c 0
 1313 197 1290 140 1243 88 c 1
 1214 54 1178 26 1135 3 c 0
 1059 -36 978 -55 892 -56 c 0
 844 -56 793 -49 739 -33 c 1
 656 -6 596 39 560 101 c 0
 544 130 535 150 533 162 c 0
 531 174 530 184 530 195 c 0
 530 246 547 288 581 320 c 1
 617 359 665 378 724 378 c 1
 745 379 767 376 788 369 c 1
EndSplineSet
Colour: ffff
EndChar

StartChar: endash
Encoding: 8211 8211 196
Width: 664
VWidth: 1655
GlyphClass: 2
Flags: HMW
LayerCount: 2
Fore
SplineSet
41 504 m 1
 639 510 l 1
 623 408 l 1
 24 401 l 1
 41 504 l 1
EndSplineSet
Colour: ffff
EndChar

StartChar: emdash
Encoding: 8212 8212 197
Width: 1162
VWidth: 1655
GlyphClass: 2
Flags: HMW
LayerCount: 2
Fore
SplineSet
41 504 m 1
 1137 510 l 1
 1121 408 l 1
 24 401 l 1
 41 504 l 1
EndSplineSet
Colour: ffff
EndChar

StartChar: quoteleft
Encoding: 8216 8216 198
Width: 372
VWidth: 1655
GlyphClass: 2
Flags: HMW
LayerCount: 2
Fore
SplineSet
163 801 m 2
 148 801 l 1
 96 807 59 840 36 900 c 0
 26 924 22 948 21 971 c 1
 21 1072 71 1160 171 1236 c 1
 215 1272 264 1304 319 1331 c 1
 352 1278 l 1
 293 1247 251 1214 226 1176 c 0
 201 1138 189 1101 189 1066 c 0
 189 1064 191 1053 195 1031 c 0
 199 1009 209 987 229 964 c 0
 249 941 272 924 297 911 c 1
 287 875 270 848 243 829 c 0
 216 810 190 801 163 801 c 2
EndSplineSet
Colour: ffff
EndChar

StartChar: quoteright
Encoding: 8217 8217 199
Width: 371
VWidth: 1655
GlyphClass: 2
Flags: HMW
LayerCount: 2
Fore
SplineSet
211 1324 m 2
 224 1324 l 1
 276 1317 314 1284 337 1224 c 0
 347 1200 351 1177 351 1154 c 0
 352 1053 302 965 203 888 c 1
 159 852 109 821 53 794 c 1
 20 846 l 1
 79 877 120 911 146 949 c 0
 172 987 185 1023 185 1058 c 0
 185 1060 183 1071 179 1093 c 0
 175 1115 163 1138 143 1160 c 0
 123 1182 101 1199 76 1213 c 1
 86 1249 103 1277 130 1296 c 0
 157 1315 184 1324 211 1324 c 2
EndSplineSet
Colour: ffff
EndChar

StartChar: quotesinglbase
Encoding: 8218 8218 200
Width: 377
VWidth: 1655
GlyphClass: 2
Flags: HMW
LayerCount: 2
Fore
SplineSet
214 228 m 2
 227 228 l 1
 279 221 316 188 338 127 c 0
 348 101 351 77 352 54 c 0
 353 31 352 13 349 0 c 0
 335 -75 287 -144 204 -209 c 1
 160 -245 110 -276 55 -303 c 1
 23 -251 l 1
 82 -220 124 -186 149 -149 c 0
 174 -112 186 -75 186 -38 c 0
 186 -29 184 -17 180 0 c 0
 176 17 163 38 141 63 c 0
 119 88 99 105 78 116 c 1
 88 152 106 179 133 199 c 0
 160 219 187 228 214 228 c 2
EndSplineSet
Colour: ffff
EndChar

StartChar: quotedblleft
Encoding: 8220 8220 201
Width: 706
VWidth: 1655
GlyphClass: 2
Flags: HMW
LayerCount: 2
Fore
SplineSet
163 801 m 2
 148 801 l 1
 96 807 59 840 36 900 c 0
 26 924 22 948 21 971 c 1
 21 1072 71 1160 171 1236 c 1
 215 1272 264 1304 319 1331 c 1
 352 1278 l 1
 293 1247 251 1214 226 1176 c 0
 201 1138 189 1101 189 1066 c 0
 189 1064 191 1053 195 1031 c 0
 199 1009 209 987 229 964 c 0
 249 941 272 924 297 911 c 1
 287 875 270 848 243 829 c 0
 216 810 190 801 163 801 c 2
497 801 m 2
 483 801 l 1
 431 807 394 840 372 900 c 1
 362 924 358 948 357 971 c 1
 357 1072 406 1160 505 1236 c 1
 549 1272 599 1304 654 1331 c 1
 686 1278 l 1
 627 1247 586 1214 561 1176 c 0
 536 1138 523 1101 523 1066 c 0
 523 1064 525 1053 530 1031 c 0
 535 1009 546 987 566 964 c 0
 586 941 607 924 632 911 c 1
 622 875 605 848 578 829 c 0
 551 810 524 801 497 801 c 2
EndSplineSet
Colour: ffff
EndChar

StartChar: quotedblright
Encoding: 8221 8221 202
Width: 698
VWidth: 1655
GlyphClass: 2
Flags: HMW
LayerCount: 2
Fore
SplineSet
211 1324 m 2
 224 1324 l 1
 276 1317 314 1284 337 1224 c 0
 347 1200 351 1177 351 1154 c 0
 352 1053 302 965 203 888 c 1
 159 852 109 821 53 794 c 1
 20 846 l 1
 79 877 120 911 146 949 c 0
 172 987 185 1023 185 1058 c 0
 185 1060 183 1071 179 1093 c 0
 175 1115 163 1138 143 1160 c 0
 123 1182 101 1199 76 1213 c 1
 86 1249 103 1277 130 1296 c 0
 157 1315 184 1324 211 1324 c 2
537 1324 m 2
 552 1324 l 1
 604 1317 641 1284 663 1224 c 1
 673 1200 677 1177 678 1154 c 1
 678 1053 628 965 529 888 c 1
 485 852 436 821 381 794 c 1
 348 846 l 1
 407 877 449 911 474 949 c 0
 499 987 511 1023 511 1058 c 0
 511 1060 509 1071 505 1093 c 0
 501 1115 490 1138 470 1160 c 0
 450 1182 428 1199 404 1213 c 1
 414 1249 432 1277 458 1296 c 0
 484 1315 510 1324 537 1324 c 2
EndSplineSet
Colour: ffff
EndChar

StartChar: dagger
Encoding: 8224 8224 203
Width: 758
VWidth: 1655
GlyphClass: 2
Flags: HMW
LayerCount: 2
Fore
SplineSet
441 802 m 1
 741 811 l 1
 718 691 l 1
 427 702 l 1
 312 -355 l 1
 171 -343 l 1
 314 704 l 1
 17 698 l 1
 38 811 l 1
 327 802 l 1
 371 1229 l 1
 501 1218 l 1
 441 802 l 1
EndSplineSet
Colour: ffff
EndChar

StartChar: daggerdbl
Encoding: 8225 8225 204
Width: 824
VWidth: 1655
GlyphClass: 2
Flags: HMW
LayerCount: 2
Fore
SplineSet
453 421 m 1
 425 170 l 1
 731 176 l 1
 712 63 l 1
 412 72 l 1
 369 -355 l 1
 239 -344 l 1
 299 72 l 1
 17 63 l 1
 38 183 l 1
 312 171 l 1
 359 489 l 1
 381 704 l 1
 86 698 l 1
 107 811 l 1
 395 802 l 1
 438 1229 l 1
 568 1218 l 1
 508 802 l 1
 807 811 l 1
 784 691 l 1
 495 702 l 1
 453 421 l 1
EndSplineSet
Colour: ffff
EndChar

StartChar: guilsinglleft
Encoding: 8249 8249 205
Width: 391
VWidth: 1655
GlyphClass: 2
Flags: HMW
LayerCount: 2
Fore
SplineSet
21 460 m 1
 337 804 l 1
 373 745 l 1
 164 451 l 1
 279 137 l 1
 216 77 l 1
 19 440 l 1
 21 460 l 1
EndSplineSet
Colour: ffff
EndChar

StartChar: guilsinglright
Encoding: 8250 8250 206
Width: 397
VWidth: 1655
GlyphClass: 2
Flags: HMW
LayerCount: 2
Fore
SplineSet
378 460 m 1
 374 440 l 1
 59 77 l 1
 18 137 l 1
 233 451 l 1
 118 745 l 1
 170 804 l 1
 378 460 l 1
EndSplineSet
Colour: ffff
EndChar

StartChar: Euro
Encoding: 8364 8364 207
Width: 1131
VWidth: 1655
GlyphClass: 2
Flags: HMW
LayerCount: 2
Fore
SplineSet
921 385 m 1
 1007 398 l 1
 1002 108 l 1
 935 59 871 26 811 6 c 0
 751 -14 681 -24 600 -24 c 0
 456 -24 339 20 250 109 c 0
 161 198 117 319 117 472 c 2
 117 476 l 1
 17 476 l 1
 48 579 l 1
 124 579 l 1
 130 618 133 641 135 648 c 1
 45 648 l 1
 76 750 l 1
 163 750 l 1
 208 884 279 997 377 1090 c 0
 429 1139 492 1177 566 1204 c 0
 640 1231 718 1245 803 1245 c 0
 932 1245 1035 1212 1114 1145 c 1
 1043 820 l 1
 958 834 l 1
 944 1048 l 1
 921 1084 893 1110 863 1126 c 0
 833 1142 790 1150 735 1150 c 0
 645 1150 567 1115 501 1045 c 0
 435 975 388 876 360 750 c 1
 894 750 l 1
 852 648 l 1
 342 648 l 1
 342 646 l 1
 337 619 335 597 335 579 c 1
 828 579 l 1
 786 476 l 1
 333 476 l 1
 337 350 369 253 427 185 c 0
 485 117 563 83 661 83 c 0
 739 83 803 112 854 170 c 1
 921 385 l 1
EndSplineSet
Colour: ffff
EndChar

StartChar: A.alt
Encoding: 65536 -1 208
Width: 1396
VWidth: 1655
GlyphClass: 2
Flags: HMW
LayerCount: 2
Fore
SplineSet
991 1271 m 1
 1200 132 l 1
 1377 81 l 1
 1356 0 l 1
 779 0 l 1
 801 72 l 1
 998 108 l 1
 948 432 l 1
 636 446 l 1
 563.412 261.506 423.588 -46.0762 216 -49 c 1
 104.705 -49 21.792 24.0859 13 123 c 1
 266.175 171.688 451.344 323.178 565 538 c 0
 634.1 667.137 754.312 988.083 811 1241 c 1
 991 1271 l 1
673 537 m 1
 936 505 l 1
 847 1062 l 1
 843 1062 l 1
 807 934 772 819 737 716 c 1
 673 537 l 1
EndSplineSet
Colour: ff
EndChar

StartChar: eight.osf
Encoding: 65537 -1 209
Width: 804
VWidth: 0
Flags: HMW
LayerCount: 2
Fore
SplineSet
333.67 949.405 m 0
 333.67 852.714 392.362 746.819 505.965 676 c 1
 554.132 721.122 632.234 799.6 632.234 944.094 c 0
 632.234 1034.37 590.258 1124 500.921 1124 c 0
 409.636 1124 333.67 1052.69 333.67 949.405 c 0
187.693 271.465 m 0
 187.693 142 266.92 66 359.35 66 c 0
 469.776 66 570.864 121.341 570.864 269.176 c 0
 570.864 367.16 472.088 461.51 350.8 545 c 1
 266.896 504 187.693 398.431 187.693 271.465 c 0
297.185 589 m 1
 298.61 598 l 1
 239.123 637.048 169.881 738.861 169.881 852.689 c 0
 169.881 1050.9 348.095 1201 530.116 1201 c 0
 684.371 1201 785.933 1114.94 785.933 988.262 c 0
 785.933 837.807 706.278 726.044 569.055 635 c 1
 567.629 626 l 1
 682.47 546.219 737.537 449.893 737.537 346.153 c 0
 737.537 125.719 558.539 -27 319.62 -27 c 0
 157.049 -27 17 63.5547 17 216.386 c 0
 17 372 138.896 504 297.185 589 c 1
EndSplineSet
Colour: ffff
EndChar

StartChar: five.osf
Encoding: 65538 -1 210
Width: 903
VWidth: 0
Flags: HMW
LayerCount: 2
Fore
SplineSet
173 29 m 1
 167.368 -86.7234 203.973 -216 356.395 -216 c 0
 492.88 -216 612 -132.869 612 95 c 0
 612 243.445 486.556 374.214 232.493 376 c 1
 435.952 904 l 1
 660 908.571 804 942.857 886.288 984 c 1
 889.719 964.354 891.369 946.406 891.369 930.021 c 0
 891.369 786.263 798.791 752.071 671.957 752.071 c 0
 610.663 752.071 543.398 757.482 473.828 764 c 1
 388.301 520 l 1
 691.337 511.935 798 340.527 798 149 c 0
 798 -93.2748 567.493 -297 303.981 -297 c 0
 98.4082 -297 0 -211 0 -121 c 0
 0 8.34465e-07 107.708 18.543 173 29 c 1
EndSplineSet
Colour: ffff
EndChar

StartChar: four.osf
Encoding: 65539 -1 211
Width: 977
VWidth: 0
Flags: HMW
LayerCount: 2
Fore
SplineSet
202.444 211 m 1
 532.444 211 l 1
 606.094 676 l 1
 202.444 211 l 1
17 164 m 1
 774.192 986 l 1
 836.342 968 l 1
 811.494 849 770.115 613 741.447 432 c 2
 706.444 211 l 1
 960.444 211 l 1
 923.646 86 l 1
 688.646 86 l 1
 629.736 -277 l 1
 451.877 -304 l 1
 514.121 89 l 1
 28.1221 89 l 1
 17 164 l 1
EndSplineSet
Colour: ffff
EndChar

StartChar: nine.osf
Encoding: 65540 -1 212
Width: 780
VWidth: 0
Flags: HMW
LayerCount: 2
Fore
SplineSet
220.135 526.874 m 0
 220.135 412.444 266.021 338 365.479 338 c 0
 435.479 338 503.18 374 542.1 424 c 1
 567.208 499.565 578.993 574.051 578.993 658.681 c 0
 578.993 785.552 534.652 891 441.064 891 c 0
 323.049 891 220.135 755.071 220.135 526.874 c 0
468.894 972 m 0
 684.921 972 761.713 805.591 761.713 623.612 c 0
 761.713 202.656 402.871 -168.857 28.2803 -282 c 1
 17 -208 l 1
 328.64 -84 446.944 132 518.479 319 c 1
 506.479 319 l 1
 446.866 252 362.373 230 275.373 230 c 0
 112.419 230 33.3945 338.898 33.3945 500.695 c 0
 33.3945 779.016 245.851 972 468.894 972 c 0
EndSplineSet
Colour: ffff
EndChar

StartChar: one.osf
Encoding: 65541 -1 213
Width: 597
VWidth: 0
Flags: HMW
LayerCount: 2
Fore
SplineSet
17 0 m 1
 37.7207 74 l 1
 229.164 121 l 1
 337.024 802 l 1
 144.499 802 l 1
 165.695 882 l 1
 462.416 956 l 1
 530.416 956 l 1
 396.056 114 l 1
 579.671 80 l 1
 557 0 l 1
 17 0 l 1
EndSplineSet
Colour: ffff
EndChar

StartChar: seven.osf
Encoding: 65542 -1 214
Width: 777
VWidth: 0
Flags: HMW
LayerCount: 2
Back
SplineSet
373 238 m 0
 334 155 315 70 315 -17 c 128
 315 -104 346 -182 408 -250 c 1
 390 -273 365 -290 331 -302 c 1
 321 -307 308 -309 292 -309 c 128
 276 -309 256 -305 230 -297 c 128
 204 -289 179 -271 156 -241 c 128
 133 -211 121 -179 117 -146 c 128
 113 -113 111 -89 111 -71 c 0
 111 -30 133 36 176 128 c 1
 222 216 291 320 383 439 c 2
 603 723 l 1
 487 719 380 714 281 706 c 128
 182 698 126 694 111 691 c 1
 45 531 l 1
 -30 552 l 1
 4 843 l 1
 20 845 77 848 179 854 c 128
 281 860 368 862 439 862 c 1
 794 849 l 1
 791 791 l 1
 557 513 l 2
 473 412 412 320 373 238 c 0
EndSplineSet
Fore
SplineSet
68.0596 666 m 1
 100.673 965 l 1
 353.386 976.673 537 961 758.673 945 c 1
 756.627 850 l 1
 573.387 608.692 113.834 53.6839 406 -257 c 1
 366.602 -292.68 334.182 -307.943 293.137 -307.943 c 0
 185 -307.943 111 -212.947 111 -103 c 0
 111 83.6205 365.734 466.96 615.49 796 c 1
 471.446 808 316.161 799 197.49 786 c 1
 144 646 l 1
 68.0596 666 l 1
EndSplineSet
Colour: ffff
EndChar

StartChar: six.osf
Encoding: 65543 -1 215
Width: 789
VWidth: 0
Flags: HMW
LayerCount: 2
Fore
SplineSet
209.825 306.292 m 0
 209.825 182.31 245.792 61 335.068 61 c 0
 465.861 61 555.953 218.141 555.953 407.774 c 0
 555.953 508.341 524.033 615 416.813 615 c 0
 342.813 615 276.687 570 246.984 534 c 1
 228.485 459.795 209.825 393.72 209.825 306.292 c 0
746.062 1229 m 1
 771.875 1171 l 1
 492.027 1052 334.649 816 263.289 618 c 1
 273.289 618 l 1
 342.059 686 430.761 722 512.762 722 c 0
 667.114 722 750.058 592.966 750.058 442.061 c 0
 750.058 177.824 521.68 -21 305.081 -21 c 0
 94.2549 -21 17 160.069 17 340.553 c 0
 17 759.062 389.794 1118.93 746.062 1229 c 1
EndSplineSet
Colour: ffff
EndChar

StartChar: three.osf
Encoding: 65544 -1 216
Width: 838
VWidth: 0
Flags: HMW
LayerCount: 2
Fore
SplineSet
164.154 -9 m 1
 173.154 -96 215.154 -204 308.154 -204 c 0
 501.921 -204 571.276 -71.6465 571.276 72.6641 c 0
 571.276 186.051 469.526 308.56 304.145 313 c 1
 294.757 380 l 1
 434.65 422.332 625.67 540 625.67 701.953 c 0
 625.67 770.546 597.115 857 522.89 857 c 0
 414.89 857 350.961 788 299.707 698 c 1
 225.983 725 l 1
 261.613 830 424.113 991 602.113 991 c 0
 736.992 991 820.85 875.627 820.85 754.057 c 0
 820.85 566.959 635.005 453.062 533.408 412 c 1
 531.666 401 l 1
 663.782 385.753 768.128 269.154 768.128 131.281 c 0
 768.128 -95.9727 519.787 -297 265.114 -297 c 0
 101.869 -297 17 -213.626 17 -151.289 c 0
 17 -92.3799 78.1143 -17.168 164.154 -9 c 1
EndSplineSet
Colour: ffff
EndChar

StartChar: two.osf
Encoding: 65545 -1 217
Width: 805
VWidth: 0
Flags: HMW
LayerCount: 2
Fore
SplineSet
26.1553 102 m 1
 336 288 576.326 444 576.326 698.212 c 0
 576.326 796.606 528.67 867 450.319 867 c 0
 364.319 867 259.856 782 209.909 675 c 1
 139.503 704 l 1
 170.708 800 335.325 987 543.959 991 c 0
 546.043 991.033 548.113 991.049 550.17 991.049 c 0
 711.955 991.049 787.468 869.392 787.97 739.958 c 0
 789 474 477 297 237.282 147 c 1
 608.282 147 l 1
 710.674 301 l 1
 780.248 292 l 1
 680 0 l 1
 17 0 l 1
 26.1553 102 l 1
EndSplineSet
Colour: ffff
EndChar

StartChar: zero.osf
Encoding: 65546 -1 218
Width: 832
VWidth: 0
Flags: HMW
LayerCount: 2
Fore
SplineSet
209.239 320.578 m 0
 209.239 138.032 275.704 71 352.216 71 c 0
 481.554 71 625.469 292.944 625.469 644.956 c 0
 625.469 825.256 559.141 900 482.517 900 c 0
 351.067 900 209.239 672.917 209.239 320.578 c 0
494.226 985 m 2
 496.98 985 l 1
 705.121 982.436 813.53 838.654 813.53 619.194 c 0
 813.53 234.553 551.738 -23 336.328 -23 c 0
 160.995 -23 18 95.0791 18 347.967 c 0
 18 673.971 239.829 985 494.226 985 c 2
EndSplineSet
Colour: ffff
EndChar

StartChar: uniF001
Encoding: 61441 61441 219
Width: 1340
VWidth: 1655
Flags: HMW
LayerCount: 2
Back
SplineSet
35 0 m 1
 47 73 l 1
 199 116 l 1
 199 784 l 1
 50 784 l 1
 62 857 l 1
 200 879 l 1
 233 1167 423 1304 565 1304 c 0
 670 1304 746 1269 746 1189 c 0
 746 1140 690 1090 657 1077 c 1
 608 1156 550 1198 494 1198 c 0
 420 1198 370 1153 368 981 c 2
 366 873 l 1
 623 873 l 1
 611 784 l 1
 366 784 l 1
 366 121 l 1
 611 83 l 1
 604 0 l 1
 35 0 l 1
658 0 m 1
 670 79 l 1
 821 116 l 1
 821 731 l 1
 670 786 l 1
 683 862 l 1
 964 885 l 1
 989 860 l 1
 989 116 l 1
 1149 80 l 1
 1137 0 l 1
 658 0 l 1
777 1194 m 0
 777 1258 833 1306 895 1306 c 0
 961 1306 1019 1256 1019 1192 c 0
 1019 1125 961 1070 895 1070 c 0
 829 1070 777 1127 777 1194 c 0
EndSplineSet
Fore
SplineSet
161 -381 m 0
 75.0889 -381 23.2178 -333.839 17 -253 c 1
 17 -204.169 47.8262 -158.516 76 -132 c 1
 142 -196 209 -228 277 -228 c 0
 418 -228 396 0 415 313 c 2
 443 775 l 1
 335 766 l 1
 347 871 l 1
 455 855 l 1
 468 925 l 1
 505.615 1113.24 679.216 1299 916 1299 c 0
 1009.5 1299 1095 1246.57 1095 1163 c 0
 1095 1104.34 1060.84 1064.35 1021 1039 c 1
 989.786 1104.27 924.071 1164 814 1164 c 0
 626.938 1164 619.25 1023.64 609 850 c 1
 649.536 868.579 887 900.693 984.264 900.693 c 0
 1087.79 900.693 1137 892 1137 756 c 0
 1137 748 1132 692 1120 569 c 1
 1092 254 l 1
 1088 225 1087 201 1087 181 c 0
 1087 142 1098 123 1121 123 c 0
 1186.28 123 1253.68 195.456 1281 246 c 1
 1323 217 l 1
 1263 57 1167 -23 1035 -23 c 0
 954.959 -23 922 30.3711 922 108 c 0
 922 145 926 208 935 296 c 1
 971 601 l 2
 974.081 627.957 976.305 650.532 976.305 669.329 c 0
 976.305 754.453 940 755 839.223 765.665 c 0
 773.192 772.653 693.532 775.834 629.092 775.834 c 0
 619.652 775.834 610.532 775.681 601.82 775.342 c 1
 561 178 l 2
 537 -170 433 -381 161 -381 c 0
EndSplineSet
Colour: ff
EndChar

StartChar: uniF002
Encoding: 61442 61442 220
Width: 1297
VWidth: 1655
Flags: HMW
LayerCount: 2
Back
SplineSet
161 -381 m 0
 75.0889 -381 23.2178 -333.839 17 -253 c 1
 17 -204.169 47.8262 -158.516 76 -132 c 1
 142 -196 209 -228 277 -228 c 0
 418 -228 393.361 0.598633 415 313 c 1
 443 765 l 1
 335 756 l 1
 347 861 l 1
 455 845 l 1
 465 925 l 2
 485 1088 618 1287 831 1287 c 4
 954.077 1287 1006 1220 1038.07 1203.65 c 5
 1068 1210 1103.79 1227.21 1151 1266 c 5
 1166 1245 l 5
 1128.37 967 l 25
 1086 623 l 1
 1046 253 l 2
 1043.49 229.735 1042.02 179.952 1042.02 163.34 c 0
 1042.02 128 1055.97 121 1096 121 c 0
 1177.56 121 1194.02 206.129 1228 266 c 1
 1280 246 l 1
 1246 77 1151 -24 1005 -24 c 0
 936 -24 871 3 871 99 c 0
 871 137 877 216 888 295 c 2
 981.698 1065.8 l 5
 934.006 1111.05 858.676 1152 759 1152 c 4
 613 1152 609 987 609 840 c 1
 839 861 l 1
 820 750 l 1
 603 761 l 1
 561 178 l 2
 536 -170 433 -381 161 -381 c 0
641 0 m 1
 653 79 l 1
 805 116 l 1
 805 1117 l 1
 648 1171 l 1
 660 1247 l 1
 947 1269 l 1
 972 1245 l 1
 972 116 l 1
 1131 80 l 1
 1120 0 l 1
 641 0 l 1
35 0 m 1
 47 73 l 1
 199 116 l 1
 199 784 l 1
 50 784 l 1
 62 857 l 1
 200 879 l 1
 203 1153 401 1302 494 1302 c 0
 581 1302 638 1281 638 1214 c 0
 638 1174 604 1136 574 1120 c 1
 550 1147 476 1185 432 1185 c 0
 370 1185 359 1065 363 948 c 2
 366 873 l 1
 623 873 l 1
 611 784 l 1
 366 784 l 1
 366 121 l 1
 611 83 l 1
 604 0 l 1
 35 0 l 1
EndSplineSet
Fore
SplineSet
161 -381 m 0
 75.0889 -381 23.2178 -333.839 17 -253 c 1
 17 -204.169 47.8262 -158.516 76 -132 c 1
 142 -196 209 -228 277 -228 c 0
 418 -228 396 0 415 313 c 2
 443 765 l 1
 335 756 l 1
 347 861 l 1
 455 845 l 1
 465 925 l 1
 484.891 1093.4 617.164 1299 829 1299 c 0
 952.077 1299 1004 1232 1036.07 1215.65 c 1
 1149 1278 l 1
 1164 1257 l 1
 1128.37 967 l 1
 1086 623 l 1
 1046 253 l 2
 1043.49 229.735 1042.02 179.952 1042.02 163.34 c 0
 1042.02 128 1055.97 121 1096 121 c 0
 1177.56 121 1194.02 206.129 1228 266 c 1
 1280 246 l 1
 1246 77 1151 -24 1005 -24 c 0
 936 -24 871 3 871 99 c 0
 871 137 879 216 888 295 c 2
 979.698 1077.8 l 1
 932.006 1123.05 856.676 1164 757 1164 c 0
 612.947 1164 609 992.654 609 840 c 1
 839 861 l 1
 820 750 l 1
 603 761 l 1
 561 178 l 2
 536 -170 433 -381 161 -381 c 0
EndSplineSet
Colour: ff
EndChar
